<svg width="16" height="17" viewBox="0 0 16 17" fill="none" xmlns="http://www.w3.org/2000/svg">
<path fill-rule="evenodd" clip-rule="evenodd" d="M8 3C8.13261 3 8.25979 3.05268 8.35355 3.14645C8.44732 3.24021 8.5 3.36739 8.5 3.5V8H13C13.1326 8 13.2598 8.05268 13.3536 8.14645C13.4473 8.24022 13.5 8.36739 13.5 8.5C13.5 8.63261 13.4473 8.75979 13.3536 8.85355C13.2598 8.94732 13.1326 9 13 9H8.5V13.5C8.5 13.6326 8.44732 13.7598 8.35355 13.8536C8.25979 13.9473 8.13261 14 8 14C7.86739 14 7.74022 13.9473 7.64645 13.8536C7.55268 13.7598 7.5 13.6326 7.5 13.5V9H3C2.86739 9 2.74021 8.94732 2.64645 8.85355C2.55268 8.75979 2.5 8.63261 2.5 8.5C2.5 8.36739 2.55268 8.24022 2.64645 8.14645C2.74021 8.05268 2.86739 8 3 8H7.5V3.5C7.5 3.36739 7.55268 3.24021 7.64645 3.14645C7.74022 3.05268 7.86739 3 8 3Z" fill="black"/>
</svg>
