<svg width="24" height="24" viewBox="0 0 24 24" fill="none" xmlns="http://www.w3.org/2000/svg">
<path d="M7.22724 10.5612C7.0566 10.6659 6.88812 10.7527 6.73788 10.8641C6.15972 11.293 5.52156 11.5183 4.79604 11.4617C4.32444 11.425 3.89484 11.2551 3.48828 11.0261C2.69316 10.5783 2.01324 9.99529 1.46628 9.26185C1.4058 9.18073 1.35132 9.09409 1.30332 9.00505C1.13676 8.69641 1.17108 8.42401 1.41276 8.16769C1.683 7.88113 2.02644 7.70641 2.38932 7.57441C3.3678 7.21801 4.36428 7.12585 5.37972 7.40353C5.73732 7.50145 6.05364 7.68577 6.35844 7.89169C6.65172 8.08969 6.95796 8.26153 7.3146 8.36809C7.35804 8.19409 7.40004 8.02585 7.4418 7.85761C7.21476 7.78273 6.987 7.72753 6.77604 7.63441C5.96844 7.27849 5.4726 6.68257 5.41572 5.77705C5.38812 5.33785 5.52468 4.93081 5.72076 4.54441C6.01764 3.95905 6.40548 3.43249 6.79788 2.90953C6.819 2.88145 6.84204 2.84569 6.8718 2.83561C6.92532 2.81713 6.99444 2.79361 7.03788 2.81377C7.07004 2.82865 7.095 2.91577 7.083 2.95993C7.0086 3.23641 6.9234 3.50977 6.84084 3.78409C6.74556 4.10041 6.6318 4.41241 6.5586 4.73377C6.49308 5.02129 6.50316 5.31529 6.66924 5.57977C6.8862 5.92513 7.26036 6.07489 7.707 5.99089C7.86276 5.96161 8.01708 5.92153 8.16996 5.87953C8.22324 5.86489 8.28132 5.84017 8.31972 5.80225C8.89716 5.23033 9.60828 4.91761 10.3837 4.72585C10.7776 4.62841 11.1757 4.54297 11.5614 4.41985C11.7997 4.34377 12.0184 4.20721 12.2377 4.10185C12.2161 4.30657 12.0757 4.47385 11.8866 4.65337C12.3227 4.56169 12.7283 4.50841 13.102 4.33105C13.299 4.23745 13.455 4.10065 13.5527 3.89905C13.588 4.23241 13.4348 4.49305 13.226 4.72585C13.5359 4.78345 13.84 4.82665 14.1373 4.89817C14.703 5.03401 15.1782 5.33497 15.622 5.70721C15.9772 6.00505 16.4161 6.06889 16.8565 5.95849C17.277 5.85313 17.5436 5.39809 17.4755 4.92457C17.4344 4.63873 17.3466 4.35865 17.266 4.08001C17.169 3.74569 17.0569 3.41593 16.9528 3.08401C16.9422 3.05065 16.9307 3.01345 16.9352 2.98033C16.9439 2.92033 16.9643 2.86177 16.9799 2.80273C17.0464 2.82385 17.1388 2.82433 17.1748 2.86969C17.361 3.10489 17.5468 3.34273 17.7064 3.59617C17.9504 3.98377 18.2087 4.36873 18.3983 4.78345C19.0026 6.10489 18.2228 7.28809 17.1642 7.67089C16.9744 7.73953 16.779 7.79281 16.5704 7.85809C16.6117 8.02057 16.6544 8.18857 16.7 8.36761C17 8.27329 17.2621 8.13457 17.5187 7.97881C17.8045 7.80505 18.0892 7.62217 18.3942 7.48921C18.8879 7.27393 19.4192 7.22977 19.953 7.24873C20.7078 7.27561 21.4343 7.43041 22.0972 7.80577C22.2863 7.91281 22.4646 8.05369 22.6151 8.21041C22.8373 8.44153 22.852 8.68201 22.6976 8.96449C22.4749 9.37249 22.1636 9.71041 21.8315 10.0296C21.3445 10.4976 20.8081 10.8977 20.1928 11.1826C19.1492 11.6655 18.1703 11.5361 17.2487 10.866C17.1008 10.7585 16.94 10.669 16.7845 10.5706C16.7231 10.7175 16.6722 10.8336 16.6261 10.9519C16.6144 10.9819 16.6074 11.0215 16.6168 11.0506C16.7752 11.5474 16.6871 12.0317 16.5268 12.5052C16.4524 12.7248 16.3408 12.9339 16.2287 13.1381C16.0489 13.4659 15.9268 13.8075 15.9486 14.1852C15.9894 14.8939 15.8809 15.5765 15.6052 16.2307C15.4009 16.7153 15.4326 17.202 15.5641 17.6969C15.6239 17.922 15.6644 18.1541 15.6916 18.3857C15.7691 19.0476 15.5286 19.4256 14.8957 19.656C14.8007 19.6906 14.7023 19.7184 14.6034 19.7391C14.4404 19.7734 14.342 19.8619 14.2962 20.0268C14.2074 20.3475 14.0488 20.629 13.7975 20.8548C13.4809 21.1395 13.1147 21.246 12.6952 21.1791C12.2248 21.1039 11.7556 21.1109 11.2825 21.1714C10.6312 21.2547 10.0972 20.9544 9.80388 20.3595C9.74772 20.2455 9.70404 20.124 9.66588 20.0023C9.62076 19.8583 9.5334 19.7772 9.3858 19.7357C9.21276 19.687 9.03948 19.6277 8.87868 19.5483C8.45772 19.3402 8.25492 18.9742 8.30892 18.5079C8.3418 18.2237 8.38236 17.9369 8.45964 17.6623C8.6082 17.1329 8.57076 16.6246 8.36364 16.1218C8.14164 15.583 8.03436 15.0235 8.07324 14.4403C8.10756 13.9243 7.9782 13.4551 7.70436 13.0176C7.38684 12.5103 7.28028 11.9484 7.3086 11.3563C7.30956 11.3343 7.30524 11.3091 7.31412 11.2906C7.4334 11.0446 7.32996 10.8226 7.22724 10.5612ZM14.3219 6.71185C14.3128 6.72169 14.3036 6.73153 14.2945 6.74137C13.7704 6.52201 13.2236 6.34441 12.7998 5.90281C12.806 6.22537 12.6589 6.46489 12.4444 6.65737C12.1952 6.88081 11.9329 7.09105 11.6651 7.29169C11.4877 7.42465 11.2904 7.53097 11.102 7.64905C11.4217 7.10449 11.6389 6.53401 11.7572 5.89945C11.104 6.31009 10.3928 6.50209 9.70092 6.74281C9.69132 6.73177 9.68148 6.72097 9.67188 6.70993C9.95292 6.37705 10.234 6.04393 10.5222 5.70265C9.85212 5.93497 9.23604 6.25369 8.66676 6.70081C8.86356 6.27409 9.08844 6.01345 9.57564 5.62705C9.53412 5.63209 9.49284 5.64049 9.45492 5.65657C8.89308 5.89465 8.4738 6.27409 8.26164 6.86017C7.93164 7.77193 7.6974 8.70817 7.557 9.66673C7.509 9.99433 7.5414 10.3222 7.64364 10.6339C7.7694 10.5807 7.88196 10.5139 8.0034 10.4849C8.38452 10.3939 8.70972 10.5339 8.99196 10.7755C9.16812 10.9265 9.32052 11.1055 9.4926 11.2815C9.20244 10.4753 8.73924 9.79921 8.08284 9.25369C8.09028 9.24049 8.09772 9.22705 8.10516 9.21385C8.40276 9.27745 8.70036 9.34081 8.9934 9.40345C8.89836 9.28561 8.7966 9.15937 8.69484 9.03313C9.26892 9.37369 9.657 9.85489 9.831 10.5007C10.1221 11.5822 10.2076 12.6831 10.137 13.7971C10.1185 14.0887 10.0717 14.3784 10.0381 14.6691C9.8898 13.6798 9.68412 12.7183 9.09876 11.881C8.6814 12.1267 8.33748 12.1294 8.08068 11.8971C7.935 11.7653 7.86636 11.6011 7.85892 11.4051C7.85148 11.2119 7.92396 11.0475 8.04108 10.8814C7.79028 10.9879 7.66572 11.2181 7.6854 11.5301C7.71732 12.0334 7.86012 12.5007 8.14884 12.9192C8.26164 13.0827 8.3754 13.2463 8.47596 13.4175C8.86068 14.0717 8.99484 14.7999 9.08532 15.5391C9.11172 15.7543 9.12948 15.9706 9.15228 16.1981C9.7302 15.4999 10.4533 15.4236 10.8827 15.607C10.7452 15.6262 10.5896 15.6291 10.4459 15.6713C10.0376 15.7918 9.7194 16.0491 9.4674 16.3846C8.9742 17.0412 8.8026 17.809 8.7462 18.606C8.72028 18.9725 8.96772 19.212 9.33396 19.2055C9.87612 19.1962 10.2752 18.9149 10.5894 18.4973C10.6744 18.3845 10.6372 18.3087 10.5011 18.2554C10.4279 18.2268 10.3504 18.1999 10.2884 18.1539C9.92916 17.8848 9.70188 17.1929 9.82572 16.7628C9.88188 16.5679 10.0211 16.4683 10.2227 16.4931C10.358 16.5099 10.4922 16.5396 10.6254 16.5691C11.3077 16.7201 11.996 16.7839 12.6908 16.6889C13.0355 16.6419 13.3756 16.5607 13.719 16.5024C14.0387 16.4479 14.2165 16.5979 14.2326 16.9215C14.2516 17.3035 14.1311 17.6427 13.9163 17.9525C13.816 18.0972 13.6902 18.2079 13.5172 18.264C13.3669 18.3127 13.3439 18.3862 13.4401 18.51C13.7178 18.8671 14.0696 19.1146 14.5208 19.1981C14.9953 19.2859 15.3116 19.0092 15.2843 18.5271C15.2754 18.3694 15.2449 18.2117 15.212 18.0567C15.0995 17.5243 14.9692 16.9978 14.6617 16.5353C14.3653 16.0891 13.9823 15.7611 13.4468 15.6408C13.3957 15.6293 13.3417 15.6286 13.2889 15.6262C13.2366 15.6238 13.184 15.6257 13.1315 15.6257C13.8419 15.4015 14.4023 15.6552 14.8756 16.1835C14.9084 15.8962 14.9375 15.6211 14.972 15.3468C15.0815 14.4783 15.3112 13.6579 15.8382 12.9331C16.1644 12.4846 16.3172 11.9609 16.3002 11.4C16.2935 11.1792 16.1939 11.0004 15.98 10.878C16.2049 11.3208 16.1968 11.6347 15.9318 11.8707C15.8286 11.9626 15.6856 12.0319 15.5497 12.0605C15.315 12.1099 15.0992 12.0228 14.8979 11.8656C14.306 12.7222 14.1016 13.6872 13.989 14.6866C13.946 14.466 13.9093 14.2464 13.8882 14.0254C13.8212 13.3231 13.8407 12.6211 13.9163 11.9211C13.9799 11.3323 14.0749 10.7496 14.2792 10.1897C14.4697 9.66697 14.8576 9.32137 15.3071 9.02929C15.2646 9.10057 15.2111 9.16225 15.1595 9.22585C15.1069 9.29089 15.0565 9.35761 14.9833 9.45169C15.3042 9.31297 15.5989 9.23833 15.9431 9.23665C15.266 9.80377 14.7971 10.4791 14.5295 11.2903C14.5571 11.2728 14.5758 11.2491 14.5936 11.2246C14.763 10.9901 14.9485 10.7707 15.2068 10.6296C15.5089 10.4645 15.8228 10.3867 16.1564 10.5372C16.2198 10.5658 16.2788 10.6035 16.3477 10.6411C16.4192 10.3582 16.4833 10.0831 16.4425 9.79681C16.3972 9.47809 16.3588 9.15769 16.2976 8.84161C16.1617 8.13937 15.9856 7.44721 15.7148 6.78289C15.4964 6.24721 15.1079 5.88169 14.5748 5.66593C14.5283 5.64697 14.4791 5.63425 14.4313 5.61865C14.8264 5.88289 15.0983 6.24169 15.3222 6.64489C15.0227 6.46417 14.7385 6.27049 14.4347 6.11593C14.1289 5.96041 13.8032 5.84401 13.4862 5.71033C13.4845 5.71921 13.4826 5.72809 13.4809 5.73721C13.7615 6.06193 14.0418 6.38689 14.3219 6.71185ZM14.0358 19.8523C12.6786 19.8523 11.3327 19.8523 9.98004 19.8523C9.98748 19.8804 9.99036 19.8977 9.9966 19.9135C10.2066 20.4355 10.8061 20.7622 11.3934 20.6571C11.7985 20.5846 12.1979 20.5879 12.6028 20.6566C12.9846 20.7211 13.3405 20.641 13.6504 20.3986C13.8306 20.257 13.9638 20.0813 14.0358 19.8523ZM16.042 6.30505C16.1267 6.50665 16.3165 6.60913 16.5745 6.60001C16.9187 6.58801 17.3027 6.32113 17.4059 6.01249C17.0142 6.42097 16.5292 6.36361 16.042 6.30505ZM7.9446 6.34105C7.70364 6.34105 7.47036 6.35305 7.23876 6.33769C7.00452 6.32209 6.8058 6.20305 6.60276 6.02401C6.76164 6.40417 7.23204 6.65425 7.59852 6.58705C7.75452 6.55825 7.87572 6.48553 7.9446 6.34105Z" fill="black"/>
</svg>
