<svg width="16" height="16" viewBox="0 0 16 16" fill="none" xmlns="http://www.w3.org/2000/svg">
<path d="M6.9389 13.9178L6.03408 13.07C4.68508 11.8288 3.50881 10.6126 2.50529 9.42127C1.50176 8.22996 1 6.9583 1 5.6063C1 4.48703 1.36741 3.5506 2.10223 2.79703C2.83705 2.04346 3.75284 1.66667 4.84959 1.66667C5.39796 1.66667 5.94085 1.7858 6.47826 2.02406C7.01567 2.26233 7.51469 2.66959 7.97532 3.24585C8.4908 2.66959 9.00078 2.26233 9.50529 2.02406C10.0098 1.7858 10.5417 1.66667 11.1011 1.66667C12.2088 1.66667 13.1355 2.04346 13.8813 2.79703C14.6271 3.5506 15 4.48703 15 5.6063C15 6.9583 14.49 8.22996 13.47 9.42127C12.4501 10.6126 11.2711 11.8344 9.93302 13.0866L9.04465 13.9178C8.73756 14.1948 8.38386 14.3333 7.98355 14.3333C7.58324 14.3333 7.23502 14.1948 6.9389 13.9178ZM7.46533 5.00788C7.21308 4.50919 6.84019 4.08808 6.34665 3.74454C5.85311 3.401 5.35409 3.22923 4.84959 3.22923C4.1696 3.22923 3.61575 3.45087 3.18801 3.89414C2.76028 4.33742 2.54642 4.90814 2.54642 5.6063C2.54642 6.22689 2.75206 6.88073 3.16334 7.56781C3.57462 8.25489 4.06816 8.92258 4.64395 9.57087C5.21974 10.2192 5.81747 10.8231 6.43713 11.3828C7.0568 11.9424 7.56953 12.4106 7.97532 12.7874C8.38112 12.4106 8.89385 11.9396 9.51351 11.3745C10.1332 10.8093 10.7336 10.2025 11.3149 9.55425C11.8962 8.90595 12.398 8.24104 12.8202 7.5595C13.2425 6.87796 13.4536 6.22689 13.4536 5.6063C13.4536 4.90814 13.2315 4.33742 12.7873 3.89414C12.3431 3.45087 11.781 3.22923 11.1011 3.22923C10.5856 3.22923 10.0838 3.39823 9.59577 3.73623C9.10772 4.07422 8.73208 4.49811 8.46886 5.00788C8.41402 5.1187 8.33999 5.19904 8.24677 5.24891C8.15354 5.29878 8.05758 5.32371 7.95887 5.32371C7.8492 5.32371 7.75323 5.29878 7.67098 5.24891C7.58872 5.19904 7.52017 5.1187 7.46533 5.00788Z" fill="#1A1B1F"/>
</svg>
