<svg width="175" height="50" viewBox="0 0 175 50" fill="none" xmlns="http://www.w3.org/2000/svg">
<g clip-path="url(#clip0_737_746)">
<path d="M52.2817 36.5619C52.1021 36.526 51.9301 36.4438 51.7505 36.3925C51.2141 36.236 50.6802 36.0794 50.1438 35.9203C49.977 36.2616 49.628 37.1368 49.5073 37.3293C49.3944 37.5115 47.5645 42.4699 46.1607 44.4923C44.7029 46.5891 42.9294 48.3548 40.8455 49.9101C43.8636 49.5945 46.0118 48.2471 47.9392 46.2657C50.0155 44.1304 52.6333 38.071 52.8232 37.8092C53.529 36.8288 53.5367 36.8186 52.2843 36.5619H52.2817Z" fill="#204E51"/>
<path d="M25.1233 28.8497C25.0796 28.4211 24.6279 27.9591 24.3713 27.6563C22.5234 25.4748 20.673 23.2958 18.8148 21.1246C16.5512 18.4786 14.2901 15.8325 12.0034 13.207C11.1051 12.1753 9.90402 11.757 8.58485 11.9982C6.88327 12.3113 5.62826 13.3559 4.6145 14.7341C3.15674 16.7154 1.91456 18.7994 1.08559 21.1374C0.390073 23.1008 -0.166854 25.0744 0.0435976 27.1789C0.110326 27.8513 0.364408 28.5545 0.882837 28.9831C3.54941 31.1877 6.21085 33.4051 8.97239 35.4865C10.3249 36.5054 11.1462 37.763 11.5722 39.3337C12.4063 42.4057 13.4432 45.4111 14.4185 48.437C14.7162 49.3609 16.1021 50.1026 17.1261 49.9845C18.2451 49.8562 19.2306 48.8758 19.4231 47.803C19.6105 46.7636 19.169 45.891 18.8662 44.9517C17.855 41.8026 16.9388 38.6253 15.9147 35.4814C15.6812 34.7654 15.5246 34.0134 14.8163 33.4385C12.568 31.6189 10.2402 29.8942 8.06386 27.9899C7.027 27.0814 6.77805 25.0205 6.76265 24.6278C6.65742 21.8329 6.5522 19.0329 6.5676 16.238C6.57273 15.078 7.61472 13.823 9.10585 13.9847C10.1709 14.1002 11.0153 15.1139 11.0204 16.4177C11.023 17.1851 11.9598 18.2963 12.3909 18.8122C13.9924 20.7242 15.7325 22.5284 17.2108 24.5277C18.0911 25.7211 21.4763 29.5554 22.1282 30.2202C22.816 30.9208 23.6373 31.026 24.3328 30.446C25.344 29.6042 25.1207 28.8625 25.1181 28.8471L25.1233 28.8497Z" fill="#204E51"/>
<path d="M20.9169 11.893C20.7423 11.8596 20.537 11.8109 20.6576 11.4567C21.2454 9.73716 20.8142 8.49499 19.2794 7.48123C17.7293 6.45721 16.1124 5.60001 14.2491 5.2407C12.681 4.93786 11.87 5.20991 10.9872 6.62916C10.864 6.82678 10.7536 6.88325 10.5586 6.73952C8.86725 5.49735 7.03735 4.39377 6.04412 2.43041C5.61039 1.57321 5.85164 1.20364 6.80123 0.918762C8.01518 0.554323 9.18806 0.872565 10.3481 1.12408C11.4825 1.37046 12.5938 1.7195 13.7025 2.07111C14.1362 2.2097 14.3954 2.13527 14.7368 1.81959C15.6376 0.977791 16.6539 0.336172 17.9089 0.0872245C20.2085 -0.367041 21.9024 1.12408 22.195 3.27478C22.2976 4.03189 22.4208 4.80184 22.2232 5.58204C22.0692 6.19286 22.5004 6.49571 22.9726 6.78059C24.5844 7.75585 26.0395 8.92872 27.2715 10.3659C28.1441 11.3848 28.257 12.3267 27.4973 12.7425C26.9506 13.0428 22.5106 12.2138 20.9194 11.8981L20.9169 11.893Z" fill="#204E51"/>
<path d="M3.92168 32.4043C5.36918 33.5772 6.8141 34.7526 8.25903 35.9281C8.30523 35.9666 8.32833 36.0436 8.37966 36.0667C9.90671 36.8007 9.64236 38.0634 9.33952 39.3286C8.86215 41.3202 8.41815 43.3195 7.48652 45.1674C6.85517 46.4224 6.21355 47.6722 5.41024 48.8272C4.60437 49.9821 2.83093 50.2259 1.71965 49.3713C0.487738 48.4217 0.290119 46.851 1.08573 45.6293C2.82837 42.9551 4.1347 40.1037 4.1347 36.8161C4.1347 35.3737 4.29639 33.9185 3.92168 32.4043Z" fill="#204E51"/>
<path d="M17.4136 29.6787C16.3305 29.5632 15.4246 28.9318 14.4262 28.5777C12.527 27.9027 10.6894 27.0481 8.81074 26.3038C7.65583 25.8469 7.26059 25.3208 7.23492 24.0247C7.18873 21.5378 7.14509 19.0535 7.0989 16.5666C7.0758 15.3193 7.84061 14.362 8.8595 14.3697C9.78344 14.3774 10.5842 15.3526 10.5996 16.5332C10.6252 18.5838 10.6406 20.6344 10.6406 22.6851C10.6406 23.1573 10.7151 23.3729 11.2643 23.5807C13.5793 24.4482 15.848 25.4414 18.1296 26.3987C18.7918 26.6759 19.3538 27.6204 19.1639 28.1978C18.8996 29.0037 18.299 29.8532 17.411 29.6787H17.4136Z" fill="#204E51"/>
<path d="M13.4663 5.77455C15.3244 5.9773 16.9721 6.73185 18.4992 7.7841C18.9098 8.06641 19.3384 8.32819 19.6644 8.73883C20.7731 10.1324 20.8526 10.4661 19.5514 11.8802C17.257 14.3722 13.3226 13.8025 11.7519 10.7997C11.0307 9.41894 10.9922 7.97145 11.7262 6.54963C12.0984 5.82845 12.7297 5.71039 13.4663 5.77455Z" fill="#204E51"/>
<path d="M52.831 37.4654C52.7977 37.4654 52.7643 37.4602 52.7309 37.4525L24.5895 29.9251C24.3842 29.8712 24.261 29.6582 24.3174 29.4529C24.3713 29.2475 24.5843 29.1269 24.7897 29.1808L52.9311 36.7083C53.1364 36.7622 53.2596 36.9752 53.2032 37.1805C53.157 37.3524 53.0004 37.4654 52.831 37.4654Z" fill="#204E51"/>
</g>
<path d="M62.0541 42V39.34H64.3501V25.564H62.1101V22.904H71.9381V25.564H69.6701V39.34H71.9941V42H62.0541ZM74.1713 42V39.34H76.2993V25.564H74.2273V22.904H81.6193V39.34H84.3913V42H74.1713ZM81.6193 25.676V22.904H92.4553V25.676H81.6193ZM81.6193 33.684V30.94H87.4153V33.684H81.6193ZM89.5153 28.812C89.5153 27.7107 89.3006 26.9173 88.8713 26.432C88.4606 25.928 87.742 25.676 86.7153 25.676H92.4553V30.072H89.5153V28.812ZM81.8993 30.94C82.87 30.94 83.5606 30.7067 83.9713 30.24C84.4006 29.7547 84.6153 28.9987 84.6153 27.972V27.524H87.4153V30.94H81.8993ZM84.6153 36.652C84.6153 35.6253 84.4006 34.8787 83.9713 34.412C83.5606 33.9267 82.87 33.684 81.8993 33.684H87.4153V37.66H84.6153V36.652ZM97.8974 32.676C97.1507 32.676 96.488 32.4893 95.9094 32.116C95.3494 31.724 95.0694 31.1267 95.0694 30.324C95.0694 29.596 95.3867 28.98 96.0214 28.476C96.656 27.972 97.496 27.5987 98.5414 27.356C99.5867 27.0947 100.679 26.964 101.817 26.964C103.759 26.964 105.243 27.356 106.269 28.14C107.315 28.924 107.828 30.1 107.809 31.668L103.077 31.108C103.077 30.4547 102.853 29.988 102.405 29.708C101.976 29.4093 101.407 29.26 100.697 29.26C100.231 29.26 99.7734 29.316 99.3254 29.428C98.896 29.54 98.532 29.7267 98.2334 29.988C97.9347 30.2493 97.7294 30.604 97.6174 31.052L97.7294 28.812C98.532 28.8493 99.1667 29.0173 99.6334 29.316C100.119 29.6147 100.352 30.072 100.333 30.688C100.315 31.2667 100.091 31.7427 99.6614 32.116C99.2507 32.4893 98.6627 32.676 97.8974 32.676ZM108.313 42.364C106.745 42.364 105.56 41.9533 104.757 41.132C103.973 40.292 103.581 39.1347 103.581 37.66V37.212H103.021V33.992H102.881L103.077 32.452V31.108L107.809 31.668V38.108C107.809 38.444 107.893 38.7147 108.061 38.92C108.248 39.1253 108.491 39.228 108.789 39.228C109.125 39.228 109.377 39.1253 109.545 38.92C109.713 38.7147 109.797 38.444 109.797 38.108V33.992H112.905V37.716C112.905 39.1347 112.523 40.264 111.757 41.104C110.992 41.944 109.844 42.364 108.313 42.364ZM98.6814 42.308C97.2067 42.308 96.012 41.9533 95.0974 41.244C94.1827 40.516 93.7254 39.5453 93.7254 38.332C93.7254 37.4547 93.912 36.7267 94.2854 36.148C94.6587 35.5507 95.1814 35.0653 95.8534 34.692C96.544 34.3 97.328 33.992 98.2054 33.768L100.837 33.096C101.341 32.9653 101.761 32.816 102.097 32.648C102.433 32.48 102.676 32.2747 102.825 32.032C102.993 31.7893 103.077 31.4813 103.077 31.108L103.133 33.992H103.021C102.891 34.2907 102.695 34.524 102.433 34.692C102.172 34.86 101.845 35.0187 101.453 35.168L100.921 35.364C100.511 35.5133 100.156 35.672 99.8574 35.84C99.5587 35.9893 99.3254 36.176 99.1574 36.4C99.008 36.624 98.9334 36.904 98.9334 37.24C98.9334 37.7253 99.1014 38.0987 99.4374 38.36C99.7734 38.6213 100.221 38.752 100.781 38.752C101.155 38.752 101.509 38.6773 101.845 38.528C102.181 38.36 102.461 38.0893 102.685 37.716C102.909 37.324 103.021 36.8013 103.021 36.148L104.029 36.26C104.029 37.716 103.787 38.892 103.301 39.788C102.816 40.6653 102.163 41.3093 101.341 41.72C100.539 42.112 99.652 42.308 98.6814 42.308ZM114.285 42V39.396H116.329V29.876H114.481V27.272H120.809V32.34L121.369 32.228V39.396H124.393V42H114.285ZM119.969 32.872C120.007 31.3227 120.287 30.1187 120.809 29.26C121.332 28.3827 121.995 27.7667 122.797 27.412C123.619 27.0387 124.487 26.852 125.401 26.852C126.465 26.852 127.315 27.132 127.949 27.692C128.584 28.2333 128.901 28.9147 128.901 29.736C128.901 30.4827 128.649 31.108 128.145 31.612C127.66 32.0973 126.997 32.34 126.157 32.34C125.411 32.34 124.813 32.144 124.365 31.752C123.917 31.36 123.693 30.856 123.693 30.24C123.693 29.512 123.917 28.9613 124.365 28.588C124.813 28.2147 125.551 28.0653 126.577 28.14L126.325 29.792C126.232 29.512 126.036 29.3067 125.737 29.176C125.457 29.0267 125.093 28.952 124.645 28.952C124.123 28.952 123.609 29.092 123.105 29.372C122.601 29.6333 122.181 30.0533 121.845 30.632C121.528 31.192 121.369 31.9387 121.369 32.872H119.969ZM130.391 42V39.396H132.435V29.876H130.587V27.272H136.831V32.172L137.447 32.088V39.396H138.651V42H130.391ZM139.995 42V39.396H141.171V32.2C141.171 31.584 141.012 31.1267 140.695 30.828C140.396 30.5293 139.985 30.38 139.463 30.38C139.108 30.38 138.772 30.4547 138.455 30.604C138.156 30.7533 137.913 30.996 137.727 31.332C137.54 31.668 137.447 32.1347 137.447 32.732L136.663 32.788C136.663 31.612 136.793 30.5947 137.055 29.736C137.316 28.8773 137.801 28.2147 138.511 27.748C139.22 27.2813 140.209 27.048 141.479 27.048C142.86 27.048 143.989 27.4493 144.867 28.252C145.763 29.0547 146.211 30.324 146.211 32.06V39.396H147.387V42H139.995ZM148.731 42V39.396H149.907V32.2C149.907 31.584 149.748 31.1267 149.431 30.828C149.132 30.5293 148.721 30.38 148.199 30.38C147.844 30.38 147.517 30.4547 147.219 30.604C146.92 30.7533 146.677 30.996 146.491 31.332C146.304 31.668 146.211 32.144 146.211 32.76L145.623 32.788C145.623 31.612 145.753 30.5947 146.015 29.736C146.276 28.8773 146.743 28.2147 147.415 27.748C148.087 27.2813 149.057 27.048 150.327 27.048C151.671 27.048 152.772 27.4493 153.631 28.252C154.508 29.036 154.947 30.3053 154.947 32.06V39.396H156.403V42H148.731ZM158.281 42V39.396H160.325V29.876H158.477V27.272H164.805V32.34L165.365 32.228V39.396H168.389V42H158.281ZM163.965 32.872C164.003 31.3227 164.283 30.1187 164.805 29.26C165.328 28.3827 165.991 27.7667 166.793 27.412C167.615 27.0387 168.483 26.852 169.397 26.852C170.461 26.852 171.311 27.132 171.945 27.692C172.58 28.2333 172.897 28.9147 172.897 29.736C172.897 30.4827 172.645 31.108 172.141 31.612C171.656 32.0973 170.993 32.34 170.153 32.34C169.407 32.34 168.809 32.144 168.361 31.752C167.913 31.36 167.689 30.856 167.689 30.24C167.689 29.512 167.913 28.9613 168.361 28.588C168.809 28.2147 169.547 28.0653 170.573 28.14L170.321 29.792C170.228 29.512 170.032 29.3067 169.733 29.176C169.453 29.0267 169.089 28.952 168.641 28.952C168.119 28.952 167.605 29.092 167.101 29.372C166.597 29.6333 166.177 30.0533 165.841 30.632C165.524 31.192 165.365 31.9387 165.365 32.872H163.965Z" fill="#204E51"/>
<defs>
<clipPath id="clip0_737_746">
<rect width="53.2981" height="50" fill="white"/>
</clipPath>
</defs>
</svg>

    
