<svg width="40" height="40" viewBox="0 0 40 40" fill="none" xmlns="http://www.w3.org/2000/svg">
<circle cx="20" cy="20" r="20" fill="#204E51" fill-opacity="0.2"/>
<g clip-path="url(#clip0_53_1965)">
<path d="M25.5522 15.594C25.5522 15.8089 25.6955 15.9522 25.9105 15.9522H26.2687C26.4836 15.9522 26.6269 15.8089 26.6269 15.594C26.6269 15.3791 26.4836 15.2358 26.2687 15.2358H25.9105C25.7314 15.2358 25.5522 15.3791 25.5522 15.594ZM26.9851 15.594C26.9851 15.8089 27.1284 15.9522 27.3433 15.9522H27.7015C27.9164 15.9522 28.0597 15.8089 28.0597 15.594C28.0597 15.3791 27.9164 15.2358 27.7015 15.2358H27.3433C27.1642 15.2358 26.9851 15.3791 26.9851 15.594ZM29.1343 15.2358H28.7761C28.5612 15.2358 28.4179 15.3791 28.4179 15.594C28.4179 15.8089 28.5612 15.9522 28.7761 15.9522H29.1343C29.3493 15.9522 29.4925 15.8089 29.4925 15.594C29.4925 15.3791 29.3493 15.2358 29.1343 15.2358ZM30.5672 15.2358H30.209C29.994 15.2358 29.8508 15.3791 29.8508 15.594C29.8508 15.8089 29.994 15.9522 30.209 15.9522H30.5672C30.7821 15.9522 30.9254 15.8089 30.9254 15.594C30.9254 15.3791 30.7821 15.2358 30.5672 15.2358ZM30.1373 11.1164L29.8508 11.2955C29.6717 11.403 29.6358 11.6179 29.7075 11.797C29.7791 11.9045 29.8866 11.9761 30.0299 11.9761C30.1015 11.9761 30.1373 11.9761 30.209 11.9403L30.5314 11.7612C30.7105 11.6537 30.7463 11.4388 30.6746 11.2597C30.5314 11.0806 30.3164 11.0089 30.1373 11.1164ZM26.412 13.2657L26.0896 13.4448C25.9105 13.5522 25.8746 13.7672 25.9463 13.9463C26.0537 14.1254 26.2687 14.1612 26.4478 14.0895L26.7702 13.9104C26.9493 13.803 26.9851 13.5881 26.9134 13.4089C26.806 13.2298 26.5911 13.1582 26.412 13.2657ZM28.9194 11.8328L28.597 12.0119C28.4179 12.1194 28.3821 12.3343 28.4537 12.5134C28.5612 12.6925 28.7761 12.7283 28.9552 12.6567L29.2776 12.4776C29.4567 12.3701 29.4925 12.1552 29.4209 11.9761C29.3134 11.797 29.0627 11.7254 28.9194 11.8328ZM27.6657 12.5492L27.3433 12.7283C27.1642 12.8358 27.1284 13.0507 27.2 13.2298C27.3075 13.4089 27.5224 13.4448 27.7015 13.3731L28.0239 13.194C28.203 13.0866 28.2388 12.8716 28.1672 12.6925C28.0597 12.5134 27.8448 12.4418 27.6657 12.5492ZM28.0239 18.3881C27.9164 18.5672 27.9881 18.7821 28.1672 18.8895L28.4896 19.0686C28.6687 19.1761 28.8836 19.1045 28.9911 18.9254C29.0985 18.7463 29.0269 18.5313 28.8478 18.4239L28.5254 18.2448C28.3463 18.1731 28.1314 18.2089 28.0239 18.3881ZM26.7702 17.6716C26.6627 17.8507 26.7343 18.0657 26.9134 18.1731L27.2358 18.3522C27.4149 18.4597 27.6299 18.3881 27.7373 18.2089C27.8448 18.0298 27.7731 17.8149 27.594 17.7075L27.2717 17.5283C27.0925 17.4567 26.8776 17.4925 26.7702 17.6716ZM30.4955 19.8209C30.3881 20 30.4597 20.2149 30.6388 20.3224L30.9612 20.5015C31.1403 20.6089 31.3552 20.5373 31.4627 20.3582C31.5702 20.1791 31.4985 19.9642 31.3194 19.8567L30.997 19.6776C30.8179 19.606 30.603 19.6418 30.4955 19.8209ZM29.2418 19.1045C29.1343 19.2836 29.206 19.4985 29.3851 19.606L29.7075 19.7851C29.8866 19.8925 30.1015 19.8209 30.209 19.6418C30.3164 19.4627 30.2448 19.2478 30.0657 19.1403L29.7433 18.9612C29.5642 18.8895 29.3493 18.9254 29.2418 19.1045ZM9.11046 15.594C9.11046 15.8089 9.25374 15.9522 9.46867 15.9522H9.82688C10.0418 15.9522 10.1851 15.8089 10.1851 15.594C10.1851 15.3791 10.0418 15.2358 9.82688 15.2358H9.46867C9.28956 15.2358 9.11046 15.3791 9.11046 15.594ZM10.9015 15.9522H11.2597C11.4746 15.9522 11.6179 15.8089 11.6179 15.594C11.6179 15.3791 11.4746 15.2358 11.2597 15.2358H10.9015C10.6866 15.2358 10.5433 15.3791 10.5433 15.594C10.5433 15.8089 10.7224 15.9522 10.9015 15.9522ZM13.409 15.594C13.409 15.8089 13.5522 15.9522 13.7672 15.9522H14.1254C14.3403 15.9522 14.4836 15.8089 14.4836 15.594C14.4836 15.3791 14.3403 15.2358 14.1254 15.2358H13.7672C13.5881 15.2358 13.409 15.3791 13.409 15.594ZM12.6925 15.2358H12.3343C12.1194 15.2358 11.9761 15.3791 11.9761 15.594C11.9761 15.8089 12.1194 15.9522 12.3343 15.9522H12.6925C12.9075 15.9522 13.0508 15.8089 13.0508 15.594C13.0508 15.3791 12.9075 15.2358 12.6925 15.2358ZM10.794 12.4418L11.1164 12.6209C11.2955 12.7283 11.5105 12.6567 11.6179 12.4776C11.7254 12.2985 11.6537 12.0836 11.4746 11.9761L11.1522 11.797C10.9731 11.6895 10.7582 11.7612 10.6508 11.9403C10.5433 12.1194 10.6149 12.3701 10.794 12.4418ZM13.9463 13.4448L13.6239 13.2657C13.4448 13.1582 13.2299 13.2298 13.1224 13.4089C13.0149 13.5881 13.0866 13.803 13.2657 13.9104L13.5881 14.0895C13.7672 14.197 13.9821 14.1254 14.0896 13.9463C14.1612 13.7672 14.1254 13.5522 13.9463 13.4448ZM12.6925 12.7283L12.3702 12.5492C12.1911 12.4418 11.9761 12.5134 11.8687 12.6925C11.7612 12.8716 11.8328 13.0866 12.012 13.194L12.3343 13.3731C12.5134 13.4806 12.7284 13.4089 12.8358 13.2298C12.9433 13.0507 12.8717 12.8358 12.6925 12.7283ZM10.2209 11.2955L9.89852 11.1164C9.71941 11.0089 9.50449 11.0806 9.43285 11.2597C9.32538 11.4388 9.39702 11.6537 9.57613 11.7612L9.89852 11.9403C10.0776 12.0478 10.2925 11.9761 10.4 11.797C10.4358 11.6179 10.4 11.403 10.2209 11.2955ZM12.8 17.5642L12.4776 17.7433C12.2985 17.8507 12.2627 18.0657 12.3343 18.2448C12.4418 18.4239 12.6567 18.4597 12.8358 18.3881L13.1582 18.2089C13.3373 18.1015 13.3731 17.8866 13.3015 17.7075C13.194 17.4925 12.9791 17.4567 12.8 17.5642ZM8.75225 19.8925C8.57314 20 8.53732 20.2149 8.60897 20.394C8.71643 20.5373 8.93135 20.6089 9.11046 20.5015L9.43285 20.3224C9.61195 20.2149 9.64777 20 9.57613 19.8209C9.46867 19.6418 9.25374 19.606 9.07464 19.6776L8.75225 19.8925ZM11.5463 18.2806L11.2239 18.4597C11.0448 18.5672 11.009 18.7821 11.0806 18.9612C11.2239 19.1045 11.4388 19.1761 11.5821 19.0686L11.9045 18.8895C12.0836 18.7821 12.1194 18.5672 12.0478 18.3881C11.9403 18.2089 11.7254 18.1731 11.5463 18.2806ZM10.2925 18.997L9.97016 19.1761C9.79105 19.2836 9.75523 19.4985 9.82688 19.6776C9.93434 19.8567 10.1493 19.8925 10.3284 19.8209L10.6508 19.6418C10.8299 19.5343 10.8657 19.3194 10.794 19.1403C10.6866 18.9254 10.4717 18.8895 10.2925 18.997Z" fill="#204E51"/>
<path d="M8.14328 31.2478C8.14328 31.4627 8.28656 31.606 8.50149 31.606C15.8806 31.606 24.6567 31.606 31.4985 31.606C31.7134 31.606 31.8567 31.4627 31.8567 31.2478C31.8567 31.0329 31.7134 30.8896 31.4985 30.8896H27.0209V30.3164C28.8119 30.209 30.2448 28.7403 30.2448 26.9134C30.2448 26.6985 30.0657 26.5552 29.8866 26.5552C28.7045 26.5552 27.6298 27.1642 27.0567 28.0955V27.2C27.7015 26.9851 28.3821 26.3403 28.8119 25.5164C29.4925 24.1911 29.3851 22.7582 28.4895 21.5403C28.4179 21.4328 28.2388 21.3612 28.0955 21.397C27.9522 21.4328 27.8448 21.5761 27.8448 21.7194C27.8448 21.7194 27.7373 23.1164 26.6985 23.2955C25.9821 23.4388 25.4806 24.0836 25.3373 24.9791C25.2298 25.7672 25.4448 26.806 26.197 27.1642C26.2328 27.2 26.2687 27.2 26.3403 27.2V27.8448C25.7313 27.0567 24.7642 26.5194 23.6537 26.5194C23.4388 26.5194 23.2955 26.6627 23.2955 26.8776C23.2955 28.6329 24.6209 30.0657 26.3403 30.2448V30.8179H21.6836V25.5523C22.1493 25.3373 22.4716 24.9075 22.4716 24.3702V22.1851C22.9015 22.006 23.2239 21.6478 23.3313 21.1821L24.6567 16.1314C24.8358 15.3791 24.8716 14.6269 24.6925 13.8746L24.2627 11.9045C24.1194 11.2597 23.5821 10.8299 22.9373 10.8299H21.7194V10.0776C21.7194 9.14628 20.9672 8.39404 20.0358 8.39404C19.1045 8.39404 18.3522 9.14628 18.3522 10.0776V10.8299H17.1343C16.4895 10.8299 15.9164 11.2597 15.809 11.9045L15.3791 13.8746C15.2 14.6269 15.2358 15.4149 15.4149 16.1314L16.7403 21.1821C16.8478 21.6478 17.1701 22.006 17.6 22.1851V24.406C17.6 24.9433 17.9224 25.409 18.3881 25.5881V30.9254H13.5522V30.3523C15.3433 30.2448 16.7761 28.7761 16.7761 26.9493C16.7761 26.1254 14.5194 26.6985 13.5522 28.1314V27.2358C15.0925 26.7343 16.7403 23.9403 14.9851 21.5761C14.9134 21.4687 14.7343 21.397 14.591 21.4328C14.4478 21.4687 14.3403 21.612 14.3403 21.7552C14.3403 21.7552 14.2328 23.1523 13.194 23.3314C12.4776 23.4746 11.9761 24.1194 11.8328 25.0149C11.7254 25.803 11.9403 26.8418 12.6925 27.2C12.7284 27.2358 12.7642 27.2358 12.8358 27.2358V27.8806C12.191 27.0926 11.2239 26.5552 10.1493 26.5552C9.93432 26.5552 9.79104 26.6985 9.79104 26.9134C9.79104 28.6687 11.1164 30.1015 12.8358 30.2806V30.8537H8.53731C8.32238 30.8896 8.14328 31.0329 8.14328 31.2478ZM24.0119 27.3075C25.194 27.4866 26.1254 28.4179 26.2687 29.5642C25.0866 29.4209 24.1552 28.4896 24.0119 27.3075ZM29.4925 27.3075C29.3134 28.4896 28.3821 29.4209 27.2358 29.5642C27.3791 28.4179 28.3104 27.4866 29.4925 27.3075ZM26.0179 25.0866C26.0895 24.6209 26.3045 24.0836 26.806 24.012C27.6298 23.8328 28.0955 23.2597 28.3104 22.7224C28.7045 23.7612 28.4179 24.6926 28.1672 25.194C27.7373 26.0179 27.0209 26.5911 26.6269 26.5911C26.591 26.5911 26.5552 26.5911 26.5194 26.5552C26.1254 26.3761 25.9104 25.7314 26.0179 25.0866ZM10.5075 27.3075C11.6895 27.4866 12.6209 28.4179 12.7642 29.5642C11.6179 29.4209 10.6866 28.4896 10.5075 27.3075ZM15.9881 27.3075C15.809 28.4896 14.8776 29.4209 13.7313 29.5642C13.9104 28.4179 14.8418 27.4866 15.9881 27.3075ZM12.5493 25.0866C12.7642 23.403 14.0537 24.5134 14.8418 22.7224C15.594 24.6209 13.9821 26.5911 13.1582 26.5911C13.1224 26.5911 13.0866 26.5911 13.0507 26.5552C12.6567 26.3761 12.4418 25.7314 12.5493 25.0866ZM23.5821 12.0478L24.0119 14.0179C24.1552 14.6627 24.1552 15.3075 23.9761 15.9523L22.6507 21.003C22.5433 21.3612 22.2567 21.612 21.8985 21.612H20.3582V19.0687C21.1821 18.8896 21.791 18.1731 21.791 17.3134V15.1642C21.791 14.3045 21.1821 13.5881 20.3582 13.409V11.5463C20.4298 11.5463 23.0448 11.5463 22.9373 11.5463C23.2239 11.5463 23.5104 11.7612 23.5821 12.0478ZM19.9642 14.0896C20.5373 14.0896 21.0388 14.5552 21.0388 15.1642V17.3134C21.0388 17.8866 20.5731 18.3881 19.9642 18.3881C19.391 18.3881 18.8895 17.9224 18.8895 17.3134V15.1642C18.9254 14.5552 19.391 14.0896 19.9642 14.0896ZM19.0687 10.0776C19.0687 9.54031 19.4985 9.11046 20.0358 9.11046C20.5731 9.11046 21.003 9.54031 21.003 10.0776V10.8299C20.9672 10.8299 19.0687 10.8299 19.1045 10.8299V10.0776H19.0687ZM16.0955 15.9523C15.9164 15.3075 15.9164 14.6627 16.0597 14.0179L16.4895 12.0478C16.5612 11.7612 16.8119 11.5463 17.1343 11.5463C17.206 11.5463 19.6776 11.5463 19.606 11.5463V13.409C18.7821 13.5881 18.1731 14.3045 18.1731 15.1642V17.3134C18.1731 18.1731 18.7821 18.8896 19.606 19.0687V21.612H18.1731C17.8149 21.612 17.4925 21.3612 17.4209 21.003L16.0955 15.9523ZM18.2806 22.2926H21.7552V24.3702C21.7552 24.6926 21.5045 24.9433 21.1821 24.9433H18.8537C18.5313 24.9433 18.2806 24.6926 18.2806 24.3702V22.2926ZM19.0687 25.6597H20.9672V30.8896H19.0687V25.6597Z" fill="#204E51"/>
</g>
<defs>
<clipPath id="clip0_53_1965">
<rect width="24" height="24" fill="white" transform="translate(8 8)"/>
</clipPath>
</defs>
</svg>
