<svg width="54" height="50" viewBox="0 0 54 50" fill="none" xmlns="http://www.w3.org/2000/svg">
<g clip-path="url(#clip0_697_965)">
<path d="M52.2818 36.5618C52.1021 36.5259 51.9302 36.4438 51.7505 36.3925C51.2141 36.2359 50.6803 36.0793 50.1439 35.9202C49.9771 36.2616 49.628 37.1367 49.5074 37.3292C49.3945 37.5114 47.5646 42.4699 46.1607 44.4922C44.7029 46.5891 42.9295 48.3548 40.8455 49.9101C43.8637 49.5944 46.0119 48.247 47.9393 46.2657C50.0156 44.1304 52.6334 38.0709 52.8233 37.8092C53.5291 36.8288 53.5368 36.8185 52.2843 36.5618H52.2818Z" fill="#204E51"/>
<path d="M25.1233 28.8497C25.0797 28.4211 24.628 27.9591 24.3713 27.6563C22.5235 25.4748 20.673 23.2958 18.8149 21.1246C16.5513 18.4786 14.2902 15.8325 12.0035 13.207C11.1052 12.1753 9.90408 11.757 8.58491 11.9982C6.88333 12.3113 5.62832 13.3559 4.61456 14.7341C3.1568 16.7154 1.91462 18.7994 1.08565 21.1374C0.390134 23.1008 -0.166793 25.0744 0.0436586 27.1789C0.110387 27.8513 0.364469 28.5545 0.882898 28.9831C3.54947 31.1877 6.21092 33.4051 8.97245 35.4865C10.325 36.5054 11.1463 37.763 11.5723 39.3337C12.4064 42.4057 13.4433 45.4111 14.4185 48.437C14.7162 49.3609 16.1021 50.1026 17.1262 49.9845C18.2452 49.8562 19.2307 48.8758 19.4232 47.803C19.6105 46.7636 19.1691 45.891 18.8662 44.9517C17.855 41.8026 16.9388 38.6253 15.9148 35.4814C15.6812 34.7654 15.5247 34.0134 14.8163 33.4385C12.5681 31.6189 10.2403 29.8942 8.06392 27.9899C7.02706 27.0814 6.77811 25.0205 6.76271 24.6278C6.65748 21.8329 6.55226 19.0329 6.56766 16.238C6.57279 15.078 7.61478 13.823 9.10591 13.9847C10.171 14.1002 11.0154 15.1139 11.0205 16.4177C11.0231 17.1851 11.9598 18.2963 12.391 18.8122C13.9925 20.7242 15.7326 22.5284 17.2109 24.5277C18.0912 25.7211 21.4764 29.5554 22.1282 30.2202C22.8161 30.9208 23.6373 31.026 24.3328 30.446C25.344 29.6042 25.1208 28.8625 25.1182 28.8471L25.1233 28.8497Z" fill="#204E51"/>
<path d="M20.9168 11.893C20.7423 11.8597 20.537 11.8109 20.6576 11.4567C21.2453 9.73719 20.8141 8.49502 19.2794 7.48126C17.7292 6.45724 16.1124 5.60004 14.2491 5.24073C12.681 4.93789 11.87 5.20994 10.9871 6.6292C10.8639 6.82681 10.7535 6.88328 10.5585 6.73955C8.86719 5.49738 7.03729 4.3938 6.04406 2.43044C5.61033 1.57324 5.85158 1.20367 6.80117 0.918792C8.01512 0.554353 9.18799 0.872596 10.348 1.12411C11.4824 1.37049 12.5937 1.71953 13.7024 2.07114C14.1362 2.20973 14.3954 2.1353 14.7367 1.81962C15.6376 0.977821 16.6539 0.336203 17.9089 0.087255C20.2084 -0.367011 21.9023 1.12411 22.1949 3.27481C22.2976 4.03192 22.4207 4.80187 22.2231 5.58207C22.0691 6.19289 22.5003 6.49574 22.9725 6.78062C24.5843 7.75588 26.0395 8.92875 27.2714 10.366C28.144 11.3849 28.2569 12.3268 27.4972 12.7425C26.9506 13.0428 22.5106 12.2138 20.9194 11.8982L20.9168 11.893Z" fill="#204E51"/>
<path d="M3.92156 32.4043C5.36906 33.5772 6.81398 34.7526 8.25891 35.9281C8.30511 35.9666 8.3282 36.0436 8.37953 36.0667C9.90659 36.8007 9.64224 38.0634 9.3394 39.3286C8.86203 41.3202 8.41803 43.3195 7.4864 45.1674C6.85505 46.4224 6.21343 47.6722 5.41012 48.8272C4.60425 49.9821 2.83081 50.2259 1.71952 49.3713C0.487616 48.4217 0.289997 46.851 1.08561 45.6293C2.82824 42.9551 4.13458 40.1037 4.13458 36.8161C4.13458 35.3737 4.29627 33.9185 3.92156 32.4043Z" fill="#204E51"/>
<path d="M17.4136 29.6787C16.3305 29.5632 15.4246 28.9318 14.4262 28.5777C12.527 27.9027 10.6894 27.0481 8.81074 26.3038C7.65583 25.8469 7.26059 25.3208 7.23492 24.0247C7.18873 21.5378 7.14509 19.0535 7.0989 16.5666C7.0758 15.3193 7.84061 14.362 8.8595 14.3697C9.78344 14.3774 10.5842 15.3526 10.5996 16.5332C10.6252 18.5838 10.6406 20.6344 10.6406 22.6851C10.6406 23.1573 10.7151 23.3729 11.2643 23.5807C13.5793 24.4482 15.848 25.4414 18.1296 26.3987C18.7918 26.6759 19.3538 27.6204 19.1639 28.1978C18.8996 29.0037 18.299 29.8532 17.411 29.6787H17.4136Z" fill="#204E51"/>
<path d="M13.4663 5.77455C15.3244 5.9773 16.9721 6.73185 18.4992 7.7841C18.9098 8.06641 19.3384 8.32819 19.6644 8.73883C20.7731 10.1324 20.8526 10.4661 19.5514 11.8802C17.257 14.3722 13.3226 13.8025 11.7519 10.7997C11.0307 9.41894 10.9922 7.97145 11.7262 6.54963C12.0984 5.82845 12.7297 5.71039 13.4663 5.77455Z" fill="#204E51"/>
<path d="M52.831 37.4654C52.7976 37.4654 52.7642 37.4602 52.7309 37.4525L24.5894 29.9251C24.3841 29.8712 24.2609 29.6582 24.3174 29.4529C24.3713 29.2475 24.5843 29.1269 24.7896 29.1808L52.9311 36.7083C53.1364 36.7622 53.2596 36.9752 53.2031 37.1805C53.1569 37.3524 53.0004 37.4654 52.831 37.4654Z" fill="#204E51"/>
</g>
<defs>
<clipPath id="clip0_697_965">
<rect width="53.2981" height="50" fill="white"/>
</clipPath>
</defs>
</svg>
