<svg width="230" height="50" viewBox="0 0 230 50" fill="none" xmlns="http://www.w3.org/2000/svg">
<g clip-path="url(#clip0_64_8025)">
<path d="M72.2817 36.5619C72.1021 36.526 71.9301 36.4438 71.7505 36.3925C71.2141 36.236 70.6802 36.0794 70.1438 35.9203C69.977 36.2616 69.628 37.1368 69.5073 37.3293C69.3944 37.5115 67.5645 42.4699 66.1607 44.4923C64.7029 46.5891 62.9294 48.3548 60.8455 49.9101C63.8636 49.5945 66.0118 48.2471 67.9392 46.2657C70.0155 44.1304 72.6333 38.071 72.8232 37.8092C73.529 36.8288 73.5367 36.8186 72.2843 36.5619H72.2817Z" fill="#204E51"/>
<path d="M45.1233 28.8497C45.0796 28.4211 44.6279 27.9591 44.3713 27.6563C42.5234 25.4748 40.673 23.2958 38.8148 21.1246C36.5512 18.4786 34.2901 15.8325 32.0034 13.207C31.1051 12.1753 29.904 11.757 28.5849 11.9982C26.8833 12.3113 25.6283 13.3559 24.6145 14.7341C23.1567 16.7154 21.9146 18.7994 21.0856 21.1374C20.3901 23.1008 19.8331 25.0744 20.0436 27.1789C20.1103 27.8513 20.3644 28.5545 20.8828 28.9831C23.5494 31.1877 26.2109 33.4051 28.9724 35.4865C30.3249 36.5054 31.1462 37.763 31.5722 39.3337C32.4063 42.4057 33.4432 45.4111 34.4185 48.437C34.7162 49.3609 36.1021 50.1026 37.1261 49.9845C38.2451 49.8562 39.2306 48.8758 39.4231 47.803C39.6105 46.7636 39.169 45.891 38.8662 44.9517C37.855 41.8026 36.9388 38.6253 35.9147 35.4814C35.6812 34.7654 35.5246 34.0134 34.8163 33.4385C32.568 31.6189 30.2402 29.8942 28.0639 27.9899C27.027 27.0814 26.778 25.0205 26.7626 24.6278C26.6574 21.8329 26.5522 19.0329 26.5676 16.238C26.5727 15.078 27.6147 13.823 29.1058 13.9847C30.1709 14.1002 31.0153 15.1139 31.0204 16.4177C31.023 17.1851 31.9598 18.2963 32.3909 18.8122C33.9924 20.7242 35.7325 22.5284 37.2108 24.5277C38.0911 25.7211 41.4763 29.5554 42.1282 30.2202C42.816 30.9208 43.6373 31.026 44.3328 30.446C45.344 29.6042 45.1207 28.8625 45.1181 28.8471L45.1233 28.8497Z" fill="#204E51"/>
<path d="M40.9169 11.893C40.7423 11.8596 40.537 11.8109 40.6576 11.4567C41.2454 9.73716 40.8142 8.49499 39.2794 7.48123C37.7293 6.45721 36.1124 5.60001 34.2491 5.2407C32.681 4.93786 31.87 5.20991 30.9872 6.62916C30.864 6.82678 30.7536 6.88325 30.5586 6.73952C28.8672 5.49735 27.0373 4.39377 26.0441 2.43041C25.6104 1.57321 25.8516 1.20364 26.8012 0.918762C28.0152 0.554323 29.1881 0.872565 30.3481 1.12408C31.4825 1.37046 32.5938 1.7195 33.7025 2.07111C34.1362 2.2097 34.3954 2.13527 34.7368 1.81959C35.6376 0.977791 36.6539 0.336172 37.9089 0.0872245C40.2085 -0.367041 41.9024 1.12408 42.195 3.27478C42.2976 4.03189 42.4208 4.80184 42.2232 5.58204C42.0692 6.19286 42.5004 6.49571 42.9726 6.78059C44.5844 7.75585 46.0395 8.92872 47.2715 10.3659C48.1441 11.3848 48.257 12.3267 47.4973 12.7425C46.9506 13.0428 42.5106 12.2138 40.9194 11.8981L40.9169 11.893Z" fill="#204E51"/>
<path d="M23.9217 32.4043C25.3692 33.5772 26.8141 34.7526 28.259 35.9281C28.3052 35.9666 28.3283 36.0436 28.3797 36.0667C29.9067 36.8007 29.6424 38.0634 29.3395 39.3286C28.8622 41.3202 28.4182 43.3195 27.4865 45.1674C26.8552 46.4224 26.2135 47.6722 25.4102 48.8272C24.6044 49.9821 22.8309 50.2259 21.7196 49.3713C20.4877 48.4217 20.2901 46.851 21.0857 45.6293C22.8284 42.9551 24.1347 40.1037 24.1347 36.8161C24.1347 35.3737 24.2964 33.9185 23.9217 32.4043Z" fill="#204E51"/>
<path d="M37.4136 29.6787C36.3305 29.5632 35.4246 28.9318 34.4262 28.5777C32.527 27.9027 30.6894 27.0481 28.8107 26.3038C27.6558 25.8469 27.2606 25.3208 27.2349 24.0247C27.1887 21.5378 27.1451 19.0535 27.0989 16.5666C27.0758 15.3193 27.8406 14.362 28.8595 14.3697C29.7834 14.3774 30.5842 15.3526 30.5996 16.5332C30.6252 18.5838 30.6406 20.6344 30.6406 22.6851C30.6406 23.1573 30.7151 23.3729 31.2643 23.5807C33.5793 24.4482 35.848 25.4414 38.1296 26.3987C38.7918 26.6759 39.3538 27.6204 39.1639 28.1978C38.8996 29.0037 38.299 29.8532 37.411 29.6787H37.4136Z" fill="#204E51"/>
<path d="M33.4663 5.77455C35.3244 5.9773 36.9721 6.73185 38.4992 7.7841C38.9098 8.06641 39.3384 8.32819 39.6644 8.73883C40.7731 10.1324 40.8526 10.4661 39.5514 11.8802C37.257 14.3722 33.3226 13.8025 31.7519 10.7997C31.0307 9.41894 30.9922 7.97145 31.7262 6.54963C32.0984 5.82845 32.7297 5.71039 33.4663 5.77455Z" fill="#204E51"/>
<path d="M72.831 37.4654C72.7977 37.4654 72.7643 37.4602 72.7309 37.4525L44.5895 29.9251C44.3842 29.8712 44.261 29.6582 44.3174 29.4529C44.3713 29.2475 44.5843 29.1269 44.7897 29.1808L72.9311 36.7083C73.1364 36.7622 73.2596 36.9752 73.2032 37.1805C73.157 37.3524 73.0004 37.4654 72.831 37.4654Z" fill="#204E51"/>
</g>
<path d="M82.0541 42V39.34H84.3501V25.564H82.1101V22.904H91.9381V25.564H89.6701V39.34H91.9941V42H82.0541ZM94.1713 42V39.34H96.2993V25.564H94.2273V22.904H101.619V39.34H104.391V42H94.1713ZM101.619 25.676V22.904H112.455V25.676H101.619ZM101.619 33.684V30.94H107.415V33.684H101.619ZM109.515 28.812C109.515 27.7107 109.301 26.9173 108.871 26.432C108.461 25.928 107.742 25.676 106.715 25.676H112.455V30.072H109.515V28.812ZM101.899 30.94C102.87 30.94 103.561 30.7067 103.971 30.24C104.401 29.7547 104.615 28.9987 104.615 27.972V27.524H107.415V30.94H101.899ZM104.615 36.652C104.615 35.6253 104.401 34.8787 103.971 34.412C103.561 33.9267 102.87 33.684 101.899 33.684H107.415V37.66H104.615V36.652ZM117.897 32.676C117.151 32.676 116.488 32.4893 115.909 32.116C115.349 31.724 115.069 31.1267 115.069 30.324C115.069 29.596 115.387 28.98 116.021 28.476C116.656 27.972 117.496 27.5987 118.541 27.356C119.587 27.0947 120.679 26.964 121.817 26.964C123.759 26.964 125.243 27.356 126.269 28.14C127.315 28.924 127.828 30.1 127.809 31.668L123.077 31.108C123.077 30.4547 122.853 29.988 122.405 29.708C121.976 29.4093 121.407 29.26 120.697 29.26C120.231 29.26 119.773 29.316 119.325 29.428C118.896 29.54 118.532 29.7267 118.233 29.988C117.935 30.2493 117.729 30.604 117.617 31.052L117.729 28.812C118.532 28.8493 119.167 29.0173 119.633 29.316C120.119 29.6147 120.352 30.072 120.333 30.688C120.315 31.2667 120.091 31.7427 119.661 32.116C119.251 32.4893 118.663 32.676 117.897 32.676ZM128.313 42.364C126.745 42.364 125.56 41.9533 124.757 41.132C123.973 40.292 123.581 39.1347 123.581 37.66V37.212H123.021V33.992H122.881L123.077 32.452V31.108L127.809 31.668V38.108C127.809 38.444 127.893 38.7147 128.061 38.92C128.248 39.1253 128.491 39.228 128.789 39.228C129.125 39.228 129.377 39.1253 129.545 38.92C129.713 38.7147 129.797 38.444 129.797 38.108V33.992H132.905V37.716C132.905 39.1347 132.523 40.264 131.757 41.104C130.992 41.944 129.844 42.364 128.313 42.364ZM118.681 42.308C117.207 42.308 116.012 41.9533 115.097 41.244C114.183 40.516 113.725 39.5453 113.725 38.332C113.725 37.4547 113.912 36.7267 114.285 36.148C114.659 35.5507 115.181 35.0653 115.853 34.692C116.544 34.3 117.328 33.992 118.205 33.768L120.837 33.096C121.341 32.9653 121.761 32.816 122.097 32.648C122.433 32.48 122.676 32.2747 122.825 32.032C122.993 31.7893 123.077 31.4813 123.077 31.108L123.133 33.992H123.021C122.891 34.2907 122.695 34.524 122.433 34.692C122.172 34.86 121.845 35.0187 121.453 35.168L120.921 35.364C120.511 35.5133 120.156 35.672 119.857 35.84C119.559 35.9893 119.325 36.176 119.157 36.4C119.008 36.624 118.933 36.904 118.933 37.24C118.933 37.7253 119.101 38.0987 119.437 38.36C119.773 38.6213 120.221 38.752 120.781 38.752C121.155 38.752 121.509 38.6773 121.845 38.528C122.181 38.36 122.461 38.0893 122.685 37.716C122.909 37.324 123.021 36.8013 123.021 36.148L124.029 36.26C124.029 37.716 123.787 38.892 123.301 39.788C122.816 40.6653 122.163 41.3093 121.341 41.72C120.539 42.112 119.652 42.308 118.681 42.308ZM134.285 42V39.396H136.329V29.876H134.481V27.272H140.809V32.34L141.369 32.228V39.396H144.393V42H134.285ZM139.969 32.872C140.007 31.3227 140.287 30.1187 140.809 29.26C141.332 28.3827 141.995 27.7667 142.797 27.412C143.619 27.0387 144.487 26.852 145.401 26.852C146.465 26.852 147.315 27.132 147.949 27.692C148.584 28.2333 148.901 28.9147 148.901 29.736C148.901 30.4827 148.649 31.108 148.145 31.612C147.66 32.0973 146.997 32.34 146.157 32.34C145.411 32.34 144.813 32.144 144.365 31.752C143.917 31.36 143.693 30.856 143.693 30.24C143.693 29.512 143.917 28.9613 144.365 28.588C144.813 28.2147 145.551 28.0653 146.577 28.14L146.325 29.792C146.232 29.512 146.036 29.3067 145.737 29.176C145.457 29.0267 145.093 28.952 144.645 28.952C144.123 28.952 143.609 29.092 143.105 29.372C142.601 29.6333 142.181 30.0533 141.845 30.632C141.528 31.192 141.369 31.9387 141.369 32.872H139.969ZM150.391 42V39.396H152.435V29.876H150.587V27.272H156.831V32.172L157.447 32.088V39.396H158.651V42H150.391ZM159.995 42V39.396H161.171V32.2C161.171 31.584 161.012 31.1267 160.695 30.828C160.396 30.5293 159.985 30.38 159.463 30.38C159.108 30.38 158.772 30.4547 158.455 30.604C158.156 30.7533 157.913 30.996 157.727 31.332C157.54 31.668 157.447 32.1347 157.447 32.732L156.663 32.788C156.663 31.612 156.793 30.5947 157.055 29.736C157.316 28.8773 157.801 28.2147 158.511 27.748C159.22 27.2813 160.209 27.048 161.479 27.048C162.86 27.048 163.989 27.4493 164.867 28.252C165.763 29.0547 166.211 30.324 166.211 32.06V39.396H167.387V42H159.995ZM168.731 42V39.396H169.907V32.2C169.907 31.584 169.748 31.1267 169.431 30.828C169.132 30.5293 168.721 30.38 168.199 30.38C167.844 30.38 167.517 30.4547 167.219 30.604C166.92 30.7533 166.677 30.996 166.491 31.332C166.304 31.668 166.211 32.144 166.211 32.76L165.623 32.788C165.623 31.612 165.753 30.5947 166.015 29.736C166.276 28.8773 166.743 28.2147 167.415 27.748C168.087 27.2813 169.057 27.048 170.327 27.048C171.671 27.048 172.772 27.4493 173.631 28.252C174.508 29.036 174.947 30.3053 174.947 32.06V39.396H176.403V42H168.731ZM178.281 42V39.396H180.325V29.876H178.477V27.272H184.805V32.34L185.365 32.228V39.396H188.389V42H178.281ZM183.965 32.872C184.003 31.3227 184.283 30.1187 184.805 29.26C185.328 28.3827 185.991 27.7667 186.793 27.412C187.615 27.0387 188.483 26.852 189.397 26.852C190.461 26.852 191.311 27.132 191.945 27.692C192.58 28.2333 192.897 28.9147 192.897 29.736C192.897 30.4827 192.645 31.108 192.141 31.612C191.656 32.0973 190.993 32.34 190.153 32.34C189.407 32.34 188.809 32.144 188.361 31.752C187.913 31.36 187.689 30.856 187.689 30.24C187.689 29.512 187.913 28.9613 188.361 28.588C188.809 28.2147 189.547 28.0653 190.573 28.14L190.321 29.792C190.228 29.512 190.032 29.3067 189.733 29.176C189.453 29.0267 189.089 28.952 188.641 28.952C188.119 28.952 187.605 29.092 187.101 29.372C186.597 29.6333 186.177 30.0533 185.841 30.632C185.524 31.192 185.365 31.9387 185.365 32.872H183.965Z" fill="#204E51"/>
<defs>
<clipPath id="clip0_64_8025">
<rect width="53.2981" height="50" fill="white" transform="translate(20)"/>
</clipPath>
</defs>
</svg>
