<svg id="visual" viewBox="0 0 900 600" width="900" height="600" xmlns="http://www.w3.org/2000/svg" xmlns:xlink="http://www.w3.org/1999/xlink" version="1.1"><path d="M0 55L30 52C60 49 120 43 180 50C240 57 300 77 360 76C420 75 480 53 540 43C600 33 660 35 720 35C780 35 840 33 870 32L900 31L900 0L870 0C840 0 780 0 720 0C660 0 600 0 540 0C480 0 420 0 360 0C300 0 240 0 180 0C120 0 60 0 30 0L0 0Z" fill="#a0da6f"></path><path d="M0 259L30 264C60 269 120 279 180 266C240 253 300 217 360 202C420 187 480 193 540 182C600 171 660 143 720 130C780 117 840 119 870 120L900 121L900 29L870 30C840 31 780 33 720 33C660 33 600 31 540 41C480 51 420 73 360 74C300 75 240 55 180 48C120 41 60 47 30 50L0 53Z" fill="#ade37f"></path><path d="M0 373L30 378C60 383 120 393 180 395C240 397 300 391 360 377C420 363 480 341 540 330C600 319 660 319 720 328C780 337 840 355 870 364L900 373L900 119L870 118C840 117 780 115 720 128C660 141 600 169 540 180C480 191 420 185 360 200C300 215 240 251 180 264C120 277 60 267 30 262L0 257Z" fill="#baec8e"></path><path d="M0 445L30 450C60 455 120 465 180 479C240 493 300 511 360 514C420 517 480 505 540 495C600 485 660 477 720 476C780 475 840 481 870 484L900 487L900 371L870 362C840 353 780 335 720 326C660 317 600 317 540 328C480 339 420 361 360 375C300 389 240 395 180 393C120 391 60 381 30 376L0 371Z" fill="#c4f29d"></path><path d="M0 469L30 474C60 479 120 489 180 506C240 523 300 547 360 554C420 561 480 551 540 541C600 531 660 521 720 521C780 521 840 531 870 536L900 541L900 485L870 482C840 479 780 473 720 474C660 475 600 483 540 493C480 503 420 515 360 512C300 509 240 491 180 477C120 463 60 453 30 448L0 443Z" fill="#cbf4ab"></path><path d="M0 601L30 601C60 601 120 601 180 601C240 601 300 601 360 601C420 601 480 601 540 601C600 601 660 601 720 601C780 601 840 601 870 601L900 601L900 539L870 534C840 529 780 519 720 519C660 519 600 529 540 539C480 549 420 559 360 552C300 545 240 521 180 504C120 487 60 477 30 472L0 467Z" fill="#d3f6b8"></path></svg>