<svg width="189" height="224" viewBox="0 0 189 224" fill="none" xmlns="http://www.w3.org/2000/svg">
<g clip-path="url(#clip0_1246_102)">
<rect width="189" height="224" rx="8" fill="#C0F196"/>
<rect x="67" y="-21" width="54" height="54" rx="12" fill="white"/>
<circle cx="94" cy="7" r="14" fill="#C0F196"/>
<ellipse cx="-39" cy="-27" rx="92" ry="78" fill="#D8F9C4"/>
<ellipse cx="189" cy="220.5" rx="92" ry="79.5" fill="#D8F9C4"/>
<path d="M98.1494 9.43848H89.3779V6.6084H98.1494V9.43848ZM95.249 12.7168H92.3047V3.40039H95.249V12.7168Z" fill="#00563E"/>
<path d="M21.032 67.024C20.904 66.8747 20.7333 66.7307 20.52 66.592C20.3067 66.4533 20.0667 66.3307 19.8 66.224C19.5333 66.1067 19.24 66.016 18.92 65.952C18.6107 65.8773 18.2853 65.84 17.944 65.84C17.0693 65.84 16.424 66.0053 16.008 66.336C15.592 66.6667 15.384 67.12 15.384 67.696C15.384 68.1013 15.4907 68.4213 15.704 68.656C15.9173 68.8907 16.2427 69.0827 16.68 69.232C17.128 69.3813 17.6933 69.536 18.376 69.696C19.1653 69.8667 19.848 70.0747 20.424 70.32C21 70.5653 21.4427 70.896 21.752 71.312C22.0613 71.7173 22.216 72.2613 22.216 72.944C22.216 73.488 22.1093 73.9627 21.896 74.368C21.6933 74.7627 21.4053 75.0933 21.032 75.36C20.6587 75.616 20.2213 75.808 19.72 75.936C19.2187 76.0533 18.6747 76.112 18.088 76.112C17.512 76.112 16.9467 76.0533 16.392 75.936C15.848 75.808 15.3307 75.6267 14.84 75.392C14.3493 75.1573 13.8907 74.864 13.464 74.512L14.152 73.296C14.3227 73.4773 14.5413 73.6587 14.808 73.84C15.0853 74.0107 15.3947 74.1707 15.736 74.32C16.088 74.4693 16.4667 74.592 16.872 74.688C17.2773 74.7733 17.6933 74.816 18.12 74.816C18.9307 74.816 19.56 74.672 20.008 74.384C20.456 74.0853 20.68 73.6533 20.68 73.088C20.68 72.6613 20.552 72.32 20.296 72.064C20.0507 71.808 19.6827 71.5947 19.192 71.424C18.7013 71.2533 18.104 71.0827 17.4 70.912C16.632 70.72 15.9867 70.512 15.464 70.288C14.9413 70.0533 14.5467 69.7493 14.28 69.376C14.024 69.0027 13.896 68.5173 13.896 67.92C13.896 67.1947 14.072 66.5813 14.424 66.08C14.776 65.5787 15.2613 65.2 15.88 64.944C16.4987 64.688 17.1973 64.56 17.976 64.56C18.488 64.56 18.9627 64.6133 19.4 64.72C19.848 64.8267 20.264 64.976 20.648 65.168C21.032 65.36 21.384 65.5893 21.704 65.856L21.032 67.024ZM31.134 76H29.726V71.328C29.726 70.4747 29.5713 69.8347 29.262 69.408C28.9633 68.9813 28.5313 68.768 27.966 68.768C27.6033 68.768 27.2353 68.864 26.862 69.056C26.4993 69.248 26.1793 69.5093 25.902 69.84C25.6247 70.16 25.422 70.5333 25.294 70.96V76H23.886V64.32H25.294V69.44C25.6247 68.8427 26.0727 68.3733 26.638 68.032C27.214 67.68 27.8327 67.504 28.494 67.504C28.9953 67.504 29.4113 67.5947 29.742 67.776C30.0833 67.9467 30.3553 68.192 30.558 68.512C30.7607 68.832 30.9047 69.2053 30.99 69.632C31.086 70.048 31.134 70.5067 31.134 71.008V76ZM32.6675 73.584C32.6675 73.0507 32.8168 72.592 33.1155 72.208C33.4248 71.8133 33.8462 71.5093 34.3795 71.296C34.9128 71.0827 35.5315 70.976 36.2355 70.976C36.6088 70.976 37.0035 71.008 37.4195 71.072C37.8355 71.1253 38.2035 71.2107 38.5235 71.328V70.72C38.5235 70.08 38.3315 69.5787 37.9475 69.216C37.5635 68.8427 37.0195 68.656 36.3155 68.656C35.8568 68.656 35.4142 68.7413 34.9875 68.912C34.5715 69.072 34.1288 69.3067 33.6595 69.616L33.1475 68.624C33.6915 68.2507 34.2355 67.9733 34.7795 67.792C35.3235 67.6 35.8888 67.504 36.4755 67.504C37.5422 67.504 38.3848 67.8027 39.0035 68.4C39.6222 68.9867 39.9315 69.808 39.9315 70.864V74.4C39.9315 74.5707 39.9635 74.6987 40.0275 74.784C40.1022 74.8587 40.2195 74.9013 40.3795 74.912V76C40.2408 76.0213 40.1182 76.0373 40.0115 76.048C39.9155 76.0587 39.8355 76.064 39.7715 76.064C39.4408 76.064 39.1902 75.9733 39.0195 75.792C38.8595 75.6107 38.7688 75.4187 38.7475 75.216L38.7155 74.688C38.3528 75.1573 37.8782 75.52 37.2915 75.776C36.7048 76.032 36.1235 76.16 35.5475 76.16C34.9928 76.16 34.4968 76.048 34.0595 75.824C33.6222 75.5893 33.2808 75.28 33.0355 74.896C32.7902 74.5013 32.6675 74.064 32.6675 73.584ZM38.1075 74.176C38.2355 74.0267 38.3368 73.8773 38.4115 73.728C38.4862 73.568 38.5235 73.4347 38.5235 73.328V72.288C38.1928 72.16 37.8462 72.064 37.4835 72C37.1208 71.9253 36.7635 71.888 36.4115 71.888C35.6968 71.888 35.1155 72.032 34.6675 72.32C34.2302 72.5973 34.0115 72.9813 34.0115 73.472C34.0115 73.7387 34.0808 74 34.2195 74.256C34.3688 74.5013 34.5822 74.704 34.8595 74.864C35.1475 75.024 35.4995 75.104 35.9155 75.104C36.3528 75.104 36.7688 75.0187 37.1635 74.848C37.5582 74.6667 37.8728 74.4427 38.1075 74.176ZM46.5989 68.88C45.8949 68.8907 45.2709 69.072 44.7269 69.424C44.1935 69.7653 43.8149 70.24 43.5909 70.848V76H42.1829V67.648H43.4949V69.584C43.7829 69.008 44.1615 68.544 44.6309 68.192C45.1109 67.8293 45.6122 67.6267 46.1349 67.584C46.2415 67.584 46.3322 67.584 46.4069 67.584C46.4815 67.584 46.5455 67.5893 46.5989 67.6V68.88ZM51.4883 76.16C50.8589 76.16 50.2829 76.048 49.7603 75.824C49.2483 75.5893 48.8003 75.2747 48.4163 74.88C48.0429 74.4747 47.7496 74.0107 47.5363 73.488C47.3336 72.9653 47.2323 72.4107 47.2323 71.824C47.2323 71.0347 47.4136 70.3147 47.7763 69.664C48.1389 69.0133 48.6403 68.4907 49.2803 68.096C49.9309 67.7013 50.6723 67.504 51.5043 67.504C52.3469 67.504 53.0776 67.7067 53.6963 68.112C54.3256 68.5067 54.8109 69.0293 55.1523 69.68C55.5043 70.32 55.6803 71.0133 55.6803 71.76C55.6803 71.8667 55.6749 71.9733 55.6643 72.08C55.6643 72.176 55.6589 72.2507 55.6483 72.304H48.7203C48.7629 72.848 48.9123 73.3333 49.1683 73.76C49.4349 74.176 49.7763 74.5067 50.1923 74.752C50.6083 74.9867 51.0563 75.104 51.5363 75.104C52.0483 75.104 52.5283 74.976 52.9763 74.72C53.4349 74.464 53.7496 74.128 53.9203 73.712L55.1363 74.048C54.9549 74.4533 54.6829 74.816 54.3203 75.136C53.9683 75.456 53.5469 75.7067 53.0563 75.888C52.5763 76.0693 52.0536 76.16 51.4883 76.16ZM48.6723 71.328H54.3683C54.3256 70.784 54.1709 70.304 53.9043 69.888C53.6376 69.472 53.2963 69.1467 52.8803 68.912C52.4643 68.6773 52.0056 68.56 51.5043 68.56C51.0136 68.56 50.5603 68.6773 50.1443 68.912C49.7283 69.1467 49.3869 69.472 49.1203 69.888C48.8643 70.304 48.7149 70.784 48.6723 71.328ZM61.3701 64.64L64.8101 70.56L68.2821 64.64H69.8501L65.5301 71.856V76H64.0901V71.824L59.7861 64.64H61.3701ZM73.3934 76.16C72.764 76.16 72.1934 76.048 71.6814 75.824C71.1694 75.5893 70.7267 75.2747 70.3534 74.88C69.98 74.4747 69.692 74.0107 69.4894 73.488C69.2867 72.9653 69.1854 72.416 69.1854 71.84C69.1854 71.2533 69.2867 70.6987 69.4894 70.176C69.692 69.6533 69.98 69.1947 70.3534 68.8C70.7267 68.3947 71.1694 68.08 71.6814 67.856C72.204 67.6213 72.7747 67.504 73.3934 67.504C74.0227 67.504 74.5934 67.6213 75.1054 67.856C75.6174 68.08 76.06 68.3947 76.4334 68.8C76.8174 69.1947 77.1107 69.6533 77.3134 70.176C77.516 70.6987 77.6174 71.2533 77.6174 71.84C77.6174 72.416 77.516 72.9653 77.3134 73.488C77.1107 74.0107 76.8227 74.4747 76.4494 74.88C76.076 75.2747 75.628 75.5893 75.1054 75.824C74.5934 76.048 74.0227 76.16 73.3934 76.16ZM70.6254 71.856C70.6254 72.432 70.748 72.9547 70.9934 73.424C71.2494 73.8933 71.5854 74.2667 72.0014 74.544C72.4174 74.8107 72.8814 74.944 73.3934 74.944C73.9054 74.944 74.3694 74.8053 74.7854 74.528C75.212 74.2507 75.548 73.8773 75.7934 73.408C76.0494 72.928 76.1774 72.4 76.1774 71.824C76.1774 71.248 76.0494 70.7253 75.7934 70.256C75.548 69.7867 75.212 69.4133 74.7854 69.136C74.3694 68.8587 73.9054 68.72 73.3934 68.72C72.8814 68.72 72.4174 68.864 72.0014 69.152C71.5854 69.4293 71.2494 69.8027 70.9934 70.272C70.748 70.7413 70.6254 71.2693 70.6254 71.856ZM79.2435 72.656V67.648H80.6515V72.384C80.6515 73.2373 80.8008 73.8773 81.0995 74.304C81.3982 74.7307 81.8408 74.944 82.4275 74.944C82.8115 74.944 83.1795 74.864 83.5315 74.704C83.8942 74.5333 84.2195 74.2933 84.5075 73.984C84.7955 73.6747 85.0195 73.3067 85.1795 72.88V67.648H86.5875V74.4C86.5875 74.5707 86.6195 74.6987 86.6835 74.784C86.7582 74.8587 86.8755 74.9013 87.0355 74.912V76C86.8755 76.0213 86.7475 76.032 86.6515 76.032C86.5662 76.0427 86.4808 76.048 86.3955 76.048C86.1288 76.048 85.8995 75.968 85.7075 75.808C85.5155 75.6373 85.4142 75.4293 85.4035 75.184L85.3715 74.208C85.0088 74.8267 84.5182 75.3067 83.8995 75.648C83.2915 75.9893 82.6248 76.16 81.8995 76.16C81.0248 76.16 80.3635 75.8667 79.9155 75.28C79.4675 74.6827 79.2435 73.808 79.2435 72.656ZM93.3489 68.88C92.6449 68.8907 92.0209 69.072 91.4769 69.424C90.9435 69.7653 90.5649 70.24 90.3409 70.848V76H88.9329V67.648H90.2449V69.584C90.5329 69.008 90.9115 68.544 91.3809 68.192C91.8609 67.8293 92.3622 67.6267 92.8849 67.584C92.9915 67.584 93.0822 67.584 93.1569 67.584C93.2315 67.584 93.2955 67.5893 93.3489 67.6V68.88ZM106.353 74.72V76H98.6413V64.64H106.209V65.92H100.081V69.6H105.409V70.8H100.081V74.72H106.353ZM108.729 67.648L110.937 70.72L111.065 70.976L111.209 70.72L113.401 67.648H114.969L111.881 71.84L114.985 76H113.417L111.209 72.944L111.065 72.704L110.937 72.944L108.729 76H107.161L110.265 71.84L107.177 67.648H108.729ZM120.804 76.16C120.121 76.16 119.513 75.9893 118.98 75.648C118.447 75.3067 118.025 74.8747 117.716 74.352V79.408H116.308V67.648H117.556V69.216C117.887 68.704 118.319 68.2933 118.852 67.984C119.385 67.664 119.967 67.504 120.596 67.504C121.172 67.504 121.7 67.6213 122.18 67.856C122.66 68.0907 123.076 68.4107 123.428 68.816C123.78 69.2213 124.052 69.6853 124.244 70.208C124.447 70.72 124.548 71.2587 124.548 71.824C124.548 72.6133 124.388 73.3387 124.068 74C123.759 74.6613 123.321 75.1893 122.756 75.584C122.191 75.968 121.54 76.16 120.804 76.16ZM120.372 74.944C120.788 74.944 121.161 74.8587 121.492 74.688C121.833 74.5067 122.121 74.272 122.356 73.984C122.601 73.6853 122.788 73.3493 122.916 72.976C123.044 72.6027 123.108 72.2187 123.108 71.824C123.108 71.408 123.033 71.0133 122.884 70.64C122.745 70.2667 122.543 69.936 122.276 69.648C122.02 69.36 121.716 69.136 121.364 68.976C121.023 68.8053 120.649 68.72 120.244 68.72C119.988 68.72 119.721 68.768 119.444 68.864C119.177 68.96 118.921 69.0987 118.676 69.28C118.431 69.4507 118.223 69.648 118.052 69.872C117.881 70.096 117.769 70.336 117.716 70.592V72.976C117.876 73.3387 118.089 73.6693 118.356 73.968C118.623 74.2667 118.932 74.5067 119.284 74.688C119.636 74.8587 119.999 74.944 120.372 74.944ZM129.973 76.16C129.343 76.16 128.767 76.048 128.245 75.824C127.733 75.5893 127.285 75.2747 126.901 74.88C126.527 74.4747 126.234 74.0107 126.021 73.488C125.818 72.9653 125.717 72.4107 125.717 71.824C125.717 71.0347 125.898 70.3147 126.261 69.664C126.623 69.0133 127.125 68.4907 127.765 68.096C128.415 67.7013 129.157 67.504 129.989 67.504C130.831 67.504 131.562 67.7067 132.181 68.112C132.81 68.5067 133.295 69.0293 133.637 69.68C133.989 70.32 134.165 71.0133 134.165 71.76C134.165 71.8667 134.159 71.9733 134.149 72.08C134.149 72.176 134.143 72.2507 134.133 72.304H127.205C127.247 72.848 127.397 73.3333 127.653 73.76C127.919 74.176 128.261 74.5067 128.677 74.752C129.093 74.9867 129.541 75.104 130.021 75.104C130.533 75.104 131.013 74.976 131.461 74.72C131.919 74.464 132.234 74.128 132.405 73.712L133.621 74.048C133.439 74.4533 133.167 74.816 132.805 75.136C132.453 75.456 132.031 75.7067 131.541 75.888C131.061 76.0693 130.538 76.16 129.973 76.16ZM127.157 71.328H132.853C132.81 70.784 132.655 70.304 132.389 69.888C132.122 69.472 131.781 69.1467 131.365 68.912C130.949 68.6773 130.49 68.56 129.989 68.56C129.498 68.56 129.045 68.6773 128.629 68.912C128.213 69.1467 127.871 69.472 127.605 69.888C127.349 70.304 127.199 70.784 127.157 71.328ZM140.146 68.88C139.442 68.8907 138.818 69.072 138.274 69.424C137.74 69.7653 137.362 70.24 137.138 70.848V76H135.73V67.648H137.042V69.584C137.33 69.008 137.708 68.544 138.178 68.192C138.658 67.8293 139.159 67.6267 139.682 67.584C139.788 67.584 139.879 67.584 139.954 67.584C140.028 67.584 140.092 67.5893 140.146 67.6V68.88ZM141.542 76V67.648H142.95V76H141.542ZM141.542 66.08V64.32H142.95V66.08H141.542ZM148.926 76.16C148.296 76.16 147.72 76.048 147.198 75.824C146.686 75.5893 146.238 75.2747 145.854 74.88C145.48 74.4747 145.187 74.0107 144.974 73.488C144.771 72.9653 144.67 72.4107 144.67 71.824C144.67 71.0347 144.851 70.3147 145.214 69.664C145.576 69.0133 146.078 68.4907 146.718 68.096C147.368 67.7013 148.11 67.504 148.942 67.504C149.784 67.504 150.515 67.7067 151.134 68.112C151.763 68.5067 152.248 69.0293 152.59 69.68C152.942 70.32 153.118 71.0133 153.118 71.76C153.118 71.8667 153.112 71.9733 153.102 72.08C153.102 72.176 153.096 72.2507 153.086 72.304H146.158C146.2 72.848 146.35 73.3333 146.606 73.76C146.872 74.176 147.214 74.5067 147.63 74.752C148.046 74.9867 148.494 75.104 148.974 75.104C149.486 75.104 149.966 74.976 150.414 74.72C150.872 74.464 151.187 74.128 151.358 73.712L152.574 74.048C152.392 74.4533 152.12 74.816 151.758 75.136C151.406 75.456 150.984 75.7067 150.494 75.888C150.014 76.0693 149.491 76.16 148.926 76.16ZM146.11 71.328H151.806C151.763 70.784 151.608 70.304 151.342 69.888C151.075 69.472 150.734 69.1467 150.318 68.912C149.902 68.6773 149.443 68.56 148.942 68.56C148.451 68.56 147.998 68.6773 147.582 68.912C147.166 69.1467 146.824 69.472 146.558 69.888C146.302 70.304 146.152 70.784 146.11 71.328ZM161.931 76H160.523V71.328C160.523 70.4427 160.384 69.7973 160.107 69.392C159.84 68.976 159.43 68.768 158.875 68.768C158.491 68.768 158.107 68.864 157.723 69.056C157.35 69.248 157.014 69.5093 156.715 69.84C156.427 70.16 156.219 70.5333 156.091 70.96V76H154.683V67.648H155.963V69.44C156.187 69.0453 156.475 68.704 156.827 68.416C157.179 68.128 157.579 67.904 158.027 67.744C158.475 67.584 158.944 67.504 159.435 67.504C159.915 67.504 160.315 67.5947 160.635 67.776C160.966 67.9467 161.222 68.192 161.403 68.512C161.595 68.8213 161.728 69.1893 161.803 69.616C161.888 70.0427 161.931 70.5067 161.931 71.008V76ZM167.816 76.16C167.187 76.16 166.611 76.048 166.088 75.824C165.576 75.5893 165.128 75.2693 164.744 74.864C164.371 74.4587 164.078 73.9947 163.864 73.472C163.662 72.9493 163.56 72.3947 163.56 71.808C163.56 71.0187 163.736 70.2987 164.088 69.648C164.44 68.9973 164.936 68.48 165.576 68.096C166.216 67.7013 166.958 67.504 167.8 67.504C168.622 67.504 169.336 67.6907 169.944 68.064C170.563 68.4267 171.022 68.9173 171.32 69.536L169.944 69.968C169.731 69.5733 169.432 69.2693 169.048 69.056C168.664 68.832 168.238 68.72 167.768 68.72C167.256 68.72 166.787 68.8533 166.36 69.12C165.944 69.3867 165.614 69.7547 165.368 70.224C165.123 70.6827 165 71.2107 165 71.808C165 72.3947 165.123 72.928 165.368 73.408C165.624 73.8773 165.96 74.2507 166.376 74.528C166.803 74.8053 167.272 74.944 167.784 74.944C168.115 74.944 168.43 74.8853 168.728 74.768C169.038 74.6507 169.304 74.496 169.528 74.304C169.763 74.1013 169.923 73.8827 170.008 73.648L171.384 74.064C171.214 74.4693 170.952 74.832 170.6 75.152C170.259 75.4613 169.848 75.7067 169.368 75.888C168.899 76.0693 168.382 76.16 167.816 76.16ZM176.598 76.16C175.968 76.16 175.392 76.048 174.87 75.824C174.358 75.5893 173.91 75.2747 173.526 74.88C173.152 74.4747 172.859 74.0107 172.646 73.488C172.443 72.9653 172.342 72.4107 172.342 71.824C172.342 71.0347 172.523 70.3147 172.886 69.664C173.248 69.0133 173.75 68.4907 174.39 68.096C175.04 67.7013 175.782 67.504 176.614 67.504C177.456 67.504 178.187 67.7067 178.806 68.112C179.435 68.5067 179.92 69.0293 180.262 69.68C180.614 70.32 180.79 71.0133 180.79 71.76C180.79 71.8667 180.784 71.9733 180.774 72.08C180.774 72.176 180.768 72.2507 180.758 72.304H173.83C173.872 72.848 174.022 73.3333 174.278 73.76C174.544 74.176 174.886 74.5067 175.302 74.752C175.718 74.9867 176.166 75.104 176.646 75.104C177.158 75.104 177.638 74.976 178.086 74.72C178.544 74.464 178.859 74.128 179.03 73.712L180.246 74.048C180.064 74.4533 179.792 74.816 179.43 75.136C179.078 75.456 178.656 75.7067 178.166 75.888C177.686 76.0693 177.163 76.16 176.598 76.16ZM173.782 71.328H179.478C179.435 70.784 179.28 70.304 179.014 69.888C178.747 69.472 178.406 69.1467 177.99 68.912C177.574 68.6773 177.115 68.56 176.614 68.56C176.123 68.56 175.67 68.6773 175.254 68.912C174.838 69.1467 174.496 69.472 174.23 69.888C173.974 70.304 173.824 70.784 173.782 71.328Z" fill="#00563E"/>
<path d="M13.588 91.96C13.588 91.3533 13.6907 90.7607 13.896 90.182C14.1107 89.594 14.4187 89.062 14.82 88.586C15.2213 88.1007 15.716 87.718 16.304 87.438C16.892 87.1487 17.5593 87.004 18.306 87.004C19.1927 87.004 19.9487 87.2093 20.574 87.62C21.2087 88.0213 21.6753 88.5393 21.974 89.174L21.204 89.65C20.9893 89.2113 20.7187 88.866 20.392 88.614C20.0653 88.3527 19.7153 88.166 19.342 88.054C18.978 87.942 18.614 87.886 18.25 87.886C17.6527 87.886 17.1253 88.0073 16.668 88.25C16.2107 88.4833 15.8233 88.8007 15.506 89.202C15.198 89.594 14.9647 90.0373 14.806 90.532C14.6473 91.0173 14.568 91.512 14.568 92.016C14.568 92.5667 14.6613 93.094 14.848 93.598C15.0347 94.102 15.296 94.55 15.632 94.942C15.968 95.3247 16.36 95.6327 16.808 95.866C17.2653 96.09 17.76 96.202 18.292 96.202C18.6653 96.202 19.048 96.1367 19.44 96.006C19.832 95.8753 20.196 95.6747 20.532 95.404C20.8773 95.1333 21.1527 94.7833 21.358 94.354L22.17 94.774C21.9647 95.2687 21.6473 95.6887 21.218 96.034C20.7887 96.3793 20.308 96.6407 19.776 96.818C19.2533 96.9953 18.74 97.084 18.236 97.084C17.5547 97.084 16.9293 96.9393 16.36 96.65C15.7907 96.3513 15.296 95.9593 14.876 95.474C14.4653 94.9793 14.148 94.4287 13.924 93.822C13.7 93.206 13.588 92.5853 13.588 91.96ZM26.7557 97.14C26.233 97.14 25.7477 97.042 25.2997 96.846C24.861 96.6407 24.4783 96.3653 24.1517 96.02C23.8343 95.6653 23.587 95.264 23.4097 94.816C23.2323 94.3587 23.1437 93.878 23.1437 93.374C23.1437 92.8513 23.2323 92.366 23.4097 91.918C23.587 91.4607 23.839 91.0593 24.1657 90.714C24.4923 90.3593 24.875 90.084 25.3137 89.888C25.7617 89.6827 26.247 89.58 26.7697 89.58C27.2923 89.58 27.773 89.6827 28.2117 89.888C28.6503 90.084 29.033 90.3593 29.3597 90.714C29.6863 91.0593 29.9383 91.4607 30.1157 91.918C30.293 92.366 30.3817 92.8513 30.3817 93.374C30.3817 93.878 30.293 94.3587 30.1157 94.816C29.9383 95.264 29.6863 95.6653 29.3597 96.02C29.0423 96.3653 28.6597 96.6407 28.2117 96.846C27.773 97.042 27.2877 97.14 26.7557 97.14ZM24.1097 93.388C24.1097 93.9293 24.2263 94.424 24.4597 94.872C24.7023 95.3107 25.0243 95.6607 25.4257 95.922C25.827 96.174 26.2703 96.3 26.7557 96.3C27.241 96.3 27.6843 96.1693 28.0857 95.908C28.487 95.6467 28.809 95.292 29.0517 94.844C29.2943 94.3867 29.4157 93.892 29.4157 93.36C29.4157 92.8187 29.2943 92.324 29.0517 91.876C28.809 91.428 28.487 91.0733 28.0857 90.812C27.6843 90.5507 27.241 90.42 26.7557 90.42C26.2703 90.42 25.827 90.5553 25.4257 90.826C25.0337 91.0967 24.7163 91.456 24.4737 91.904C24.231 92.3427 24.1097 92.8373 24.1097 93.388ZM38.1058 97H37.1538V92.926C37.1538 92.0673 37.0278 91.442 36.7758 91.05C36.5238 90.6487 36.1272 90.448 35.5858 90.448C35.2125 90.448 34.8438 90.5413 34.4798 90.728C34.1158 90.9053 33.7938 91.1527 33.5138 91.47C33.2432 91.778 33.0472 92.1327 32.9258 92.534V97H31.9738V89.706H32.8418V91.358C33.0378 91.0033 33.2945 90.6953 33.6118 90.434C33.9292 90.1633 34.2885 89.9533 34.6898 89.804C35.0912 89.6547 35.5065 89.58 35.9358 89.58C36.3372 89.58 36.6778 89.6547 36.9578 89.804C37.2378 89.9533 37.4618 90.168 37.6298 90.448C37.7978 90.7187 37.9192 91.05 37.9938 91.442C38.0685 91.8247 38.1058 92.254 38.1058 92.73V97ZM46.2679 97H45.3159V92.926C45.3159 92.0673 45.1899 91.442 44.9379 91.05C44.6859 90.6487 44.2893 90.448 43.7479 90.448C43.3746 90.448 43.0059 90.5413 42.6419 90.728C42.2779 90.9053 41.9559 91.1527 41.6759 91.47C41.4053 91.778 41.2093 92.1327 41.0879 92.534V97H40.1359V89.706H41.0039V91.358C41.1999 91.0033 41.4566 90.6953 41.7739 90.434C42.0913 90.1633 42.4506 89.9533 42.8519 89.804C43.2533 89.6547 43.6686 89.58 44.0979 89.58C44.4993 89.58 44.8399 89.6547 45.1199 89.804C45.3999 89.9533 45.6239 90.168 45.7919 90.448C45.9599 90.7187 46.0813 91.05 46.1559 91.442C46.2306 91.8247 46.2679 92.254 46.2679 92.73V97ZM51.448 97.14C50.9254 97.14 50.44 97.042 49.992 96.846C49.544 96.6407 49.1567 96.3653 48.83 96.02C48.5034 95.6653 48.2467 95.2593 48.06 94.802C47.8827 94.3447 47.794 93.8547 47.794 93.332C47.794 92.6507 47.948 92.0253 48.256 91.456C48.5734 90.8867 49.0074 90.434 49.558 90.098C50.1087 89.7527 50.734 89.58 51.434 89.58C52.1527 89.58 52.778 89.7527 53.31 90.098C53.8514 90.4433 54.276 90.9007 54.584 91.47C54.892 92.03 55.046 92.646 55.046 93.318C55.046 93.3927 55.046 93.4673 55.046 93.542C55.046 93.6073 55.0414 93.6587 55.032 93.696H48.788C48.8347 94.2187 48.9794 94.6853 49.222 95.096C49.474 95.4973 49.796 95.8193 50.188 96.062C50.5894 96.2953 51.0234 96.412 51.49 96.412C51.966 96.412 52.414 96.2907 52.834 96.048C53.2634 95.8053 53.562 95.488 53.73 95.096L54.556 95.32C54.4067 95.6653 54.178 95.978 53.87 96.258C53.562 96.538 53.198 96.7573 52.778 96.916C52.3674 97.0653 51.924 97.14 51.448 97.14ZM48.76 93.01H54.15C54.1127 92.478 53.968 92.0113 53.716 91.61C53.4734 91.2087 53.1514 90.896 52.75 90.672C52.358 90.4387 51.924 90.322 51.448 90.322C50.972 90.322 50.538 90.4387 50.146 90.672C49.754 90.896 49.432 91.2133 49.18 91.624C48.9374 92.0253 48.7974 92.4873 48.76 93.01ZM59.6788 97.14C59.1468 97.14 58.6568 97.042 58.2088 96.846C57.7702 96.6407 57.3828 96.3607 57.0468 96.006C56.7202 95.6513 56.4635 95.2453 56.2768 94.788C56.0995 94.3307 56.0108 93.8453 56.0108 93.332C56.0108 92.6413 56.1648 92.0113 56.4728 91.442C56.7808 90.8727 57.2102 90.42 57.7608 90.084C58.3115 89.748 58.9462 89.58 59.6648 89.58C60.3462 89.58 60.9482 89.7387 61.4708 90.056C61.9935 90.364 62.3808 90.784 62.6328 91.316L61.7088 91.61C61.5035 91.2367 61.2142 90.9473 60.8408 90.742C60.4768 90.5273 60.0708 90.42 59.6228 90.42C59.1375 90.42 58.6942 90.546 58.2928 90.798C57.8915 91.05 57.5695 91.3953 57.3268 91.834C57.0935 92.2727 56.9768 92.772 56.9768 93.332C56.9768 93.8827 57.0982 94.382 57.3408 94.83C57.5835 95.278 57.9055 95.6373 58.3068 95.908C58.7082 96.1693 59.1515 96.3 59.6368 96.3C59.9542 96.3 60.2575 96.244 60.5468 96.132C60.8455 96.02 61.1022 95.8707 61.3168 95.684C61.5408 95.488 61.6902 95.278 61.7648 95.054L62.7028 95.334C62.5722 95.6793 62.3528 95.992 62.0448 96.272C61.7462 96.5427 61.3915 96.7573 60.9808 96.916C60.5795 97.0653 60.1455 97.14 59.6788 97.14ZM67.6984 96.65C67.6238 96.678 67.5071 96.7293 67.3484 96.804C67.1898 96.8787 66.9984 96.944 66.7744 97C66.5504 97.056 66.3078 97.084 66.0464 97.084C65.7758 97.084 65.5191 97.0327 65.2764 96.93C65.0431 96.8273 64.8564 96.6733 64.7164 96.468C64.5764 96.2533 64.5064 95.992 64.5064 95.684V90.462H63.4984V89.706H64.5064V87.242H65.4584V89.706H67.1384V90.462H65.4584V95.418C65.4771 95.6793 65.5704 95.8753 65.7384 96.006C65.9158 96.1367 66.1164 96.202 66.3404 96.202C66.6018 96.202 66.8398 96.16 67.0544 96.076C67.2691 95.9827 67.3998 95.9173 67.4464 95.88L67.6984 96.65ZM81.2438 89.706H82.1818L79.0458 97H78.2198L76.6938 93.374L75.1818 97H74.3558L71.2198 89.706H72.1438L74.8038 96.02L76.1478 92.73L74.9158 89.72H75.7698L76.6938 92.086L77.6318 89.72H78.4718L77.2538 92.73L78.5978 96.02L81.2438 89.706ZM83.4484 97V89.706H84.4004V97H83.4484ZM83.4484 88.18V86.78H84.4004V88.18H83.4484ZM89.9973 96.65C89.9226 96.678 89.8059 96.7293 89.6473 96.804C89.4886 96.8787 89.2973 96.944 89.0733 97C88.8493 97.056 88.6066 97.084 88.3453 97.084C88.0746 97.084 87.8179 97.0327 87.5753 96.93C87.3419 96.8273 87.1553 96.6733 87.0153 96.468C86.8753 96.2533 86.8053 95.992 86.8053 95.684V90.462H85.7973V89.706H86.8053V87.242H87.7573V89.706H89.4373V90.462H87.7573V95.418C87.7759 95.6793 87.8693 95.8753 88.0373 96.006C88.2146 96.1367 88.4153 96.202 88.6393 96.202C88.9006 96.202 89.1386 96.16 89.3533 96.076C89.5679 95.9827 89.6986 95.9173 89.7453 95.88L89.9973 96.65ZM97.3187 97H96.3667V92.926C96.3667 92.1047 96.2221 91.4887 95.9327 91.078C95.6434 90.658 95.2281 90.448 94.6867 90.448C94.3321 90.448 93.9774 90.5413 93.6227 90.728C93.2774 90.9053 92.9694 91.1527 92.6987 91.47C92.4374 91.778 92.2507 92.1327 92.1387 92.534V97H91.1867V86.78H92.1387V91.358C92.4281 90.8167 92.8294 90.3873 93.3427 90.07C93.8654 89.7433 94.4207 89.58 95.0087 89.58C95.4287 89.58 95.7834 89.6547 96.0727 89.804C96.3714 89.9533 96.6094 90.1727 96.7867 90.462C96.9734 90.742 97.1087 91.0733 97.1927 91.456C97.2767 91.8293 97.3187 92.254 97.3187 92.73V97ZM107.117 97.07C106.417 97.07 105.783 96.93 105.213 96.65C104.644 96.37 104.154 95.992 103.743 95.516C103.333 95.0307 103.015 94.4893 102.791 93.892C102.567 93.2853 102.455 92.6647 102.455 92.03C102.455 91.3673 102.572 90.7373 102.805 90.14C103.039 89.5333 103.365 88.9967 103.785 88.53C104.215 88.054 104.714 87.6807 105.283 87.41C105.853 87.13 106.469 86.99 107.131 86.99C107.831 86.99 108.466 87.1347 109.035 87.424C109.605 87.7133 110.09 88.1007 110.491 88.586C110.902 89.0713 111.219 89.6127 111.443 90.21C111.667 90.8073 111.779 91.4187 111.779 92.044C111.779 92.7067 111.663 93.3413 111.429 93.948C111.196 94.5453 110.869 95.082 110.449 95.558C110.029 96.0247 109.535 96.3933 108.965 96.664C108.396 96.9347 107.78 97.07 107.117 97.07ZM103.435 92.03C103.435 92.5713 103.524 93.094 103.701 93.598C103.879 94.0927 104.131 94.536 104.457 94.928C104.784 95.3107 105.171 95.6187 105.619 95.852C106.077 96.076 106.576 96.188 107.117 96.188C107.687 96.188 108.195 96.0713 108.643 95.838C109.101 95.5953 109.488 95.278 109.805 94.886C110.132 94.4847 110.379 94.0367 110.547 93.542C110.715 93.0473 110.799 92.5433 110.799 92.03C110.799 91.4887 110.711 90.9707 110.533 90.476C110.356 89.9813 110.099 89.538 109.763 89.146C109.437 88.754 109.049 88.446 108.601 88.222C108.153 87.998 107.659 87.886 107.117 87.886C106.557 87.886 106.049 88.0027 105.591 88.236C105.143 88.4693 104.756 88.7867 104.429 89.188C104.112 89.58 103.865 90.0233 103.687 90.518C103.519 91.0127 103.435 91.5167 103.435 92.03ZM116.931 96.65C116.856 96.678 116.74 96.7293 116.581 96.804C116.422 96.8787 116.231 96.944 116.007 97C115.783 97.056 115.54 97.084 115.279 97.084C115.008 97.084 114.752 97.0327 114.509 96.93C114.276 96.8273 114.089 96.6733 113.949 96.468C113.809 96.2533 113.739 95.992 113.739 95.684V90.462H112.731V89.706H113.739V87.242H114.691V89.706H116.371V90.462H114.691V95.418C114.71 95.6793 114.803 95.8753 114.971 96.006C115.148 96.1367 115.349 96.202 115.573 96.202C115.834 96.202 116.072 96.16 116.287 96.076C116.502 95.9827 116.632 95.9173 116.679 95.88L116.931 96.65ZM124.252 97H123.3V92.926C123.3 92.1047 123.156 91.4887 122.866 91.078C122.577 90.658 122.162 90.448 121.62 90.448C121.266 90.448 120.911 90.5413 120.556 90.728C120.211 90.9053 119.903 91.1527 119.632 91.47C119.371 91.778 119.184 92.1327 119.072 92.534V97H118.12V86.78H119.072V91.358C119.362 90.8167 119.763 90.3873 120.276 90.07C120.799 89.7433 121.354 89.58 121.942 89.58C122.362 89.58 122.717 89.6547 123.006 89.804C123.305 89.9533 123.543 90.1727 123.72 90.462C123.907 90.742 124.042 91.0733 124.126 91.456C124.21 91.8293 124.252 92.254 124.252 92.73V97ZM129.432 97.14C128.91 97.14 128.424 97.042 127.976 96.846C127.528 96.6407 127.141 96.3653 126.814 96.02C126.488 95.6653 126.231 95.2593 126.044 94.802C125.867 94.3447 125.778 93.8547 125.778 93.332C125.778 92.6507 125.932 92.0253 126.24 91.456C126.558 90.8867 126.992 90.434 127.542 90.098C128.093 89.7527 128.718 89.58 129.418 89.58C130.137 89.58 130.762 89.7527 131.294 90.098C131.836 90.4433 132.26 90.9007 132.568 91.47C132.876 92.03 133.03 92.646 133.03 93.318C133.03 93.3927 133.03 93.4673 133.03 93.542C133.03 93.6073 133.026 93.6587 133.016 93.696H126.772C126.819 94.2187 126.964 94.6853 127.206 95.096C127.458 95.4973 127.78 95.8193 128.172 96.062C128.574 96.2953 129.008 96.412 129.474 96.412C129.95 96.412 130.398 96.2907 130.818 96.048C131.248 95.8053 131.546 95.488 131.714 95.096L132.54 95.32C132.391 95.6653 132.162 95.978 131.854 96.258C131.546 96.538 131.182 96.7573 130.762 96.916C130.352 97.0653 129.908 97.14 129.432 97.14ZM126.744 93.01H132.134C132.097 92.478 131.952 92.0113 131.7 91.61C131.458 91.2087 131.136 90.896 130.734 90.672C130.342 90.4387 129.908 90.322 129.432 90.322C128.956 90.322 128.522 90.4387 128.13 90.672C127.738 90.896 127.416 91.2133 127.164 91.624C126.922 92.0253 126.782 92.4873 126.744 93.01ZM138.139 90.546C137.505 90.5647 136.945 90.742 136.459 91.078C135.983 91.414 135.647 91.876 135.451 92.464V97H134.499V89.706H135.395V91.456C135.647 90.9427 135.979 90.5273 136.389 90.21C136.809 89.8927 137.253 89.7153 137.719 89.678C137.813 89.6687 137.892 89.664 137.957 89.664C138.032 89.664 138.093 89.6687 138.139 89.678V90.546ZM141.801 97.14C141.204 97.14 140.649 97.042 140.135 96.846C139.622 96.65 139.179 96.3513 138.805 95.95L139.197 95.278C139.608 95.6607 140.019 95.9407 140.429 96.118C140.849 96.286 141.293 96.37 141.759 96.37C142.329 96.37 142.791 96.258 143.145 96.034C143.5 95.8007 143.677 95.4693 143.677 95.04C143.677 94.7507 143.589 94.5313 143.411 94.382C143.243 94.2233 142.996 94.0973 142.669 94.004C142.352 93.9013 141.969 93.794 141.521 93.682C141.017 93.542 140.593 93.3973 140.247 93.248C139.911 93.0893 139.655 92.8933 139.477 92.66C139.309 92.4173 139.225 92.1047 139.225 91.722C139.225 91.246 139.342 90.854 139.575 90.546C139.818 90.2287 140.145 89.9907 140.555 89.832C140.975 89.664 141.442 89.58 141.955 89.58C142.515 89.58 143.01 89.6687 143.439 89.846C143.869 90.0233 144.219 90.2707 144.489 90.588L144.027 91.232C143.766 90.9333 143.453 90.714 143.089 90.574C142.735 90.4247 142.338 90.35 141.899 90.35C141.601 90.35 141.316 90.392 141.045 90.476C140.775 90.5507 140.551 90.6813 140.373 90.868C140.205 91.0453 140.121 91.2927 140.121 91.61C140.121 91.8713 140.187 92.0767 140.317 92.226C140.448 92.366 140.644 92.4873 140.905 92.59C141.167 92.6833 141.489 92.786 141.871 92.898C142.422 93.0473 142.903 93.2013 143.313 93.36C143.724 93.5093 144.041 93.7053 144.265 93.948C144.489 94.1907 144.601 94.5313 144.601 94.97C144.601 95.6513 144.345 96.1833 143.831 96.566C143.318 96.9487 142.641 97.14 141.801 97.14ZM146.329 98.134L146.567 96.958H146.245V95.628H147.169V96.958L146.819 98.134H146.329ZM155.726 87.06H156.552L160.682 97H159.646L158.358 93.892H153.892L152.618 97H151.568L155.726 87.06ZM158.134 93.122L156.132 88.208L154.102 93.122H158.134ZM164.21 97.14C163.612 97.14 163.057 97.042 162.544 96.846C162.03 96.65 161.587 96.3513 161.214 95.95L161.606 95.278C162.016 95.6607 162.427 95.9407 162.838 96.118C163.258 96.286 163.701 96.37 164.168 96.37C164.737 96.37 165.199 96.258 165.554 96.034C165.908 95.8007 166.086 95.4693 166.086 95.04C166.086 94.7507 165.997 94.5313 165.82 94.382C165.652 94.2233 165.404 94.0973 165.078 94.004C164.76 93.9013 164.378 93.794 163.93 93.682C163.426 93.542 163.001 93.3973 162.656 93.248C162.32 93.0893 162.063 92.8933 161.886 92.66C161.718 92.4173 161.634 92.1047 161.634 91.722C161.634 91.246 161.75 90.854 161.984 90.546C162.226 90.2287 162.553 89.9907 162.964 89.832C163.384 89.664 163.85 89.58 164.364 89.58C164.924 89.58 165.418 89.6687 165.848 89.846C166.277 90.0233 166.627 90.2707 166.898 90.588L166.436 91.232C166.174 90.9333 165.862 90.714 165.498 90.574C165.143 90.4247 164.746 90.35 164.308 90.35C164.009 90.35 163.724 90.392 163.454 90.476C163.183 90.5507 162.959 90.6813 162.782 90.868C162.614 91.0453 162.53 91.2927 162.53 91.61C162.53 91.8713 162.595 92.0767 162.726 92.226C162.856 92.366 163.052 92.4873 163.314 92.59C163.575 92.6833 163.897 92.786 164.28 92.898C164.83 93.0473 165.311 93.2013 165.722 93.36C166.132 93.5093 166.45 93.7053 166.674 93.948C166.898 94.1907 167.01 94.5313 167.01 94.97C167.01 95.6513 166.753 96.1833 166.24 96.566C165.726 96.9487 165.05 97.14 164.21 97.14ZM173.791 97L171.089 93.262L169.535 94.718V97H168.583V86.78H169.535V93.696L173.665 89.72H174.715L171.733 92.702L174.827 97H173.791ZM18.25 113.07C17.55 113.07 16.9153 112.93 16.346 112.65C15.7767 112.361 15.2867 111.978 14.876 111.502C14.4653 111.026 14.148 110.489 13.924 109.892C13.7 109.285 13.588 108.665 13.588 108.03C13.588 107.367 13.7047 106.737 13.938 106.14C14.1713 105.533 14.498 104.997 14.918 104.53C15.3473 104.054 15.8467 103.681 16.416 103.41C16.9853 103.13 17.6013 102.99 18.264 102.99C18.964 102.99 19.5987 103.135 20.168 103.424C20.7373 103.713 21.2227 104.101 21.624 104.586C22.0347 105.071 22.352 105.613 22.576 106.21C22.8 106.807 22.912 107.419 22.912 108.044C22.912 108.707 22.7953 109.341 22.562 109.948C22.3287 110.545 22.002 111.082 21.582 111.558C21.162 112.025 20.6673 112.393 20.098 112.664C19.5287 112.935 18.9127 113.07 18.25 113.07ZM18.25 112.188C18.8193 112.188 19.328 112.071 19.776 111.838C20.2333 111.595 20.6207 111.278 20.938 110.886C21.2647 110.485 21.512 110.037 21.68 109.542C21.848 109.047 21.932 108.543 21.932 108.03C21.932 107.489 21.8433 106.971 21.666 106.476C21.4887 105.972 21.232 105.529 20.896 105.146C20.5693 104.754 20.182 104.446 19.734 104.222C19.286 103.989 18.7913 103.872 18.25 103.872C17.69 103.872 17.1813 103.993 16.724 104.236C16.276 104.469 15.8887 104.787 15.562 105.188C15.2447 105.58 14.9973 106.023 14.82 106.518C14.652 107.013 14.568 107.517 14.568 108.03C14.568 108.571 14.6567 109.094 14.834 109.598C15.0113 110.093 15.2633 110.536 15.59 110.928C15.9167 111.311 16.304 111.619 16.752 111.852C17.2093 112.076 17.7087 112.188 18.25 112.188ZM19.146 109.948H20.112L22.688 113H21.722L19.146 109.948ZM24.4663 109.99V105.706H25.4183V109.822C25.4183 110.653 25.5583 111.273 25.8383 111.684C26.1277 112.095 26.5523 112.3 27.1123 112.3C27.4857 112.3 27.845 112.221 28.1903 112.062C28.545 111.894 28.8577 111.661 29.1283 111.362C29.399 111.054 29.6043 110.699 29.7443 110.298V105.706H30.6963V111.852C30.6963 111.983 30.7243 112.081 30.7803 112.146C30.8363 112.202 30.9203 112.235 31.0323 112.244V113C30.9203 113.009 30.8317 113.014 30.7663 113.014C30.701 113.023 30.6403 113.028 30.5843 113.028C30.3977 113.009 30.2343 112.935 30.0943 112.804C29.9637 112.673 29.8937 112.515 29.8843 112.328L29.8563 111.348C29.539 111.908 29.105 112.347 28.5543 112.664C28.013 112.981 27.425 113.14 26.7903 113.14C26.025 113.14 25.4463 112.874 25.0543 112.342C24.6623 111.81 24.4663 111.026 24.4663 109.99ZM35.9988 113.14C35.4762 113.14 34.9908 113.042 34.5428 112.846C34.0948 112.641 33.7075 112.365 33.3808 112.02C33.0542 111.665 32.7975 111.259 32.6108 110.802C32.4335 110.345 32.3448 109.855 32.3448 109.332C32.3448 108.651 32.4988 108.025 32.8068 107.456C33.1242 106.887 33.5582 106.434 34.1088 106.098C34.6595 105.753 35.2848 105.58 35.9848 105.58C36.7035 105.58 37.3288 105.753 37.8608 106.098C38.4022 106.443 38.8268 106.901 39.1348 107.47C39.4428 108.03 39.5968 108.646 39.5968 109.318C39.5968 109.393 39.5968 109.467 39.5968 109.542C39.5968 109.607 39.5922 109.659 39.5828 109.696H33.3388C33.3855 110.219 33.5302 110.685 33.7728 111.096C34.0248 111.497 34.3468 111.819 34.7388 112.062C35.1402 112.295 35.5742 112.412 36.0408 112.412C36.5168 112.412 36.9648 112.291 37.3848 112.048C37.8142 111.805 38.1128 111.488 38.2808 111.096L39.1068 111.32C38.9575 111.665 38.7288 111.978 38.4208 112.258C38.1128 112.538 37.7488 112.757 37.3288 112.916C36.9182 113.065 36.4748 113.14 35.9988 113.14ZM33.3108 109.01H38.7008C38.6635 108.478 38.5188 108.011 38.2668 107.61C38.0242 107.209 37.7022 106.896 37.3008 106.672C36.9088 106.439 36.4748 106.322 35.9988 106.322C35.5228 106.322 35.0888 106.439 34.6968 106.672C34.3048 106.896 33.9828 107.213 33.7308 107.624C33.4882 108.025 33.3482 108.487 33.3108 109.01ZM43.4596 113.14C42.8623 113.14 42.307 113.042 41.7936 112.846C41.2803 112.65 40.837 112.351 40.4636 111.95L40.8556 111.278C41.2663 111.661 41.677 111.941 42.0876 112.118C42.5076 112.286 42.951 112.37 43.4176 112.37C43.987 112.37 44.449 112.258 44.8036 112.034C45.1583 111.801 45.3356 111.469 45.3356 111.04C45.3356 110.751 45.247 110.531 45.0696 110.382C44.9016 110.223 44.6543 110.097 44.3276 110.004C44.0103 109.901 43.6276 109.794 43.1796 109.682C42.6756 109.542 42.251 109.397 41.9056 109.248C41.5696 109.089 41.313 108.893 41.1356 108.66C40.9676 108.417 40.8836 108.105 40.8836 107.722C40.8836 107.246 41.0003 106.854 41.2336 106.546C41.4763 106.229 41.803 105.991 42.2136 105.832C42.6336 105.664 43.1003 105.58 43.6136 105.58C44.1736 105.58 44.6683 105.669 45.0976 105.846C45.527 106.023 45.877 106.271 46.1476 106.588L45.6856 107.232C45.4243 106.933 45.1116 106.714 44.7476 106.574C44.393 106.425 43.9963 106.35 43.5576 106.35C43.259 106.35 42.9743 106.392 42.7036 106.476C42.433 106.551 42.209 106.681 42.0316 106.868C41.8636 107.045 41.7796 107.293 41.7796 107.61C41.7796 107.871 41.845 108.077 41.9756 108.226C42.1063 108.366 42.3023 108.487 42.5636 108.59C42.825 108.683 43.147 108.786 43.5296 108.898C44.0803 109.047 44.561 109.201 44.9716 109.36C45.3823 109.509 45.6996 109.705 45.9236 109.948C46.1476 110.191 46.2596 110.531 46.2596 110.97C46.2596 111.651 46.003 112.183 45.4896 112.566C44.9763 112.949 44.2996 113.14 43.4596 113.14ZM51.3332 112.65C51.2585 112.678 51.1419 112.729 50.9832 112.804C50.8245 112.879 50.6332 112.944 50.4092 113C50.1852 113.056 49.9425 113.084 49.6812 113.084C49.4105 113.084 49.1539 113.033 48.9112 112.93C48.6779 112.827 48.4912 112.673 48.3512 112.468C48.2112 112.253 48.1412 111.992 48.1412 111.684V106.462H47.1332V105.706H48.1412V103.242H49.0932V105.706H50.7732V106.462H49.0932V111.418C49.1119 111.679 49.2052 111.875 49.3732 112.006C49.5505 112.137 49.7512 112.202 49.9752 112.202C50.2365 112.202 50.4745 112.16 50.6892 112.076C50.9039 111.983 51.0345 111.917 51.0812 111.88L51.3332 112.65ZM52.5227 113V105.706H53.4747V113H52.5227ZM52.5227 104.18V102.78H53.4747V104.18H52.5227ZM58.6795 113.14C58.1568 113.14 57.6715 113.042 57.2235 112.846C56.7848 112.641 56.4022 112.365 56.0755 112.02C55.7582 111.665 55.5108 111.264 55.3335 110.816C55.1562 110.359 55.0675 109.878 55.0675 109.374C55.0675 108.851 55.1562 108.366 55.3335 107.918C55.5108 107.461 55.7628 107.059 56.0895 106.714C56.4162 106.359 56.7988 106.084 57.2375 105.888C57.6855 105.683 58.1708 105.58 58.6935 105.58C59.2162 105.58 59.6968 105.683 60.1355 105.888C60.5742 106.084 60.9568 106.359 61.2835 106.714C61.6102 107.059 61.8622 107.461 62.0395 107.918C62.2168 108.366 62.3055 108.851 62.3055 109.374C62.3055 109.878 62.2168 110.359 62.0395 110.816C61.8622 111.264 61.6102 111.665 61.2835 112.02C60.9662 112.365 60.5835 112.641 60.1355 112.846C59.6968 113.042 59.2115 113.14 58.6795 113.14ZM56.0335 109.388C56.0335 109.929 56.1502 110.424 56.3835 110.872C56.6262 111.311 56.9482 111.661 57.3495 111.922C57.7508 112.174 58.1942 112.3 58.6795 112.3C59.1648 112.3 59.6082 112.169 60.0095 111.908C60.4108 111.647 60.7328 111.292 60.9755 110.844C61.2182 110.387 61.3395 109.892 61.3395 109.36C61.3395 108.819 61.2182 108.324 60.9755 107.876C60.7328 107.428 60.4108 107.073 60.0095 106.812C59.6082 106.551 59.1648 106.42 58.6795 106.42C58.1942 106.42 57.7508 106.555 57.3495 106.826C56.9575 107.097 56.6402 107.456 56.3975 107.904C56.1548 108.343 56.0335 108.837 56.0335 109.388ZM70.0297 113H69.0777V108.926C69.0777 108.067 68.9517 107.442 68.6997 107.05C68.4477 106.649 68.051 106.448 67.5097 106.448C67.1363 106.448 66.7677 106.541 66.4037 106.728C66.0397 106.905 65.7177 107.153 65.4377 107.47C65.167 107.778 64.971 108.133 64.8497 108.534V113H63.8977V105.706H64.7657V107.358C64.9617 107.003 65.2183 106.695 65.5357 106.434C65.853 106.163 66.2123 105.953 66.6137 105.804C67.015 105.655 67.4303 105.58 67.8597 105.58C68.261 105.58 68.6017 105.655 68.8817 105.804C69.1617 105.953 69.3857 106.168 69.5537 106.448C69.7217 106.719 69.843 107.05 69.9177 107.442C69.9923 107.825 70.0297 108.254 70.0297 108.73V113ZM74.4538 113.14C73.8564 113.14 73.3011 113.042 72.7878 112.846C72.2744 112.65 71.8311 112.351 71.4578 111.95L71.8498 111.278C72.2604 111.661 72.6711 111.941 73.0818 112.118C73.5018 112.286 73.9451 112.37 74.4118 112.37C74.9811 112.37 75.4431 112.258 75.7978 112.034C76.1524 111.801 76.3298 111.469 76.3298 111.04C76.3298 110.751 76.2411 110.531 76.0638 110.382C75.8958 110.223 75.6484 110.097 75.3218 110.004C75.0044 109.901 74.6218 109.794 74.1738 109.682C73.6698 109.542 73.2451 109.397 72.8998 109.248C72.5638 109.089 72.3071 108.893 72.1298 108.66C71.9618 108.417 71.8778 108.105 71.8778 107.722C71.8778 107.246 71.9944 106.854 72.2278 106.546C72.4704 106.229 72.7971 105.991 73.2078 105.832C73.6278 105.664 74.0944 105.58 74.6078 105.58C75.1678 105.58 75.6624 105.669 76.0918 105.846C76.5211 106.023 76.8711 106.271 77.1418 106.588L76.6798 107.232C76.4184 106.933 76.1058 106.714 75.7418 106.574C75.3871 106.425 74.9904 106.35 74.5518 106.35C74.2531 106.35 73.9684 106.392 73.6978 106.476C73.4271 106.551 73.2031 106.681 73.0258 106.868C72.8578 107.045 72.7738 107.293 72.7738 107.61C72.7738 107.871 72.8391 108.077 72.9698 108.226C73.1004 108.366 73.2964 108.487 73.5578 108.59C73.8191 108.683 74.1411 108.786 74.5238 108.898C75.0744 109.047 75.5551 109.201 75.9658 109.36C76.3764 109.509 76.6938 109.705 76.9178 109.948C77.1418 110.191 77.2538 110.531 77.2538 110.97C77.2538 111.651 76.9971 112.183 76.4838 112.566C75.9704 112.949 75.2938 113.14 74.4538 113.14ZM78.9813 114.134L79.2193 112.958H78.8973V111.628H79.8213V112.958L79.4713 114.134H78.9813ZM84.9522 110.9C84.9522 110.443 85.0829 110.051 85.3442 109.724C85.6056 109.388 85.9649 109.131 86.4222 108.954C86.8889 108.767 87.4256 108.674 88.0322 108.674C88.3869 108.674 88.7556 108.702 89.1382 108.758C89.5209 108.814 89.8616 108.898 90.1602 109.01V108.394C90.1602 107.778 89.9782 107.288 89.6142 106.924C89.2502 106.56 88.7462 106.378 88.1022 106.378C87.7102 106.378 87.3229 106.453 86.9402 106.602C86.5669 106.742 86.1749 106.952 85.7642 107.232L85.4002 106.56C85.8762 106.233 86.3429 105.991 86.8002 105.832C87.2576 105.664 87.7242 105.58 88.2002 105.58C89.0962 105.58 89.8056 105.837 90.3282 106.35C90.8509 106.863 91.1122 107.573 91.1122 108.478V111.852C91.1122 111.983 91.1402 112.081 91.1962 112.146C91.2522 112.202 91.3409 112.235 91.4622 112.244V113C91.3596 113.009 91.2709 113.019 91.1962 113.028C91.1216 113.037 91.0656 113.037 91.0282 113.028C90.7949 113.019 90.6176 112.944 90.4962 112.804C90.3749 112.664 90.3096 112.515 90.3002 112.356L90.2862 111.824C89.9596 112.244 89.5349 112.571 89.0122 112.804C88.4896 113.028 87.9576 113.14 87.4162 113.14C86.9496 113.14 86.5249 113.042 86.1422 112.846C85.7689 112.641 85.4749 112.37 85.2602 112.034C85.0549 111.689 84.9522 111.311 84.9522 110.9ZM89.8382 111.46C89.9409 111.329 90.0202 111.203 90.0762 111.082C90.1322 110.961 90.1602 110.853 90.1602 110.76V109.696C89.8429 109.575 89.5116 109.481 89.1662 109.416C88.8302 109.351 88.4896 109.318 88.1442 109.318C87.4629 109.318 86.9122 109.453 86.4922 109.724C86.0722 109.995 85.8622 110.363 85.8622 110.83C85.8622 111.101 85.9322 111.357 86.0722 111.6C86.2122 111.833 86.4176 112.029 86.6882 112.188C86.9589 112.337 87.2762 112.412 87.6402 112.412C88.0976 112.412 88.5222 112.323 88.9142 112.146C89.3156 111.969 89.6236 111.74 89.8382 111.46ZM99.3011 113H98.3491V108.926C98.3491 108.067 98.2231 107.442 97.9711 107.05C97.7191 106.649 97.3225 106.448 96.7811 106.448C96.4078 106.448 96.0391 106.541 95.6751 106.728C95.3111 106.905 94.9891 107.153 94.7091 107.47C94.4385 107.778 94.2425 108.133 94.1211 108.534V113H93.1691V105.706H94.0371V107.358C94.2331 107.003 94.4898 106.695 94.8071 106.434C95.1245 106.163 95.4838 105.953 95.8851 105.804C96.2865 105.655 96.7018 105.58 97.1311 105.58C97.5325 105.58 97.8731 105.655 98.1531 105.804C98.4331 105.953 98.6571 106.168 98.8251 106.448C98.9931 106.719 99.1145 107.05 99.1891 107.442C99.2638 107.825 99.3011 108.254 99.3011 108.73V113ZM100.841 109.374C100.841 108.683 100.981 108.053 101.261 107.484C101.551 106.905 101.947 106.443 102.451 106.098C102.955 105.753 103.529 105.58 104.173 105.58C104.78 105.58 105.321 105.743 105.797 106.07C106.283 106.387 106.661 106.775 106.931 107.232V102.78H107.883V111.852C107.883 111.983 107.911 112.081 107.967 112.146C108.023 112.202 108.107 112.235 108.219 112.244V113C108.033 113.028 107.888 113.037 107.785 113.028C107.589 113.019 107.417 112.939 107.267 112.79C107.118 112.641 107.043 112.477 107.043 112.3V111.586C106.754 112.062 106.362 112.44 105.867 112.72C105.373 113 104.859 113.14 104.327 113.14C103.823 113.14 103.357 113.037 102.927 112.832C102.507 112.627 102.139 112.347 101.821 111.992C101.513 111.637 101.271 111.236 101.093 110.788C100.925 110.331 100.841 109.859 100.841 109.374ZM106.931 110.494V108.24C106.81 107.904 106.614 107.601 106.343 107.33C106.073 107.05 105.765 106.831 105.419 106.672C105.083 106.504 104.747 106.42 104.411 106.42C104.019 106.42 103.665 106.504 103.347 106.672C103.03 106.831 102.755 107.05 102.521 107.33C102.297 107.61 102.125 107.927 102.003 108.282C101.882 108.637 101.821 109.001 101.821 109.374C101.821 109.766 101.887 110.139 102.017 110.494C102.157 110.849 102.353 111.166 102.605 111.446C102.857 111.717 103.147 111.927 103.473 112.076C103.8 112.225 104.155 112.3 104.537 112.3C104.78 112.3 105.032 112.253 105.293 112.16C105.555 112.067 105.802 111.941 106.035 111.782C106.278 111.614 106.479 111.418 106.637 111.194C106.796 110.97 106.894 110.737 106.931 110.494ZM119.615 104.922C119.475 104.763 119.311 104.623 119.125 104.502C118.938 104.371 118.728 104.259 118.495 104.166C118.261 104.073 118.009 103.998 117.739 103.942C117.477 103.886 117.197 103.858 116.899 103.858C116.031 103.858 115.391 104.026 114.981 104.362C114.579 104.689 114.379 105.137 114.379 105.706C114.379 106.098 114.472 106.406 114.659 106.63C114.855 106.854 115.158 107.036 115.569 107.176C115.979 107.316 116.502 107.461 117.137 107.61C117.846 107.759 118.457 107.937 118.971 108.142C119.484 108.347 119.881 108.627 120.161 108.982C120.441 109.327 120.581 109.799 120.581 110.396C120.581 110.853 120.492 111.25 120.315 111.586C120.137 111.922 119.89 112.202 119.573 112.426C119.255 112.65 118.877 112.818 118.439 112.93C118 113.033 117.519 113.084 116.997 113.084C116.483 113.084 115.989 113.033 115.513 112.93C115.046 112.818 114.603 112.659 114.183 112.454C113.763 112.239 113.371 111.969 113.007 111.642L113.497 110.844C113.674 111.031 113.884 111.208 114.127 111.376C114.379 111.535 114.654 111.679 114.953 111.81C115.261 111.941 115.587 112.043 115.933 112.118C116.287 112.183 116.651 112.216 117.025 112.216C117.818 112.216 118.434 112.071 118.873 111.782C119.321 111.493 119.545 111.063 119.545 110.494C119.545 110.083 119.433 109.757 119.209 109.514C118.985 109.262 118.649 109.057 118.201 108.898C117.753 108.739 117.202 108.585 116.549 108.436C115.858 108.277 115.275 108.1 114.799 107.904C114.323 107.708 113.963 107.451 113.721 107.134C113.487 106.807 113.371 106.378 113.371 105.846C113.371 105.23 113.52 104.712 113.819 104.292C114.127 103.863 114.547 103.541 115.079 103.326C115.611 103.102 116.222 102.99 116.913 102.99C117.351 102.99 117.757 103.037 118.131 103.13C118.513 103.214 118.863 103.34 119.181 103.508C119.507 103.676 119.811 103.886 120.091 104.138L119.615 104.922ZM128.245 113H127.293V108.926C127.293 108.105 127.148 107.489 126.859 107.078C126.569 106.658 126.154 106.448 125.613 106.448C125.258 106.448 124.903 106.541 124.549 106.728C124.203 106.905 123.895 107.153 123.625 107.47C123.363 107.778 123.177 108.133 123.065 108.534V113H122.113V102.78H123.065V107.358C123.354 106.817 123.755 106.387 124.269 106.07C124.791 105.743 125.347 105.58 125.935 105.58C126.355 105.58 126.709 105.655 126.999 105.804C127.297 105.953 127.535 106.173 127.713 106.462C127.899 106.742 128.035 107.073 128.119 107.456C128.203 107.829 128.245 108.254 128.245 108.73V113ZM129.687 110.9C129.687 110.443 129.817 110.051 130.079 109.724C130.34 109.388 130.699 109.131 131.157 108.954C131.623 108.767 132.16 108.674 132.767 108.674C133.121 108.674 133.49 108.702 133.873 108.758C134.255 108.814 134.596 108.898 134.895 109.01V108.394C134.895 107.778 134.713 107.288 134.349 106.924C133.985 106.56 133.481 106.378 132.837 106.378C132.445 106.378 132.057 106.453 131.675 106.602C131.301 106.742 130.909 106.952 130.499 107.232L130.135 106.56C130.611 106.233 131.077 105.991 131.535 105.832C131.992 105.664 132.459 105.58 132.935 105.58C133.831 105.58 134.54 105.837 135.063 106.35C135.585 106.863 135.847 107.573 135.847 108.478V111.852C135.847 111.983 135.875 112.081 135.931 112.146C135.987 112.202 136.075 112.235 136.197 112.244V113C136.094 113.009 136.005 113.019 135.931 113.028C135.856 113.037 135.8 113.037 135.763 113.028C135.529 113.019 135.352 112.944 135.231 112.804C135.109 112.664 135.044 112.515 135.035 112.356L135.021 111.824C134.694 112.244 134.269 112.571 133.747 112.804C133.224 113.028 132.692 113.14 132.151 113.14C131.684 113.14 131.259 113.042 130.877 112.846C130.503 112.641 130.209 112.37 129.995 112.034C129.789 111.689 129.687 111.311 129.687 110.9ZM134.573 111.46C134.675 111.329 134.755 111.203 134.811 111.082C134.867 110.961 134.895 110.853 134.895 110.76V109.696C134.577 109.575 134.246 109.481 133.901 109.416C133.565 109.351 133.224 109.318 132.879 109.318C132.197 109.318 131.647 109.453 131.227 109.724C130.807 109.995 130.597 110.363 130.597 110.83C130.597 111.101 130.667 111.357 130.807 111.6C130.947 111.833 131.152 112.029 131.423 112.188C131.693 112.337 132.011 112.412 132.375 112.412C132.832 112.412 133.257 112.323 133.649 112.146C134.05 111.969 134.358 111.74 134.573 111.46ZM141.544 106.546C140.909 106.565 140.349 106.742 139.864 107.078C139.388 107.414 139.052 107.876 138.856 108.464V113H137.904V105.706H138.8V107.456C139.052 106.943 139.383 106.527 139.794 106.21C140.214 105.893 140.657 105.715 141.124 105.678C141.217 105.669 141.296 105.664 141.362 105.664C141.436 105.664 141.497 105.669 141.544 105.678V106.546ZM145.729 113.14C145.207 113.14 144.721 113.042 144.273 112.846C143.825 112.641 143.438 112.365 143.111 112.02C142.785 111.665 142.528 111.259 142.341 110.802C142.164 110.345 142.075 109.855 142.075 109.332C142.075 108.651 142.229 108.025 142.537 107.456C142.855 106.887 143.289 106.434 143.839 106.098C144.39 105.753 145.015 105.58 145.715 105.58C146.434 105.58 147.059 105.753 147.591 106.098C148.133 106.443 148.557 106.901 148.865 107.47C149.173 108.03 149.327 108.646 149.327 109.318C149.327 109.393 149.327 109.467 149.327 109.542C149.327 109.607 149.323 109.659 149.313 109.696H143.069C143.116 110.219 143.261 110.685 143.503 111.096C143.755 111.497 144.077 111.819 144.469 112.062C144.871 112.295 145.305 112.412 145.771 112.412C146.247 112.412 146.695 112.291 147.115 112.048C147.545 111.805 147.843 111.488 148.011 111.096L148.837 111.32C148.688 111.665 148.459 111.978 148.151 112.258C147.843 112.538 147.479 112.757 147.059 112.916C146.649 113.065 146.205 113.14 145.729 113.14ZM143.041 109.01H148.431C148.394 108.478 148.249 108.011 147.997 107.61C147.755 107.209 147.433 106.896 147.031 106.672C146.639 106.439 146.205 106.322 145.729 106.322C145.253 106.322 144.819 106.439 144.427 106.672C144.035 106.896 143.713 107.213 143.461 107.624C143.219 108.025 143.079 108.487 143.041 109.01ZM154.124 103.06L157.372 108.408L160.648 103.06H161.712L157.862 109.304V113H156.882V109.276L153.046 103.06H154.124ZM164.814 113.14C164.292 113.14 163.806 113.042 163.358 112.846C162.92 112.641 162.537 112.365 162.21 112.02C161.893 111.665 161.646 111.264 161.468 110.816C161.291 110.359 161.202 109.878 161.202 109.374C161.202 108.851 161.291 108.366 161.468 107.918C161.646 107.461 161.898 107.059 162.224 106.714C162.551 106.359 162.934 106.084 163.372 105.888C163.82 105.683 164.306 105.58 164.828 105.58C165.351 105.58 165.832 105.683 166.27 105.888C166.709 106.084 167.092 106.359 167.418 106.714C167.745 107.059 167.997 107.461 168.174 107.918C168.352 108.366 168.44 108.851 168.44 109.374C168.44 109.878 168.352 110.359 168.174 110.816C167.997 111.264 167.745 111.665 167.418 112.02C167.101 112.365 166.718 112.641 166.27 112.846C165.832 113.042 165.346 113.14 164.814 113.14ZM162.168 109.388C162.168 109.929 162.285 110.424 162.518 110.872C162.761 111.311 163.083 111.661 163.484 111.922C163.886 112.174 164.329 112.3 164.814 112.3C165.3 112.3 165.743 112.169 166.144 111.908C166.546 111.647 166.868 111.292 167.11 110.844C167.353 110.387 167.474 109.892 167.474 109.36C167.474 108.819 167.353 108.324 167.11 107.876C166.868 107.428 166.546 107.073 166.144 106.812C165.743 106.551 165.3 106.42 164.814 106.42C164.329 106.42 163.886 106.555 163.484 106.826C163.092 107.097 162.775 107.456 162.532 107.904C162.29 108.343 162.168 108.837 162.168 109.388ZM169.962 109.99V105.706H170.914V109.822C170.914 110.653 171.054 111.273 171.334 111.684C171.624 112.095 172.048 112.3 172.608 112.3C172.982 112.3 173.341 112.221 173.686 112.062C174.041 111.894 174.354 111.661 174.624 111.362C174.895 111.054 175.1 110.699 175.24 110.298V105.706H176.192V111.852C176.192 111.983 176.22 112.081 176.276 112.146C176.332 112.202 176.416 112.235 176.528 112.244V113C176.416 113.009 176.328 113.014 176.262 113.014C176.197 113.023 176.136 113.028 176.08 113.028C175.894 113.009 175.73 112.935 175.59 112.804C175.46 112.673 175.39 112.515 175.38 112.328L175.352 111.348C175.035 111.908 174.601 112.347 174.05 112.664C173.509 112.981 172.921 113.14 172.286 113.14C171.521 113.14 170.942 112.874 170.55 112.342C170.158 111.81 169.962 111.026 169.962 109.99ZM181.985 106.546C181.35 106.565 180.79 106.742 180.305 107.078C179.829 107.414 179.493 107.876 179.297 108.464V113H178.345V105.706H179.241V107.456C179.493 106.943 179.824 106.527 180.235 106.21C180.655 105.893 181.098 105.715 181.565 105.678C181.658 105.669 181.738 105.664 181.803 105.664C181.878 105.664 181.938 105.669 181.985 105.678V106.546ZM20.056 120.922C19.916 120.763 19.7527 120.623 19.566 120.502C19.3793 120.371 19.1693 120.259 18.936 120.166C18.7027 120.073 18.4507 119.998 18.18 119.942C17.9187 119.886 17.6387 119.858 17.34 119.858C16.472 119.858 15.8327 120.026 15.422 120.362C15.0207 120.689 14.82 121.137 14.82 121.706C14.82 122.098 14.9133 122.406 15.1 122.63C15.296 122.854 15.5993 123.036 16.01 123.176C16.4207 123.316 16.9433 123.461 17.578 123.61C18.2873 123.759 18.8987 123.937 19.412 124.142C19.9253 124.347 20.322 124.627 20.602 124.982C20.882 125.327 21.022 125.799 21.022 126.396C21.022 126.853 20.9333 127.25 20.756 127.586C20.5787 127.922 20.3313 128.202 20.014 128.426C19.6967 128.65 19.3187 128.818 18.88 128.93C18.4413 129.033 17.9607 129.084 17.438 129.084C16.9247 129.084 16.43 129.033 15.954 128.93C15.4873 128.818 15.044 128.659 14.624 128.454C14.204 128.239 13.812 127.969 13.448 127.642L13.938 126.844C14.1153 127.031 14.3253 127.208 14.568 127.376C14.82 127.535 15.0953 127.679 15.394 127.81C15.702 127.941 16.0287 128.043 16.374 128.118C16.7287 128.183 17.0927 128.216 17.466 128.216C18.2593 128.216 18.8753 128.071 19.314 127.782C19.762 127.493 19.986 127.063 19.986 126.494C19.986 126.083 19.874 125.757 19.65 125.514C19.426 125.262 19.09 125.057 18.642 124.898C18.194 124.739 17.6433 124.585 16.99 124.436C16.2993 124.277 15.716 124.1 15.24 123.904C14.764 123.708 14.4047 123.451 14.162 123.134C13.9287 122.807 13.812 122.378 13.812 121.846C13.812 121.23 13.9613 120.712 14.26 120.292C14.568 119.863 14.988 119.541 15.52 119.326C16.052 119.102 16.6633 118.99 17.354 118.99C17.7927 118.99 18.1987 119.037 18.572 119.13C18.9547 119.214 19.3047 119.34 19.622 119.508C19.9487 119.676 20.252 119.886 20.532 120.138L20.056 120.922ZM22.4839 125.99V121.706H23.4359V125.822C23.4359 126.653 23.5759 127.273 23.8559 127.684C24.1452 128.095 24.5699 128.3 25.1299 128.3C25.5032 128.3 25.8626 128.221 26.2079 128.062C26.5626 127.894 26.8752 127.661 27.1459 127.362C27.4166 127.054 27.6219 126.699 27.7619 126.298V121.706H28.7139V127.852C28.7139 127.983 28.7419 128.081 28.7979 128.146C28.8539 128.202 28.9379 128.235 29.0499 128.244V129C28.9379 129.009 28.8492 129.014 28.7839 129.014C28.7186 129.023 28.6579 129.028 28.6019 129.028C28.4152 129.009 28.2519 128.935 28.1119 128.804C27.9812 128.673 27.9112 128.515 27.9019 128.328L27.8739 127.348C27.5566 127.908 27.1226 128.347 26.5719 128.664C26.0306 128.981 25.4426 129.14 24.8079 129.14C24.0426 129.14 23.4639 128.874 23.0719 128.342C22.6799 127.81 22.4839 127.026 22.4839 125.99ZM34.0304 129.14C33.4984 129.14 33.0084 129.042 32.5604 128.846C32.1217 128.641 31.7344 128.361 31.3984 128.006C31.0717 127.651 30.8151 127.245 30.6284 126.788C30.4511 126.331 30.3624 125.845 30.3624 125.332C30.3624 124.641 30.5164 124.011 30.8244 123.442C31.1324 122.873 31.5617 122.42 32.1124 122.084C32.6631 121.748 33.2977 121.58 34.0164 121.58C34.6977 121.58 35.2997 121.739 35.8224 122.056C36.3451 122.364 36.7324 122.784 36.9844 123.316L36.0604 123.61C35.8551 123.237 35.5657 122.947 35.1924 122.742C34.8284 122.527 34.4224 122.42 33.9744 122.42C33.4891 122.42 33.0457 122.546 32.6444 122.798C32.2431 123.05 31.9211 123.395 31.6784 123.834C31.4451 124.273 31.3284 124.772 31.3284 125.332C31.3284 125.883 31.4497 126.382 31.6924 126.83C31.9351 127.278 32.2571 127.637 32.6584 127.908C33.0597 128.169 33.5031 128.3 33.9884 128.3C34.3057 128.3 34.6091 128.244 34.8984 128.132C35.1971 128.02 35.4537 127.871 35.6684 127.684C35.8924 127.488 36.0417 127.278 36.1164 127.054L37.0544 127.334C36.9237 127.679 36.7044 127.992 36.3964 128.272C36.0977 128.543 35.7431 128.757 35.3324 128.916C34.9311 129.065 34.4971 129.14 34.0304 129.14ZM41.6456 129.14C41.1136 129.14 40.6236 129.042 40.1756 128.846C39.737 128.641 39.3496 128.361 39.0136 128.006C38.687 127.651 38.4303 127.245 38.2436 126.788C38.0663 126.331 37.9776 125.845 37.9776 125.332C37.9776 124.641 38.1316 124.011 38.4396 123.442C38.7476 122.873 39.177 122.42 39.7276 122.084C40.2783 121.748 40.913 121.58 41.6316 121.58C42.313 121.58 42.915 121.739 43.4376 122.056C43.9603 122.364 44.3476 122.784 44.5996 123.316L43.6756 123.61C43.4703 123.237 43.181 122.947 42.8076 122.742C42.4436 122.527 42.0376 122.42 41.5896 122.42C41.1043 122.42 40.661 122.546 40.2596 122.798C39.8583 123.05 39.5363 123.395 39.2936 123.834C39.0603 124.273 38.9436 124.772 38.9436 125.332C38.9436 125.883 39.065 126.382 39.3076 126.83C39.5503 127.278 39.8723 127.637 40.2736 127.908C40.675 128.169 41.1183 128.3 41.6036 128.3C41.921 128.3 42.2243 128.244 42.5136 128.132C42.8123 128.02 43.069 127.871 43.2836 127.684C43.5076 127.488 43.657 127.278 43.7316 127.054L44.6696 127.334C44.539 127.679 44.3196 127.992 44.0116 128.272C43.713 128.543 43.3583 128.757 42.9476 128.916C42.5463 129.065 42.1123 129.14 41.6456 129.14ZM49.2469 129.14C48.7242 129.14 48.2389 129.042 47.7909 128.846C47.3429 128.641 46.9555 128.365 46.6289 128.02C46.3022 127.665 46.0455 127.259 45.8589 126.802C45.6815 126.345 45.5929 125.855 45.5929 125.332C45.5929 124.651 45.7469 124.025 46.0549 123.456C46.3722 122.887 46.8062 122.434 47.3569 122.098C47.9075 121.753 48.5329 121.58 49.2329 121.58C49.9515 121.58 50.5769 121.753 51.1089 122.098C51.6502 122.443 52.0749 122.901 52.3829 123.47C52.6909 124.03 52.8449 124.646 52.8449 125.318C52.8449 125.393 52.8449 125.467 52.8449 125.542C52.8449 125.607 52.8402 125.659 52.8309 125.696H46.5869C46.6335 126.219 46.7782 126.685 47.0209 127.096C47.2729 127.497 47.5949 127.819 47.9869 128.062C48.3882 128.295 48.8222 128.412 49.2889 128.412C49.7649 128.412 50.2129 128.291 50.6329 128.048C51.0622 127.805 51.3609 127.488 51.5289 127.096L52.3549 127.32C52.2055 127.665 51.9769 127.978 51.6689 128.258C51.3609 128.538 50.9969 128.757 50.5769 128.916C50.1662 129.065 49.7229 129.14 49.2469 129.14ZM46.5589 125.01H51.9489C51.9115 124.478 51.7669 124.011 51.5149 123.61C51.2722 123.209 50.9502 122.896 50.5489 122.672C50.1569 122.439 49.7229 122.322 49.2469 122.322C48.7709 122.322 48.3369 122.439 47.9449 122.672C47.5529 122.896 47.2309 123.213 46.9789 123.624C46.7362 124.025 46.5962 124.487 46.5589 125.01ZM56.7077 129.14C56.1103 129.14 55.555 129.042 55.0417 128.846C54.5283 128.65 54.085 128.351 53.7117 127.95L54.1037 127.278C54.5143 127.661 54.925 127.941 55.3357 128.118C55.7557 128.286 56.199 128.37 56.6657 128.37C57.235 128.37 57.697 128.258 58.0517 128.034C58.4063 127.801 58.5837 127.469 58.5837 127.04C58.5837 126.751 58.495 126.531 58.3177 126.382C58.1497 126.223 57.9023 126.097 57.5757 126.004C57.2583 125.901 56.8757 125.794 56.4277 125.682C55.9237 125.542 55.499 125.397 55.1537 125.248C54.8177 125.089 54.561 124.893 54.3837 124.66C54.2157 124.417 54.1317 124.105 54.1317 123.722C54.1317 123.246 54.2483 122.854 54.4817 122.546C54.7243 122.229 55.051 121.991 55.4617 121.832C55.8817 121.664 56.3483 121.58 56.8617 121.58C57.4217 121.58 57.9163 121.669 58.3457 121.846C58.775 122.023 59.125 122.271 59.3957 122.588L58.9337 123.232C58.6723 122.933 58.3597 122.714 57.9957 122.574C57.641 122.425 57.2443 122.35 56.8057 122.35C56.507 122.35 56.2223 122.392 55.9517 122.476C55.681 122.551 55.457 122.681 55.2797 122.868C55.1117 123.045 55.0277 123.293 55.0277 123.61C55.0277 123.871 55.093 124.077 55.2237 124.226C55.3543 124.366 55.5503 124.487 55.8117 124.59C56.073 124.683 56.395 124.786 56.7777 124.898C57.3283 125.047 57.809 125.201 58.2197 125.36C58.6303 125.509 58.9477 125.705 59.1717 125.948C59.3957 126.191 59.5077 126.531 59.5077 126.97C59.5077 127.651 59.251 128.183 58.7377 128.566C58.2243 128.949 57.5477 129.14 56.7077 129.14ZM63.4753 129.14C62.8779 129.14 62.3226 129.042 61.8093 128.846C61.2959 128.65 60.8526 128.351 60.4793 127.95L60.8713 127.278C61.2819 127.661 61.6926 127.941 62.1033 128.118C62.5233 128.286 62.9666 128.37 63.4333 128.37C64.0026 128.37 64.4646 128.258 64.8193 128.034C65.1739 127.801 65.3513 127.469 65.3513 127.04C65.3513 126.751 65.2626 126.531 65.0853 126.382C64.9173 126.223 64.6699 126.097 64.3433 126.004C64.0259 125.901 63.6433 125.794 63.1953 125.682C62.6913 125.542 62.2666 125.397 61.9213 125.248C61.5853 125.089 61.3286 124.893 61.1513 124.66C60.9833 124.417 60.8993 124.105 60.8993 123.722C60.8993 123.246 61.0159 122.854 61.2493 122.546C61.4919 122.229 61.8186 121.991 62.2293 121.832C62.6493 121.664 63.1159 121.58 63.6292 121.58C64.1893 121.58 64.6839 121.669 65.1133 121.846C65.5426 122.023 65.8926 122.271 66.1633 122.588L65.7013 123.232C65.4399 122.933 65.1273 122.714 64.7633 122.574C64.4086 122.425 64.0119 122.35 63.5733 122.35C63.2746 122.35 62.9899 122.392 62.7193 122.476C62.4486 122.551 62.2246 122.681 62.0473 122.868C61.8793 123.045 61.7953 123.293 61.7953 123.61C61.7953 123.871 61.8606 124.077 61.9913 124.226C62.1219 124.366 62.3179 124.487 62.5793 124.59C62.8406 124.683 63.1626 124.786 63.5453 124.898C64.0959 125.047 64.5766 125.201 64.9873 125.36C65.3979 125.509 65.7153 125.705 65.9393 125.948C66.1633 126.191 66.2753 126.531 66.2753 126.97C66.2753 127.651 66.0186 128.183 65.5053 128.566C64.9919 128.949 64.3153 129.14 63.4753 129.14ZM77.4232 120.922C77.2832 120.763 77.1199 120.623 76.9332 120.502C76.7465 120.371 76.5365 120.259 76.3032 120.166C76.0699 120.073 75.8179 119.998 75.5472 119.942C75.2859 119.886 75.0059 119.858 74.7072 119.858C73.8392 119.858 73.1999 120.026 72.7892 120.362C72.3879 120.689 72.1872 121.137 72.1872 121.706C72.1872 122.098 72.2805 122.406 72.4672 122.63C72.6632 122.854 72.9665 123.036 73.3772 123.176C73.7879 123.316 74.3105 123.461 74.9452 123.61C75.6545 123.759 76.2659 123.937 76.7792 124.142C77.2925 124.347 77.6892 124.627 77.9692 124.982C78.2492 125.327 78.3892 125.799 78.3892 126.396C78.3892 126.853 78.3005 127.25 78.1232 127.586C77.9459 127.922 77.6985 128.202 77.3812 128.426C77.0639 128.65 76.6859 128.818 76.2472 128.93C75.8085 129.033 75.3279 129.084 74.8052 129.084C74.2919 129.084 73.7972 129.033 73.3212 128.93C72.8545 128.818 72.4112 128.659 71.9912 128.454C71.5712 128.239 71.1792 127.969 70.8152 127.642L71.3052 126.844C71.4825 127.031 71.6925 127.208 71.9352 127.376C72.1872 127.535 72.4625 127.679 72.7612 127.81C73.0692 127.941 73.3959 128.043 73.7412 128.118C74.0959 128.183 74.4599 128.216 74.8332 128.216C75.6265 128.216 76.2425 128.071 76.6812 127.782C77.1292 127.493 77.3532 127.063 77.3532 126.494C77.3532 126.083 77.2412 125.757 77.0172 125.514C76.7932 125.262 76.4572 125.057 76.0092 124.898C75.5612 124.739 75.0105 124.585 74.3572 124.436C73.6665 124.277 73.0832 124.1 72.6072 123.904C72.1312 123.708 71.7719 123.451 71.5292 123.134C71.2959 122.807 71.1792 122.378 71.1792 121.846C71.1792 121.23 71.3285 120.712 71.6272 120.292C71.9352 119.863 72.3552 119.541 72.8872 119.326C73.4192 119.102 74.0305 118.99 74.7212 118.99C75.1599 118.99 75.5659 119.037 75.9392 119.13C76.3219 119.214 76.6719 119.34 76.9892 119.508C77.3159 119.676 77.6192 119.886 77.8992 120.138L77.4232 120.922ZM83.298 128.65C83.2234 128.678 83.1067 128.729 82.948 128.804C82.7894 128.879 82.598 128.944 82.374 129C82.15 129.056 81.9074 129.084 81.646 129.084C81.3754 129.084 81.1187 129.033 80.876 128.93C80.6427 128.827 80.456 128.673 80.316 128.468C80.176 128.253 80.106 127.992 80.106 127.684V122.462H79.098V121.706H80.106V119.242H81.058V121.706H82.738V122.462H81.058V127.418C81.0767 127.679 81.17 127.875 81.338 128.006C81.5154 128.137 81.716 128.202 81.94 128.202C82.2014 128.202 82.4394 128.16 82.654 128.076C82.8687 127.983 82.9994 127.917 83.046 127.88L83.298 128.65ZM87.4725 129.14C86.9498 129.14 86.4645 129.042 86.0165 128.846C85.5778 128.641 85.1951 128.365 84.8685 128.02C84.5511 127.665 84.3038 127.264 84.1265 126.816C83.9491 126.359 83.8605 125.878 83.8605 125.374C83.8605 124.851 83.9491 124.366 84.1265 123.918C84.3038 123.461 84.5558 123.059 84.8825 122.714C85.2091 122.359 85.5918 122.084 86.0305 121.888C86.4785 121.683 86.9638 121.58 87.4865 121.58C88.0091 121.58 88.4898 121.683 88.9285 121.888C89.3671 122.084 89.7498 122.359 90.0765 122.714C90.4031 123.059 90.6551 123.461 90.8325 123.918C91.0098 124.366 91.0985 124.851 91.0985 125.374C91.0985 125.878 91.0098 126.359 90.8325 126.816C90.6551 127.264 90.4031 127.665 90.0765 128.02C89.7591 128.365 89.3765 128.641 88.9285 128.846C88.4898 129.042 88.0045 129.14 87.4725 129.14ZM84.8265 125.388C84.8265 125.929 84.9431 126.424 85.1765 126.872C85.4191 127.311 85.7411 127.661 86.1425 127.922C86.5438 128.174 86.9871 128.3 87.4725 128.3C87.9578 128.3 88.4011 128.169 88.8025 127.908C89.2038 127.647 89.5258 127.292 89.7685 126.844C90.0111 126.387 90.1325 125.892 90.1325 125.36C90.1325 124.819 90.0111 124.324 89.7685 123.876C89.5258 123.428 89.2038 123.073 88.8025 122.812C88.4011 122.551 87.9578 122.42 87.4725 122.42C86.9871 122.42 86.5438 122.555 86.1425 122.826C85.7505 123.097 85.4331 123.456 85.1905 123.904C84.9478 124.343 84.8265 124.837 84.8265 125.388ZM96.3306 122.546C95.696 122.565 95.136 122.742 94.6506 123.078C94.1746 123.414 93.8386 123.876 93.6426 124.464V129H92.6906V121.706H93.5866V123.456C93.8386 122.943 94.17 122.527 94.5806 122.21C95.0006 121.893 95.444 121.715 95.9106 121.678C96.004 121.669 96.0833 121.664 96.1486 121.664C96.2233 121.664 96.284 121.669 96.3306 121.678V122.546ZM97.5988 129V121.706H98.5508V129H97.5988ZM97.5988 120.18V118.78H98.5508V120.18H97.5988ZM103.798 129.14C103.275 129.14 102.79 129.042 102.342 128.846C101.894 128.641 101.506 128.365 101.18 128.02C100.853 127.665 100.596 127.259 100.41 126.802C100.232 126.345 100.144 125.855 100.144 125.332C100.144 124.651 100.298 124.025 100.606 123.456C100.923 122.887 101.357 122.434 101.908 122.098C102.458 121.753 103.084 121.58 103.784 121.58C104.502 121.58 105.128 121.753 105.66 122.098C106.201 122.443 106.626 122.901 106.934 123.47C107.242 124.03 107.396 124.646 107.396 125.318C107.396 125.393 107.396 125.467 107.396 125.542C107.396 125.607 107.391 125.659 107.382 125.696H101.138C101.184 126.219 101.329 126.685 101.572 127.096C101.824 127.497 102.146 127.819 102.538 128.062C102.939 128.295 103.373 128.412 103.84 128.412C104.316 128.412 104.764 128.291 105.184 128.048C105.613 127.805 105.912 127.488 106.08 127.096L106.906 127.32C106.756 127.665 106.528 127.978 106.22 128.258C105.912 128.538 105.548 128.757 105.128 128.916C104.717 129.065 104.274 129.14 103.798 129.14ZM101.11 125.01H106.5C106.462 124.478 106.318 124.011 106.066 123.61C105.823 123.209 105.501 122.896 105.1 122.672C104.708 122.439 104.274 122.322 103.798 122.322C103.322 122.322 102.888 122.439 102.496 122.672C102.104 122.896 101.782 123.213 101.53 123.624C101.287 124.025 101.147 124.487 101.11 125.01ZM111.258 129.14C110.661 129.14 110.106 129.042 109.592 128.846C109.079 128.65 108.636 128.351 108.262 127.95L108.654 127.278C109.065 127.661 109.476 127.941 109.886 128.118C110.306 128.286 110.75 128.37 111.216 128.37C111.786 128.37 112.248 128.258 112.602 128.034C112.957 127.801 113.134 127.469 113.134 127.04C113.134 126.751 113.046 126.531 112.868 126.382C112.7 126.223 112.453 126.097 112.126 126.004C111.809 125.901 111.426 125.794 110.978 125.682C110.474 125.542 110.05 125.397 109.704 125.248C109.368 125.089 109.112 124.893 108.934 124.66C108.766 124.417 108.682 124.105 108.682 123.722C108.682 123.246 108.799 122.854 109.032 122.546C109.275 122.229 109.602 121.991 110.012 121.832C110.432 121.664 110.899 121.58 111.412 121.58C111.972 121.58 112.467 121.669 112.896 121.846C113.326 122.023 113.676 122.271 113.946 122.588L113.484 123.232C113.223 122.933 112.91 122.714 112.546 122.574C112.192 122.425 111.795 122.35 111.356 122.35C111.058 122.35 110.773 122.392 110.502 122.476C110.232 122.551 110.008 122.681 109.83 122.868C109.662 123.045 109.578 123.293 109.578 123.61C109.578 123.871 109.644 124.077 109.774 124.226C109.905 124.366 110.101 124.487 110.362 124.59C110.624 124.683 110.946 124.786 111.328 124.898C111.879 125.047 112.36 125.201 112.77 125.36C113.181 125.509 113.498 125.705 113.722 125.948C113.946 126.191 114.058 126.531 114.058 126.97C114.058 127.651 113.802 128.183 113.288 128.566C112.775 128.949 112.098 129.14 111.258 129.14ZM115.492 129V127.628H116.318V129H115.492Z" fill="#00563E"/>
<rect x="23" y="168" width="143" height="34" rx="11" fill="white"/>
<path d="M42.403 182.32C42.403 181.757 42.5027 181.206 42.702 180.669C42.91 180.123 43.209 179.629 43.599 179.187C43.989 178.736 44.4657 178.381 45.029 178.121C45.5923 177.852 46.2337 177.718 46.953 177.718C47.8023 177.718 48.5347 177.904 49.15 178.277C49.774 178.65 50.2377 179.135 50.541 179.733L49.163 180.682C49.007 180.335 48.8033 180.062 48.552 179.863C48.3007 179.655 48.032 179.512 47.746 179.434C47.46 179.347 47.1783 179.304 46.901 179.304C46.4503 179.304 46.056 179.395 45.718 179.577C45.3887 179.759 45.1113 179.997 44.886 180.292C44.6607 180.587 44.4917 180.916 44.379 181.28C44.275 181.644 44.223 182.008 44.223 182.372C44.223 182.779 44.288 183.174 44.418 183.555C44.548 183.928 44.73 184.261 44.964 184.556C45.2067 184.842 45.4927 185.072 45.822 185.245C46.16 185.41 46.5283 185.492 46.927 185.492C47.213 185.492 47.5033 185.444 47.798 185.349C48.0927 185.254 48.3657 185.102 48.617 184.894C48.8683 184.686 49.0633 184.417 49.202 184.088L50.671 184.933C50.489 185.392 50.19 185.782 49.774 186.103C49.3667 186.424 48.9073 186.666 48.396 186.831C47.8847 186.996 47.3777 187.078 46.875 187.078C46.2163 187.078 45.614 186.944 45.068 186.675C44.522 186.398 44.0497 186.034 43.651 185.583C43.261 185.124 42.9533 184.612 42.728 184.049C42.5113 183.477 42.403 182.901 42.403 182.32ZM55.7611 181.696C55.2324 181.696 54.7601 181.8 54.3441 182.008C53.9281 182.207 53.6291 182.498 53.4471 182.879V187H51.7051V180.188H53.3041V181.644C53.5468 181.176 53.8544 180.808 54.2271 180.539C54.5998 180.27 54.9941 180.123 55.4101 180.097C55.5054 180.097 55.5791 180.097 55.6311 180.097C55.6831 180.097 55.7264 180.101 55.7611 180.11V181.696ZM59.8026 187.13C59.2566 187.13 58.7626 187.039 58.3206 186.857C57.8786 186.666 57.5016 186.411 57.1896 186.09C56.8776 185.761 56.6349 185.388 56.4616 184.972C56.2969 184.547 56.2146 184.101 56.2146 183.633C56.2146 182.983 56.3576 182.389 56.6436 181.852C56.9383 181.315 57.3543 180.886 57.8916 180.565C58.4376 180.236 59.0789 180.071 59.8156 180.071C60.5609 180.071 61.1979 180.236 61.7266 180.565C62.2553 180.886 62.6583 181.315 62.9356 181.852C63.2216 182.381 63.3646 182.953 63.3646 183.568C63.3646 183.672 63.3603 183.78 63.3516 183.893C63.3429 183.997 63.3343 184.084 63.3256 184.153H58.0606C58.0953 184.5 58.1949 184.803 58.3596 185.063C58.5329 185.323 58.7496 185.522 59.0096 185.661C59.2783 185.791 59.5643 185.856 59.8676 185.856C60.2143 185.856 60.5393 185.774 60.8426 185.609C61.1546 185.436 61.3669 185.21 61.4796 184.933L62.9746 185.349C62.8099 185.696 62.5716 186.003 62.2596 186.272C61.9563 186.541 61.5966 186.753 61.1806 186.909C60.7646 187.056 60.3053 187.13 59.8026 187.13ZM58.0216 183.048H61.5836C61.5489 182.701 61.4493 182.402 61.2846 182.151C61.1286 181.891 60.9206 181.692 60.6606 181.553C60.4006 181.406 60.1103 181.332 59.7896 181.332C59.4776 181.332 59.1916 181.406 58.9316 181.553C58.6803 181.692 58.4723 181.891 58.3076 182.151C58.1516 182.402 58.0563 182.701 58.0216 183.048ZM63.9578 184.985C63.9578 184.543 64.0791 184.157 64.3218 183.828C64.5731 183.49 64.9198 183.23 65.3618 183.048C65.8038 182.866 66.3108 182.775 66.8828 182.775C67.1688 182.775 67.4591 182.797 67.7538 182.84C68.0485 182.883 68.3041 182.953 68.5208 183.048V182.684C68.5208 182.251 68.3908 181.917 68.1308 181.683C67.8795 181.449 67.5025 181.332 66.9998 181.332C66.6271 181.332 66.2718 181.397 65.9338 181.527C65.5958 181.657 65.2405 181.848 64.8678 182.099L64.3088 180.955C64.7595 180.66 65.2188 180.439 65.6868 180.292C66.1635 180.145 66.6618 180.071 67.1818 180.071C68.1525 180.071 68.9065 180.314 69.4438 180.799C69.9898 181.284 70.2628 181.978 70.2628 182.879V185.05C70.2628 185.232 70.2931 185.362 70.3538 185.44C70.4231 185.518 70.5315 185.566 70.6788 185.583V187C70.5228 187.026 70.3798 187.048 70.2498 187.065C70.1285 187.082 70.0245 187.091 69.9378 187.091C69.5911 187.091 69.3268 187.013 69.1448 186.857C68.9715 186.701 68.8631 186.51 68.8198 186.285L68.7808 185.934C68.4861 186.315 68.1178 186.61 67.6758 186.818C67.2338 187.026 66.7831 187.13 66.3238 187.13C65.8731 187.13 65.4658 187.039 65.1018 186.857C64.7465 186.666 64.4648 186.411 64.2568 186.09C64.0575 185.761 63.9578 185.392 63.9578 184.985ZM68.1958 185.336C68.2911 185.232 68.3691 185.128 68.4298 185.024C68.4905 184.92 68.5208 184.825 68.5208 184.738V184.049C68.3128 183.962 68.0875 183.897 67.8448 183.854C67.6021 183.802 67.3725 183.776 67.1558 183.776C66.7051 183.776 66.3325 183.876 66.0378 184.075C65.7518 184.266 65.6088 184.521 65.6088 184.842C65.6088 185.015 65.6565 185.18 65.7518 185.336C65.8471 185.492 65.9858 185.618 66.1678 185.713C66.3498 185.808 66.5665 185.856 66.8178 185.856C67.0778 185.856 67.3335 185.808 67.5848 185.713C67.8361 185.609 68.0398 185.483 68.1958 185.336ZM75.9092 186.649C75.7618 186.71 75.5842 186.779 75.3762 186.857C75.1682 186.935 74.9428 186.996 74.7002 187.039C74.4662 187.091 74.2278 187.117 73.9852 187.117C73.6645 187.117 73.3698 187.061 73.1012 186.948C72.8325 186.835 72.6158 186.658 72.4512 186.415C72.2952 186.164 72.2172 185.839 72.2172 185.44V181.527H71.3202V180.188H72.2172V177.978H73.9592V180.188H75.3892V181.527H73.9592V184.855C73.9678 185.089 74.0328 185.258 74.1542 185.362C74.2755 185.466 74.4272 185.518 74.6092 185.518C74.7912 185.518 74.9688 185.488 75.1422 185.427C75.3155 185.366 75.4542 185.314 75.5582 185.271L75.9092 186.649ZM79.8993 187.13C79.3533 187.13 78.8593 187.039 78.4173 186.857C77.9753 186.666 77.5983 186.411 77.2863 186.09C76.9743 185.761 76.7316 185.388 76.5583 184.972C76.3936 184.547 76.3113 184.101 76.3113 183.633C76.3113 182.983 76.4543 182.389 76.7403 181.852C77.0349 181.315 77.4509 180.886 77.9883 180.565C78.5343 180.236 79.1756 180.071 79.9123 180.071C80.6576 180.071 81.2946 180.236 81.8233 180.565C82.3519 180.886 82.7549 181.315 83.0323 181.852C83.3183 182.381 83.4613 182.953 83.4613 183.568C83.4613 183.672 83.4569 183.78 83.4483 183.893C83.4396 183.997 83.4309 184.084 83.4223 184.153H78.1573C78.1919 184.5 78.2916 184.803 78.4563 185.063C78.6296 185.323 78.8463 185.522 79.1063 185.661C79.3749 185.791 79.6609 185.856 79.9643 185.856C80.3109 185.856 80.6359 185.774 80.9393 185.609C81.2513 185.436 81.4636 185.21 81.5763 184.933L83.0713 185.349C82.9066 185.696 82.6683 186.003 82.3563 186.272C82.0529 186.541 81.6933 186.753 81.2773 186.909C80.8613 187.056 80.4019 187.13 79.8993 187.13ZM78.1183 183.048H81.6803C81.6456 182.701 81.5459 182.402 81.3813 182.151C81.2253 181.891 81.0173 181.692 80.7573 181.553C80.4973 181.406 80.2069 181.332 79.8863 181.332C79.5743 181.332 79.2883 181.406 79.0283 181.553C78.7769 181.692 78.5689 181.891 78.4043 182.151C78.2483 182.402 78.1529 182.701 78.1183 183.048ZM89.6085 181.072V187H87.8145V177.77H89.2445L94.0155 183.854V177.783H95.8095V187H94.3145L89.6085 181.072ZM100.605 187.13C100.059 187.13 99.5653 187.039 99.1233 186.857C98.6813 186.666 98.3043 186.411 97.9923 186.09C97.6803 185.761 97.4377 185.388 97.2643 184.972C97.0997 184.547 97.0173 184.101 97.0173 183.633C97.0173 182.983 97.1603 182.389 97.4463 181.852C97.741 181.315 98.157 180.886 98.6943 180.565C99.2403 180.236 99.8817 180.071 100.618 180.071C101.364 180.071 102.001 180.236 102.529 180.565C103.058 180.886 103.461 181.315 103.738 181.852C104.024 182.381 104.167 182.953 104.167 183.568C104.167 183.672 104.163 183.78 104.154 183.893C104.146 183.997 104.137 184.084 104.128 184.153H98.8633C98.898 184.5 98.9977 184.803 99.1623 185.063C99.3357 185.323 99.5523 185.522 99.8123 185.661C100.081 185.791 100.367 185.856 100.67 185.856C101.017 185.856 101.342 185.774 101.645 185.609C101.957 185.436 102.17 185.21 102.282 184.933L103.777 185.349C103.613 185.696 103.374 186.003 103.062 186.272C102.759 186.541 102.399 186.753 101.983 186.909C101.567 187.056 101.108 187.13 100.605 187.13ZM98.8243 183.048H102.386C102.352 182.701 102.252 182.402 102.087 182.151C101.931 181.891 101.723 181.692 101.463 181.553C101.203 181.406 100.913 181.332 100.592 181.332C100.28 181.332 99.9943 181.406 99.7343 181.553C99.483 181.692 99.275 181.891 99.1103 182.151C98.9543 182.402 98.859 182.701 98.8243 183.048ZM113.488 180.188H115.139L112.292 187H110.836L109.692 184.075L108.574 187H107.105L104.271 180.188H105.909L107.937 185.336L108.73 183.113L107.547 180.201H108.99L109.692 182.281L110.407 180.201H111.85L110.667 183.113L111.473 185.336L113.488 180.188ZM118.867 187V177.77H122.78C123.205 177.77 123.595 177.857 123.95 178.03C124.306 178.203 124.613 178.437 124.873 178.732C125.142 179.027 125.35 179.356 125.497 179.72C125.645 180.084 125.718 180.457 125.718 180.838C125.718 181.358 125.597 181.852 125.354 182.32C125.112 182.788 124.778 183.169 124.353 183.464C123.929 183.759 123.426 183.906 122.845 183.906H120.661V187H118.867ZM120.661 182.333H122.741C122.958 182.333 123.153 182.272 123.326 182.151C123.5 182.03 123.638 181.856 123.742 181.631C123.846 181.397 123.898 181.133 123.898 180.838C123.898 180.517 123.838 180.244 123.716 180.019C123.604 179.794 123.452 179.625 123.261 179.512C123.079 179.399 122.88 179.343 122.663 179.343H120.661V182.333ZM129.804 187.13C129.25 187.13 128.751 187.039 128.309 186.857C127.867 186.666 127.49 186.406 127.178 186.077C126.875 185.748 126.641 185.371 126.476 184.946C126.312 184.521 126.229 184.075 126.229 183.607C126.229 183.13 126.312 182.68 126.476 182.255C126.641 181.83 126.875 181.453 127.178 181.124C127.49 180.795 127.867 180.539 128.309 180.357C128.751 180.166 129.25 180.071 129.804 180.071C130.359 180.071 130.853 180.166 131.286 180.357C131.728 180.539 132.105 180.795 132.417 181.124C132.729 181.453 132.963 181.83 133.119 182.255C133.284 182.68 133.366 183.13 133.366 183.607C133.366 184.075 133.284 184.521 133.119 184.946C132.963 185.371 132.729 185.748 132.417 186.077C132.114 186.406 131.741 186.666 131.299 186.857C130.857 187.039 130.359 187.13 129.804 187.13ZM128.023 183.607C128.023 184.006 128.101 184.361 128.257 184.673C128.413 184.976 128.626 185.215 128.894 185.388C129.163 185.561 129.466 185.648 129.804 185.648C130.134 185.648 130.433 185.561 130.701 185.388C130.97 185.206 131.182 184.963 131.338 184.66C131.503 184.348 131.585 183.993 131.585 183.594C131.585 183.204 131.503 182.853 131.338 182.541C131.182 182.229 130.97 181.986 130.701 181.813C130.433 181.64 130.134 181.553 129.804 181.553C129.466 181.553 129.163 181.644 128.894 181.826C128.626 181.999 128.413 182.242 128.257 182.554C128.101 182.857 128.023 183.208 128.023 183.607ZM137.051 187.13C136.47 187.13 135.916 187.035 135.387 186.844C134.858 186.653 134.403 186.372 134.022 185.999L134.646 184.868C135.053 185.197 135.452 185.44 135.842 185.596C136.241 185.752 136.622 185.83 136.986 185.83C137.324 185.83 137.593 185.769 137.792 185.648C138 185.527 138.104 185.345 138.104 185.102C138.104 184.937 138.048 184.812 137.935 184.725C137.822 184.63 137.658 184.547 137.441 184.478C137.233 184.409 136.977 184.331 136.674 184.244C136.171 184.079 135.751 183.919 135.413 183.763C135.075 183.607 134.819 183.412 134.646 183.178C134.481 182.935 134.399 182.628 134.399 182.255C134.399 181.804 134.512 181.419 134.737 181.098C134.971 180.769 135.292 180.513 135.699 180.331C136.115 180.149 136.6 180.058 137.155 180.058C137.64 180.058 138.1 180.136 138.533 180.292C138.966 180.439 139.361 180.682 139.716 181.02L139.014 182.125C138.667 181.856 138.338 181.661 138.026 181.54C137.714 181.41 137.398 181.345 137.077 181.345C136.895 181.345 136.722 181.367 136.557 181.41C136.401 181.453 136.271 181.527 136.167 181.631C136.072 181.726 136.024 181.865 136.024 182.047C136.024 182.212 136.067 182.342 136.154 182.437C136.249 182.524 136.388 182.602 136.57 182.671C136.761 182.74 136.99 182.818 137.259 182.905C137.805 183.061 138.264 183.221 138.637 183.386C139.018 183.551 139.304 183.754 139.495 183.997C139.686 184.231 139.781 184.556 139.781 184.972C139.781 185.648 139.534 186.177 139.04 186.558C138.546 186.939 137.883 187.13 137.051 187.13ZM145.01 186.649C144.862 186.71 144.685 186.779 144.477 186.857C144.269 186.935 144.043 186.996 143.801 187.039C143.567 187.091 143.328 187.117 143.086 187.117C142.765 187.117 142.47 187.061 142.202 186.948C141.933 186.835 141.716 186.658 141.552 186.415C141.396 186.164 141.318 185.839 141.318 185.44V181.527H140.421V180.188H141.318V177.978H143.06V180.188H144.49V181.527H143.06V184.855C143.068 185.089 143.133 185.258 143.255 185.362C143.376 185.466 143.528 185.518 143.71 185.518C143.892 185.518 144.069 185.488 144.243 185.427C144.416 185.366 144.555 185.314 144.659 185.271L145.01 186.649Z" fill="#334C25"/>
</g>
<defs>
<clipPath id="clip0_1246_102">
<rect width="189" height="224" rx="8" fill="white"/>
</clipPath>
</defs>
</svg>
