<svg width="24" height="24" viewBox="0 0 24 24" fill="none" xmlns="http://www.w3.org/2000/svg">
<path d="M7.22711 10.5612C7.05647 10.6659 6.88799 10.7527 6.73775 10.8641C6.15959 11.293 5.52143 11.5183 4.79591 11.4617C4.32431 11.425 3.89471 11.2551 3.48815 11.0261C2.69303 10.5783 2.01311 9.99529 1.46615 9.26185C1.40567 9.18073 1.35119 9.09409 1.30319 9.00505C1.13663 8.69641 1.17095 8.42401 1.41263 8.16769C1.68287 7.88113 2.02631 7.70641 2.38919 7.57441C3.36767 7.21801 4.36415 7.12585 5.37959 7.40353C5.73719 7.50145 6.05351 7.68577 6.35831 7.89169C6.65159 8.08969 6.95783 8.26153 7.31447 8.36809C7.35791 8.19409 7.39991 8.02585 7.44167 7.85761C7.21463 7.78273 6.98687 7.72753 6.77591 7.63441C5.96831 7.27849 5.47247 6.68257 5.41559 5.77705C5.38799 5.33785 5.52455 4.93081 5.72063 4.54441C6.01751 3.95905 6.40535 3.43249 6.79775 2.90953C6.81887 2.88145 6.84191 2.84569 6.87167 2.83561C6.92519 2.81713 6.99431 2.79361 7.03775 2.81377C7.06991 2.82865 7.09487 2.91577 7.08287 2.95993C7.00847 3.23641 6.92327 3.50977 6.84071 3.78409C6.74543 4.10041 6.63167 4.41241 6.55847 4.73377C6.49295 5.02129 6.50303 5.31529 6.66911 5.57977C6.88607 5.92513 7.26023 6.07489 7.70687 5.99089C7.86263 5.96161 8.01695 5.92153 8.16983 5.87953C8.22311 5.86489 8.28119 5.84017 8.31959 5.80225C8.89703 5.23033 9.60815 4.91761 10.3836 4.72585C10.7774 4.62841 11.1756 4.54297 11.5613 4.41985C11.7996 4.34377 12.0182 4.20721 12.2376 4.10185C12.216 4.30657 12.0756 4.47385 11.8865 4.65337C12.3226 4.56169 12.7282 4.50841 13.1018 4.33105C13.2989 4.23745 13.4549 4.10065 13.5526 3.89905C13.5878 4.23241 13.4347 4.49305 13.2259 4.72585C13.5358 4.78345 13.8398 4.82665 14.1372 4.89817C14.7029 5.03401 15.1781 5.33497 15.6218 5.70721C15.977 6.00505 16.416 6.06889 16.8564 5.95849C17.2769 5.85313 17.5435 5.39809 17.4754 4.92457C17.4343 4.63873 17.3465 4.35865 17.2658 4.08001C17.1689 3.74569 17.0568 3.41593 16.9526 3.08401C16.9421 3.05065 16.9306 3.01345 16.9351 2.98033C16.9438 2.92033 16.9642 2.86177 16.9798 2.80273C17.0462 2.82385 17.1386 2.82433 17.1746 2.86969C17.3609 3.10489 17.5466 3.34273 17.7062 3.59617C17.9503 3.98377 18.2086 4.36873 18.3982 4.78345C19.0025 6.10489 18.2227 7.28809 17.1641 7.67089C16.9742 7.73953 16.7789 7.79281 16.5703 7.85809C16.6116 8.02057 16.6543 8.18857 16.6999 8.36761C16.9999 8.27329 17.262 8.13457 17.5186 7.97881C17.8044 7.80505 18.089 7.62217 18.3941 7.48921C18.8878 7.27393 19.4191 7.22977 19.9529 7.24873C20.7077 7.27561 21.4342 7.43041 22.097 7.80577C22.2862 7.91281 22.4645 8.05369 22.615 8.21041C22.8372 8.44153 22.8518 8.68201 22.6975 8.96449C22.4748 9.37249 22.1635 9.71041 21.8314 10.0296C21.3444 10.4976 20.808 10.8977 20.1926 11.1826C19.1491 11.6655 18.1702 11.5361 17.2486 10.866C17.1007 10.7585 16.9399 10.669 16.7844 10.5706C16.723 10.7175 16.6721 10.8336 16.626 10.9519C16.6142 10.9819 16.6073 11.0215 16.6166 11.0506C16.775 11.5474 16.687 12.0317 16.5266 12.5052C16.4522 12.7248 16.3406 12.9339 16.2286 13.1381C16.0488 13.4659 15.9266 13.8075 15.9485 14.1852C15.9893 14.8939 15.8808 15.5765 15.605 16.2307C15.4008 16.7153 15.4325 17.202 15.564 17.6969C15.6238 17.922 15.6643 18.1541 15.6914 18.3857C15.769 19.0476 15.5285 19.4256 14.8956 19.656C14.8006 19.6906 14.7022 19.7184 14.6033 19.7391C14.4403 19.7734 14.3419 19.8619 14.2961 20.0268C14.2073 20.3475 14.0486 20.629 13.7974 20.8548C13.4808 21.1395 13.1146 21.246 12.695 21.1791C12.2246 21.1039 11.7554 21.1109 11.2824 21.1714C10.631 21.2547 10.097 20.9544 9.80375 20.3595C9.74759 20.2455 9.70391 20.124 9.66575 20.0023C9.62063 19.8583 9.53327 19.7772 9.38567 19.7357C9.21263 19.687 9.03935 19.6277 8.87855 19.5483C8.45759 19.3402 8.25479 18.9742 8.30879 18.5079C8.34167 18.2237 8.38223 17.9369 8.45951 17.6623C8.60807 17.1329 8.57063 16.6246 8.36351 16.1218C8.14151 15.583 8.03423 15.0235 8.07311 14.4403C8.10743 13.9243 7.97807 13.4551 7.70423 13.0176C7.38671 12.5103 7.28015 11.9484 7.30847 11.3563C7.30943 11.3343 7.30511 11.3091 7.31399 11.2906C7.43327 11.0446 7.32983 10.8226 7.22711 10.5612ZM14.3218 6.71185C14.3126 6.72169 14.3035 6.73153 14.2944 6.74137C13.7702 6.52201 13.2235 6.34441 12.7997 5.90281C12.8059 6.22537 12.6588 6.46489 12.4442 6.65737C12.1951 6.88081 11.9328 7.09105 11.665 7.29169C11.4876 7.42465 11.2903 7.53097 11.1019 7.64905C11.4216 7.10449 11.6388 6.53401 11.7571 5.89945C11.1038 6.31009 10.3927 6.50209 9.70079 6.74281C9.69119 6.73177 9.68135 6.72097 9.67175 6.70993C9.95279 6.37705 10.2338 6.04393 10.5221 5.70265C9.85199 5.93497 9.23591 6.25369 8.66663 6.70081C8.86343 6.27409 9.08831 6.01345 9.57551 5.62705C9.53399 5.63209 9.49271 5.64049 9.45479 5.65657C8.89295 5.89465 8.47367 6.27409 8.26151 6.86017C7.93151 7.77193 7.69727 8.70817 7.55687 9.66673C7.50887 9.99433 7.54127 10.3222 7.64351 10.6339C7.76927 10.5807 7.88183 10.5139 8.00327 10.4849C8.38439 10.3939 8.70959 10.5339 8.99183 10.7755C9.16799 10.9265 9.32039 11.1055 9.49247 11.2815C9.20231 10.4753 8.73911 9.79921 8.08271 9.25369C8.09015 9.24049 8.09759 9.22705 8.10503 9.21385C8.40263 9.27745 8.70023 9.34081 8.99327 9.40345C8.89823 9.28561 8.79647 9.15937 8.69471 9.03313C9.26879 9.37369 9.65687 9.85489 9.83087 10.5007C10.122 11.5822 10.2074 12.6831 10.1369 13.7971C10.1184 14.0887 10.0716 14.3784 10.038 14.6691C9.88967 13.6798 9.68399 12.7183 9.09863 11.881C8.68127 12.1267 8.33735 12.1294 8.08055 11.8971C7.93487 11.7653 7.86623 11.6011 7.85879 11.4051C7.85135 11.2119 7.92383 11.0475 8.04095 10.8814C7.79015 10.9879 7.66559 11.2181 7.68527 11.5301C7.71719 12.0334 7.85999 12.5007 8.14871 12.9192C8.26151 13.0827 8.37527 13.2463 8.47583 13.4175C8.86055 14.0717 8.99471 14.7999 9.08519 15.5391C9.11159 15.7543 9.12935 15.9706 9.15215 16.1981C9.73007 15.4999 10.4532 15.4236 10.8826 15.607C10.745 15.6262 10.5895 15.6291 10.4458 15.6713C10.0375 15.7918 9.71927 16.0491 9.46727 16.3846C8.97407 17.0412 8.80247 17.809 8.74607 18.606C8.72015 18.9725 8.96759 19.212 9.33383 19.2055C9.87599 19.1962 10.2751 18.9149 10.5893 18.4973C10.6742 18.3845 10.637 18.3087 10.501 18.2554C10.4278 18.2268 10.3502 18.1999 10.2883 18.1539C9.92903 17.8848 9.70175 17.1929 9.82559 16.7628C9.88175 16.5679 10.021 16.4683 10.2226 16.4931C10.3579 16.5099 10.4921 16.5396 10.6253 16.5691C11.3076 16.7201 11.9959 16.7839 12.6907 16.6889C13.0354 16.6419 13.3754 16.5607 13.7189 16.5024C14.0386 16.4479 14.2164 16.5979 14.2325 16.9215C14.2514 17.3035 14.131 17.6427 13.9162 17.9525C13.8158 18.0972 13.6901 18.2079 13.517 18.264C13.3668 18.3127 13.3438 18.3862 13.44 18.51C13.7177 18.8671 14.0695 19.1146 14.5207 19.1981C14.9952 19.2859 15.3115 19.0092 15.2842 18.5271C15.2753 18.3694 15.2448 18.2117 15.2119 18.0567C15.0994 17.5243 14.969 16.9978 14.6616 16.5353C14.3652 16.0891 13.9822 15.7611 13.4467 15.6408C13.3956 15.6293 13.3416 15.6286 13.2888 15.6262C13.2365 15.6238 13.1839 15.6257 13.1314 15.6257C13.8418 15.4015 14.4022 15.6552 14.8754 16.1835C14.9083 15.8962 14.9374 15.6211 14.9719 15.3468C15.0814 14.4783 15.311 13.6579 15.8381 12.9331C16.1642 12.4846 16.3171 11.9609 16.3001 11.4C16.2934 11.1792 16.1938 11.0004 15.9799 10.878C16.2048 11.3208 16.1966 11.6347 15.9317 11.8707C15.8285 11.9626 15.6854 12.0319 15.5496 12.0605C15.3149 12.1099 15.0991 12.0228 14.8978 11.8656C14.3059 12.7222 14.1014 13.6872 13.9889 14.6866C13.9459 14.466 13.9092 14.2464 13.8881 14.0254C13.8211 13.3231 13.8406 12.6211 13.9162 11.9211C13.9798 11.3323 14.0748 10.7496 14.279 10.1897C14.4696 9.66697 14.8574 9.32137 15.307 9.02929C15.2645 9.10057 15.211 9.16225 15.1594 9.22585C15.1068 9.29089 15.0564 9.35761 14.9832 9.45169C15.3041 9.31297 15.5988 9.23833 15.943 9.23665C15.2659 9.80377 14.797 10.4791 14.5294 11.2903C14.557 11.2728 14.5757 11.2491 14.5934 11.2246C14.7629 10.9901 14.9484 10.7707 15.2066 10.6296C15.5088 10.4645 15.8227 10.3867 16.1563 10.5372C16.2197 10.5658 16.2787 10.6035 16.3476 10.6411C16.4191 10.3582 16.4832 10.0831 16.4424 9.79681C16.397 9.47809 16.3586 9.15769 16.2974 8.84161C16.1616 8.13937 15.9854 7.44721 15.7147 6.78289C15.4963 6.24721 15.1078 5.88169 14.5747 5.66593C14.5282 5.64697 14.479 5.63425 14.4312 5.61865C14.8262 5.88289 15.0982 6.24169 15.3221 6.64489C15.0226 6.46417 14.7384 6.27049 14.4346 6.11593C14.1288 5.96041 13.8031 5.84401 13.4861 5.71033C13.4844 5.71921 13.4825 5.72809 13.4808 5.73721C13.7614 6.06193 14.0417 6.38689 14.3218 6.71185ZM14.0357 19.8523C12.6785 19.8523 11.3326 19.8523 9.97991 19.8523C9.98735 19.8804 9.99023 19.8977 9.99647 19.9135C10.2065 20.4355 10.806 20.7622 11.3933 20.6571C11.7984 20.5846 12.1978 20.5879 12.6026 20.6566C12.9845 20.7211 13.3404 20.641 13.6502 20.3986C13.8305 20.257 13.9637 20.0813 14.0357 19.8523ZM16.0418 6.30505C16.1266 6.50665 16.3164 6.60913 16.5744 6.60001C16.9186 6.58801 17.3026 6.32113 17.4058 6.01249C17.0141 6.42097 16.529 6.36361 16.0418 6.30505ZM7.94447 6.34105C7.70351 6.34105 7.47023 6.35305 7.23863 6.33769C7.00439 6.32209 6.80567 6.20305 6.60263 6.02401C6.76151 6.40417 7.23191 6.65425 7.59839 6.58705C7.75439 6.55825 7.87559 6.48553 7.94447 6.34105Z" fill="black"/>
</svg>
