<svg width="18" height="20" viewBox="0 0 18 20" fill="none" xmlns="http://www.w3.org/2000/svg">
<path d="M9.04688 3.64708C9.37889 3.64708 10.1677 3.85703 10.1677 3.85703C12.3047 4.34673 13.8089 6.31511 13.8089 8.5375V14.5193L14.2458 14.9583L14.6108 15.325H3.38916L3.75422 14.9583L4.19114 14.5193V8.5375C4.19114 6.31516 5.69531 4.34673 7.8323 3.85703C7.8323 3.85703 8.67806 3.64708 8.95312 3.64708M9 0.25C8.17491 0.25 7.54411 0.883656 7.54411 1.7125V2.39495C4.77778 3.02884 2.69114 5.56375 2.69114 8.5375V13.9L0.75 15.85V16.825H17.25V15.85L15.3089 13.9V8.5375C15.3089 5.56375 13.2222 3.02884 10.4559 2.39495V1.7125C10.4559 0.883656 9.82509 0.25 9 0.25ZM10.9411 17.8H7.05881C7.05881 18.8725 7.93223 19.75 9 19.75C10.0678 19.75 10.9411 18.8725 10.9411 17.8Z" fill="black"/>
</svg>
