<svg width="24" height="24" viewBox="0 0 24 24" fill="none" xmlns="http://www.w3.org/2000/svg">
<path d="M13.2 19.8C14.4 19.68 15.48 19.2 16.44 18.24C17.52 17.16 18 15.72 18 14.4C18 14.04 17.76 13.8 17.4 13.8C15.96 13.8 14.64 14.28 13.56 15.36L13.2 15.72" stroke="black" stroke-miterlimit="10"/>
<path d="M10.56 19.8C9.36001 19.68 8.28001 19.2 7.32001 18.24C6.24001 17.16 5.76001 15.72 5.76001 14.4C5.76001 14.04 6.00001 13.8 6.36001 13.8C7.80001 13.8 9.12001 14.28 10.2 15.36L10.56 15.72" stroke="black" stroke-miterlimit="10" stroke-linecap="round" stroke-linejoin="round"/>
<path d="M13.32 13.2C14.28 13.08 15.12 12.6 15.84 11.88C16.68 11.04 17.16 9.96 17.16 8.76C17.16 8.4 16.8 8.04 16.44 8.04C15.36 8.04 14.16 8.52 13.32 9.36C12.6 10.08 12.24 10.92 12 11.88M10.68 13.2C9.72003 13.08 8.88003 12.6 8.16003 11.88C7.32003 11.04 6.84003 9.96 6.84003 8.88C6.84003 8.4 7.20003 8.16 7.56003 8.16C8.64003 8.16 9.84003 8.64 10.68 9.48C11.4 10.2 11.76 11.04 12 12M9.60003 5.52C9.96003 6.72 10.8 7.56 11.76 8.16C12 8.28 12.36 8.16 12.48 7.92C12.96 6.96 13.2 5.76 12.84 4.56C12.48 3.36 11.64 2.52 10.68 1.92C10.44 1.8 10.08 1.92 9.96003 2.16C9.36003 3.12 9.24003 4.32 9.60003 5.52Z" stroke="black" stroke-miterlimit="10"/>
<path d="M13.2 21C13.2 21.72 12.72 22.2 12 22.2C11.28 22.2 10.8 21.72 10.8 21V12.6C10.8 11.88 11.28 11.4 12 11.4C12.72 11.4 13.2 11.88 13.2 12.6V21Z" stroke="black" stroke-miterlimit="10"/>
<path d="M13.2 21C13.2 21.72 12.72 22.2 12 22.2C11.28 22.2 10.8 21.72 10.8 21V12.6C10.8 11.88 11.28 11.4 12 11.4C12.72 11.4 13.2 11.88 13.2 12.6V21Z" stroke="black" stroke-miterlimit="10"/>
</svg>
