<svg width="80" height="80" viewBox="0 0 80 80" fill="none" xmlns="http://www.w3.org/2000/svg">
<path d="M19.7622 61.6044C19.085 61.3506 18.3232 61.6771 18.0611 62.3352C17.799 62.9932 18.1358 63.7334 18.8132 63.988C25.0734 66.3403 25.7461 74.3964 25.7704 77.4446H2.63842C2.66289 74.3952 3.336 66.3403 9.59577 63.988C10.2732 63.7334 10.6098 62.9934 10.3479 62.3352C10.086 61.6771 9.32454 61.3494 8.64696 61.6044C-0.913928 65.1972 -0.00162092 78.2647 0.0418686 78.8193C0.0942889 79.4856 0.665671 80 1.35315 80H27.0556C27.7431 80 28.3147 79.4857 28.3669 78.8196C28.4104 78.2647 29.3231 65.1972 19.7622 61.6044Z" fill="black"/>
<path d="M62.2376 65.5566C62.9637 65.5566 63.5528 64.9845 63.5528 64.279C63.5528 63.5734 62.9637 63.0012 62.2376 63.0012H51.8298C51.1037 63.0012 50.5146 63.5734 50.5146 64.279V78.7223C50.5146 79.4277 51.1037 79.9998 51.8298 79.9998H62.2376C62.9637 79.9998 63.5528 79.4277 63.5528 78.7223V69.1186C63.5528 68.413 62.9637 67.8409 62.2376 67.8409C61.5115 67.8409 60.9224 68.413 60.9224 69.1186V77.4446H53.145V65.5567H62.2376V65.5566Z" fill="black"/>
<path d="M44.8084 48.3785C45.5347 48.3785 46.1236 47.8063 46.1236 47.1008C46.1236 46.3954 45.5347 45.8231 44.8084 45.8231H34.4006C33.6741 45.8231 33.0854 46.3954 33.0854 47.1008V78.7223C33.0854 79.4277 33.6741 79.9998 34.4006 79.9998H44.8084C45.5347 79.9998 46.1236 79.4277 46.1236 78.7223V52.0458C46.1236 51.3404 45.5347 50.7681 44.8084 50.7681C44.0823 50.7681 43.4932 51.3404 43.4932 52.0458V77.4444H35.7158V48.3783L44.8084 48.3785Z" fill="black"/>
<path d="M14.2042 60.1519C21.612 60.1519 27.6386 54.2974 27.6386 47.1008C27.6386 39.9043 21.612 34.0494 14.2042 34.0494C6.79666 34.0494 0.770264 39.9043 0.770264 47.1008C0.770264 54.2974 6.79666 60.1519 14.2042 60.1519ZM14.2042 36.6048C20.1617 36.6048 25.0081 41.3133 25.0081 47.1006C25.0081 52.8878 20.1615 57.5965 14.2042 57.5965C8.24715 57.5965 3.4006 52.8878 3.4006 47.1006C3.4006 41.3133 8.24715 36.6048 14.2042 36.6048Z" fill="black"/>
<path d="M54.2754 29.428V4.12904C54.2754 3.42342 53.6863 2.85134 52.9602 2.85134H44.2404V1.2777C44.2404 0.57208 43.6515 0 42.9252 0C42.1991 0 41.6102 0.57208 41.6102 1.2777V6.57542C41.6102 7.28085 42.1991 7.85312 42.9252 7.85312C43.6515 7.85312 44.2404 7.28085 44.2404 6.57542V5.40674H51.6451V12.6133H47.7116C46.9855 12.6133 46.3964 13.1856 46.3964 13.891C46.3964 14.5964 46.9855 15.1687 47.7116 15.1687H51.6451V29.428C51.6451 31.3506 50.0348 32.9146 48.0558 32.9146H25.7973C25.071 32.9146 24.4822 33.4869 24.4822 34.1923C24.4822 34.8978 25.071 35.47 25.7973 35.47H48.0558C51.4853 35.4702 54.2754 32.7596 54.2754 29.428Z" fill="black"/>
<path d="M11.7263 29.7814C12.4528 29.7814 13.0415 29.2093 13.0415 28.5038V15.1689H41.0652C41.7915 15.1689 42.3804 14.5966 42.3804 13.8912C42.3804 13.1858 41.7915 12.6135 41.0652 12.6135H13.0415V5.40677H16.748C17.4745 5.40677 18.0631 4.83469 18.0631 4.12926C18.0631 3.42364 17.4743 2.85156 16.748 2.85156H11.7263C10.9998 2.85156 10.4111 3.42364 10.4111 4.12926V28.504C10.4111 29.2093 10.9998 29.7814 11.7263 29.7814Z" fill="black"/>
<path d="M32.3432 7.85312C33.0696 7.85312 33.6584 7.28085 33.6584 6.57542V5.40674H37.9447C38.6712 5.40674 39.2598 4.83466 39.2598 4.12923C39.2598 3.42361 38.671 2.85153 37.9447 2.85153H33.6584V1.27788C33.6584 0.572263 33.0696 0.000183105 32.3432 0.000183105C31.6167 0.000183105 31.0281 0.572263 31.0281 1.27788V6.57561C31.0281 7.28085 31.6167 7.85312 32.3432 7.85312Z" fill="black"/>
<path d="M21.7612 7.85312C22.4877 7.85312 23.0764 7.28085 23.0764 6.57542V5.40674H27.3364C28.0627 5.40674 28.6516 4.83466 28.6516 4.12923C28.6516 3.42361 28.0627 2.85153 27.3364 2.85153H23.0764V1.27788C23.0764 0.572263 22.4875 0.000183105 21.7612 0.000183105C21.0349 0.000183105 20.446 0.572263 20.446 1.27788V6.57561C20.446 7.28085 21.0349 7.85312 21.7612 7.85312Z" fill="black"/>
<path d="M21.9128 23.3707C21.1863 23.3707 20.5977 23.9428 20.5977 24.6482V26.8288C20.5977 27.5343 21.1863 28.1065 21.9128 28.1065H28.6556C29.3821 28.1065 29.9708 27.5343 29.9708 26.8288V20.2779C29.9708 19.5725 29.382 19.0002 28.6556 19.0002H21.9128C21.1863 19.0002 20.5977 19.5725 20.5977 20.2779C20.5977 20.9836 21.1863 21.5556 21.9128 21.5556H27.3405V25.5511H23.228V24.6484C23.228 23.9428 22.6391 23.3707 21.9128 23.3707Z" fill="black"/>
<path d="M36.0307 23.3707C35.3042 23.3707 34.7156 23.9428 34.7156 24.6482V26.8288C34.7156 27.5343 35.3042 28.1065 36.0307 28.1065H42.7736C43.4997 28.1065 44.0887 27.5343 44.0887 26.8288V20.2779C44.0887 19.5725 43.4997 19.0002 42.7736 19.0002H36.0307C35.3042 19.0002 34.7156 19.5725 34.7156 20.2779C34.7156 20.9836 35.3042 21.5556 36.0307 21.5556H41.4584V25.5511H37.3459V24.6484C37.3459 23.9428 36.7571 23.3707 36.0307 23.3707Z" fill="black"/>
<path d="M78.685 19.0001C77.9587 19.0001 77.3699 19.5724 77.3699 20.2778V77.4444H69.5923V16.8344H78.685C79.4112 16.8344 80 16.2623 80 15.5569C80 14.8513 79.4112 14.2792 78.685 14.2792H68.2771C67.551 14.2792 66.9619 14.8513 66.9619 15.5569V78.7225C66.9619 79.4279 67.551 80 68.2771 80H78.685C79.4112 80 80 79.4279 80 78.7225V20.2778C80 19.5724 79.4112 19.0001 78.685 19.0001Z" fill="black"/>
</svg>
